v -0.029415151 0.002212897 0.06
v -0.02941515 -0.002301364 0.06
v -0.02941515 -0.002246484 0.06
v -0.02941515 -0.002127316 0.06
v -0.02941515 -0.001998773 0.06
v -0.02941515 -0.001932411 0.06
v -0.02941515 -0.001798834 0.06
v -0.02941515 -0.001548905 0.06
v -0.02941515 -0.001494349 0.06
v -0.02941515 -0.001444343 0.06
v -0.02941515 -0.001399478 0.06
v -0.02941515 0.00168422 0.06
v -0.02941515 0.001739771 0.06
v -0.02941515 0.001999914 0.06
v -0.02941515 0.002141779 0.06
v -0.02941515 0.002351878 0.06
v -0.02941515 0.003509954 0.06
v -0.02941515 0.004826008 0.06
v -0.029415149 -0.006283647 0.06
v -0.029415149 -0.0061396 0.06
v -0.029415149 -0.005274625 0.06
v -0.029415149 -0.00248182 0.06
v -0.029415149 -0.002443041 0.06
v -0.029415149 -0.00239991 0.06
v -0.029415149 -0.002352606 0.06
v -0.029415149 -0.002188327 0.06
v -0.029415149 -0.002063948 0.06
v -0.029415149 -0.001865529 0.06
v -0.029415149 -0.001668992 0.06
v -0.029415149 -0.001607357 0.06
v -0.029415149 0.001799873 0.06
v -0.029415149 0.001863784 0.06
v -0.029415149 0.002070529 0.06
v -0.029415149 0.002283158 0.06
v -0.029415149 0.002418448 0.06
v -0.029415149 0.003444921 0.06
v -0.029415149 0.004780705 0.06
v -0.029415149 0.004868743 0.06
v -0.029415149 0.004908705 0.06
v -0.029415149 0.004945763 0.06
v -0.029415149 0.004979841 0.06
v -0.029415149 0.005010911 0.06
v -0.029415149 0.005038978 0.06
v -0.029415149 0.006281806 0.06
v -0.029415148 -0.001733072 0.06
v -0.029415148 0.001930732 0.06
v -0.029405713 0.006504384 0.06
v -0.029405644 -0.006507918 0.06
v -0.029404924 -0.006524424 0.06
v -0.029404924 0.006524425 0.06
v -0.02940384 0.00653446 0.06
v -0.029391202 -0.006649828 0.06
v -0.029390106 -0.006659982 0.06
v -0.029390106 0.00665998 0.06
v -0.029388494 0.006670248 0.06
v -0.029370046 -0.006786154 0.06
v -0.029368421 -0.006796508 0.06
v -0.029368421 0.006796502 0.06
v -0.029366258 0.006806934 0.06
v -0.029341812 -0.006923078 0.06
v -0.029339642 0.006933551 0.06
v -0.029339638 -0.006933561 0.06
v -0.02933691 0.00694407 0.06
v -0.0293063 -0.007060134 0.06
v -0.029303568 0.007070655 0.06
v -0.029303564 -0.007070669 0.06
v -0.029300261 0.007081181 0.06
v -0.029263346 -0.00719683 0.06
v -0.029260052 0.007207317 0.06
v -0.029260046 -0.007207334 0.06
v -0.029256175 0.007217766 0.06
v -0.029224914 -0.006209187 0.060522668
v -0.029224914 0.006209188 0.060522668
v -0.029212836 -0.007332652 0.06
v -0.029208989 0.007343019 0.06
v -0.029208982 -0.00734304 0.06
v -0.029207397 -0.006448052 0.060542647
v -0.029207397 0.006448053 0.060542647
v -0.029204558 0.007353306 0.06
v -0.029189516 -0.006582577 0.06055098
v -0.029189516 0.006582574 0.06055098
v -0.029165514 -0.006718371 0.060557224
v -0.029165514 0.006718365 0.060557224
v -0.029154703 -0.007467064 0.06
v -0.029150328 0.007477226 0.06
v -0.029150315 -0.007477251 0.06
v -0.029145371 0.007487266 0.06
v -0.029135201 0.006854996 0.060561266
v -0.029135197 -0.006855006 0.060561266
v -0.029098419 0.006992009 0.060562994
v -0.029098416 -0.006992022 0.060562994
v -0.02908894 -0.007599521 0.06
v -0.029084066 0.007609394 0.06
v -0.029084052 -0.007609421 0.06
v -0.029078626 0.007619102 0.06
v -0.029055055 0.007128915 0.060562313
v -0.02905505 -0.007128933 0.060562313
v -0.029054878 -0.006158337 0.060989838
v -0.029015588 -0.007729472 0.06
v -0.029010263 0.007738972 0.06
v -0.029010246 -0.007739002 0.06
v -0.029005034 0.007265206 0.060559142
v -0.029005026 -0.007265227 0.060559142
v -0.029004392 0.007748267 0.06
v -0.028948329 0.007400352 0.060553417
v -0.028948318 -0.007400377 0.060553413
v -0.028934751 -0.007856364 0.06
v -0.028929038 0.007865413 0.06
v -0.028929015 -0.007865446 0.06
v -0.028922803 0.007874223 0.06
v -0.028912136 0.006116685 0.061382018
v -0.028884964 0.007533811 0.060545076
v -0.028884951 -0.007533839 0.060545072
v -0.028846599 -0.007979652 0.06
v -0.028840566 0.00798818 0.06
v -0.028840537 -0.007988215 0.06
v -0.028834042 0.007996438 0.06
v -0.028815011 0.007665034 0.06053409
v -0.028814994 -0.007665065 0.06053409
v -0.028751353 -0.008098807 0.06
v -0.02874508 0.008106751 0.06
v -0.028745047 -0.008106788 0.06
v -0.028738597 0.007793473 0.060520448
v -0.028738575 -0.007793507 0.060520444
v -0.028738353 0.0081144 0.06
v -0.028655902 0.007918586 0.060504153
v -0.028655875 -0.007918622 0.060504146
v -0.0286493 -0.008213319 0.06
v -0.028642876 0.008220627 0.06
v -0.02864284 -0.008220666 0.06
v -0.028636041 0.008227622 0.06
v -0.028567154 0.008039847 0.060485229
v -0.028567124 -0.008039885 0.060485221
v -0.028540776 -0.008322709 0.06
v -0.028534301 0.00832934 0.06
v -0.028534258 -0.00832938 0.06
v -0.028527457 0.008335649 0.06
v -0.028472638 0.008156748 0.060463727
v -0.028472604 -0.008156789 0.060463719
v -0.028426175 -0.008426533 0.06
v -0.02841975 0.008432459 0.06
v -0.028419702 -0.0084325 0.06
v -0.028413001 0.008438061 0.06
v -0.028372683 0.008268814 0.06043971
v -0.028372644 -0.008268855 0.060439698
v -0.028360646 -0.005963966 0.062897228
v -0.028360315 0.00596388 0.062898137
v -0.028359598 -0.005274625 0.062900104
v -0.028305942 -0.008524386 0.06
v -0.02829967 0.008529595 0.06
v -0.028299617 -0.008529635 0.06
v -0.02829312 0.008534484 0.06
v -0.028267659 0.008375599 0.060413264
v -0.028267615 -0.008375641 0.060413253
v -0.028180558 -0.008615912 0.06
v -0.028174546 0.008620403 0.06
v -0.028174489 -0.008620443 0.06
v -0.0281683 0.008624587 0.06
v -0.028157979 0.008476702 0.060384497
v -0.028157931 -0.008476744 0.060384486
v -0.028050546 -0.008700807 0.06
v -0.028044897 0.008704592 0.06
v -0.028044834 -0.008704632 0.06
v -0.028044092 0.008571765 0.060353532
v -0.028044039 -0.008571807 0.060353518
v -0.028039053 0.008708092 0.06
v -0.027926467 0.008660481 0.060320508
v -0.02792641 -0.008660523 0.060320493
v -0.027916456 -0.008778816 0.06
v -0.027911272 0.008781925 0.06
v -0.027911202 -0.008781963 0.06
v -0.027900211 0.008782789 0.06
v -0.027900141 -0.008782827 0.06
v -0.027805604 0.008742595 0.060285579
v -0.027805541 -0.008742635 0.060285561
v -0.027773924 0.00884805 0.06
v -0.027773848 -0.008848087 0.06
v -0.027764295 -0.008852518 0.06
v -0.02768201 0.008817906 0.0602489
v -0.027681941 -0.008817945 0.060248882
v -0.027642332 0.008907983 0.06
v -0.027634076 0.008911812 0.06
v -0.027633995 -0.008911847 0.06
v -0.027625777 -0.008915183 0.06
v -0.027556201 0.00888627 0.060210653
v -0.027556129 -0.008886307 0.06021063
v -0.027498805 0.008965597 0.06
v -0.027491987 0.008968365 0.06
v -0.027491902 -0.008968397 0.06
v -0.02748515 -0.008970768 0.06
v -0.0274287 0.0089476 0.060171012
v -0.027428623 -0.008947634 0.060170989
v -0.027353496 0.009015846 0.06
v -0.027348239 0.009017691 0.06
v -0.027348149 -0.00901772 0.06
v -0.027342968 -0.009019269 0.06
v -0.027300019 0.009001859 0.060130164
v -0.027299939 -0.009001891 0.060130138
v -0.027206998 0.009058753 0.06
v -0.027203401 0.009059828 0.06
v -0.027203307 -0.009059854 0.06
v -0.027199779 -0.009060733 0.06
v -0.027170662 0.009049069 0.060088288
v -0.027170578 -0.009049098 0.060088262
v -0.027059896 0.009094397 0.06
v -0.02705803 0.009094862 0.06
v -0.027057931 -0.009094884 0.06
v -0.027056109 -0.009095251 0.06
v -0.027041115 0.009089297 0.060045574
v -0.027041025 -0.009089322 0.060045548
v -0.026912749 0.009122909 0.06
v -0.026912659 0.009122927 0.06
v -0.026912556 -0.009122944 0.06
v -0.02691247 -0.009122958 0.06
v -0.02691184 0.009122658 0.060002204
v -0.026911749 -0.009122678 0.060002174
v -0.026906012 0.0 0.066893801
v -0.026905378 0.009123997 0.06
v -0.026905375 -0.009123999 0.06
v -0.026905036 -6.5367e-05 0.066896483
v -0.026905036 6.5367e-05 0.066896483
v -0.026902115 -0.000130236 0.066904508
v -0.026902115 0.000130236 0.066904508
v -0.02689727 -0.000194114 0.066917814
v -0.02689727 0.000194114 0.066917814
v -0.026890542 -0.000256515 0.066936299
v -0.026890542 0.000256515 0.066936299
v -0.026881978 -0.000316964 0.066959828
v -0.026881978 0.000316964 0.066959828
v -0.026871646 -0.000375 0.066988222
v -0.026871646 0.000375 0.066988222
v -0.026859621 -0.000430182 0.067021258
v -0.026859621 0.000430182 0.067021258
v -0.026845999 -0.000482091 0.067058682
v -0.026845999 0.000482091 0.067058682
v -0.02683088 -0.00053033 0.067100219
v -0.02683088 0.00053033 0.067100219
v -0.026814381 -0.000574533 0.067145549
v -0.026814381 0.000574533 0.067145549
v -0.026796628 -0.000614364 0.067194328
v -0.026796628 0.000614364 0.067194328
v -0.026777754 -0.000649519 0.067246184
v -0.026777754 0.000649519 0.067246184
v -0.026768777 0.009145382 0.06
v -0.02676794 0.009145504 0.06
v -0.026767833 -0.009145519 0.06
v -0.026766991 -0.009145605 0.06
v -0.026757905 -0.000679731 0.067300722
v -0.026757905 0.000679731 0.067300722
v -0.02673723 -0.000704769 0.067357525
v -0.02673723 0.000704769 0.067357525
v -0.026715888 -0.000724444 0.067416161
v -0.026715888 0.000724444 0.067416161
v -0.026694039 -0.000738606 0.067476191
v -0.026694039 0.000738606 0.067476191
v -0.026671853 -0.000747146 0.067537144
v -0.026671853 0.000747146 0.067537144
v -0.026649496 -0.00075 0.067598566
v -0.026649496 0.00075 0.067598566
v -0.02662714 -0.000747146 0.067659996
v -0.02662714 0.000747146 0.067659996
v -0.026625934 0.009161416 0.06
v -0.026624223 0.00916159 0.06
v -0.026624113 -0.0091616 0.06
v -0.026622399 -0.009161701 0.06
v -0.026604952 -0.000738606 0.06772095
v -0.026604952 0.000738606 0.06772095
v -0.026583105 -0.000724444 0.067780979
v -0.026583105 0.000724444 0.067780979
v -0.026561763 -0.000704769 0.067839615
v -0.026561763 0.000704769 0.067839615
v -0.026548456 -0.005778224 0.067847691
v -0.026548456 0.005778226 0.067847691
v -0.026541088 -0.000679731 0.067896418
v -0.026541088 0.000679731 0.067896418
v -0.026531788 -0.005913936 0.067852207
v -0.026531788 0.005913934 0.067852207
v -0.026521239 -0.000649519 0.067950957
v -0.026521239 0.000649519 0.067950957
v -0.026508929 0.006050942 0.067854561
v -0.026508927 -0.006050949 0.067854561
v -0.026502365 -0.000614364 0.068002805
v -0.026502365 0.000614364 0.068002805
v -0.026484612 -0.000574533 0.068051584
v -0.026484612 0.000574533 0.068051584
v -0.02648451 0.009171205 0.06
v -0.026481943 0.009171356 0.06
v -0.026481832 -0.009171361 0.06
v -0.026479682 0.006188814 0.067854658
v -0.02647968 -0.006188823 0.067854658
v -0.026478423 -0.009170965 0.06
v -0.026468113 -0.00053033 0.068096913
v -0.026468113 0.00053033 0.068096913
v -0.0264556 0.009169799 0.06
v -0.026452994 -0.000482091 0.06813845
v -0.026452994 0.000482091 0.06813845
v -0.02644388 0.006327077 0.0678524
v -0.026443876 -0.006327091 0.0678524
v -0.026439372 -0.000430182 0.068175882
v -0.026439372 0.000430182 0.068175882
v -0.026427347 -0.000375 0.068208918
v -0.026427347 0.000375 0.068208918
v -0.026417015 -0.000316964 0.068237305
v -0.026417015 0.000316964 0.068237305
v -0.026408451 -0.000256515 0.068260834
v -0.026408451 0.000256515 0.068260834
v -0.026401721 -0.000194114 0.068279326
v -0.026401721 0.000194114 0.068279326
v -0.026401401 0.006465235 0.067847706
v -0.026401395 -0.006465252 0.067847706
v -0.026396878 -0.000130236 0.068292633
v -0.026396878 0.000130236 0.068292633
v -0.026393957 -6.5367e-05 0.068300657
v -0.026393957 6.5367e-05 0.068300657
v -0.026392981 0.0 0.068303339
v -0.02635216 0.006602764 0.067840502
v -0.026352152 -0.006602785 0.067840502
v -0.026343043 -0.009188194 0.06
v -0.026341171 0.009172264 0.06
v -0.026296126 0.006739121 0.067830734
v -0.026296115 -0.006739146 0.067830734
v -0.026233315 0.006873752 0.067818366
v -0.026233301 -0.00687378 0.067818366
v -0.026163796 0.007006093 0.067803375
v -0.026163779 -0.007006125 0.067803375
v -0.026129454 0.009110623 0.060571045
v -0.026087696 0.007135583 0.06778577
v -0.026087673 -0.007135617 0.067785762
v -0.02600519 0.007261665 0.067765564
v -0.026005164 -0.007261701 0.067765556
v -0.025916511 0.007383799 0.067742802
v -0.025916481 -0.007383837 0.067742795
v -0.025821947 0.007501466 0.067717552
v -0.025821911 -0.007501507 0.067717545
v -0.025721826 0.007614179 0.067689896
v -0.025721788 -0.00761422 0.067689888
v -0.02562606 0.009172053 0.06
v -0.025616532 0.007721483 0.067659937
v -0.025616489 -0.007721525 0.067659922
v -0.025508895 0.009172027 0.06
v -0.025506483 0.007822968 0.067627788
v -0.025506435 -0.007823011 0.067627773
v -0.025463647 0.009172018 0.06
v -0.025392134 0.00791827 0.067593597
v -0.02539208 -0.007918312 0.067593582
v -0.025336392 -0.009173688 0.06
v -0.025319166 -0.009173581 0.06
v -0.025302942 -0.009173488 0.06
v -0.025279514 -0.009173367 0.06
v -0.025273969 0.008007078 0.067557506
v -0.02527391 -0.008007118 0.067557491
v -0.025271946 0.00917199 0.06
v -0.025261248 -0.009173281 0.06
v -0.025230389 -0.009173146 0.06
v -0.025211876 0.009171983 0.06
v -0.025210567 -0.009173066 0.06
v -0.025170708 -0.009172919 0.06
v -0.025152493 0.008089133 0.067519687
v -0.02515243 -0.008089173 0.067519672
v -0.025149711 -0.009172847 0.06
v -0.025099229 -0.009172687 0.06
v -0.025077613 -0.009172624 0.06
v -0.025062416 -0.005234755 0.071959034
v -0.025028229 0.008164234 0.067480311
v -0.02502816 -0.008164274 0.067480296
v -0.025014554 -0.009172453 0.06
v -0.024992988 -0.009172398 0.06
v -0.024940334 -0.005211401 0.072294459
v -0.02493941 0.005211225 0.072296992
v -0.024924509 0.005208383 0.072337933
v -0.024915112 -0.009172218 0.06
v -0.024901705 0.008232241 0.067439564
v -0.024901632 -0.008232278 0.067439541
v -0.024894404 -0.009172172 0.06
v -0.024865565 0.009171954 0.06
v -0.024799175 -0.009171983 0.06
v -0.024793638 -0.009156824 0.060139086
v -0.024793638 0.009156824 0.060139086
v -0.024793487 -0.009158452 0.060124058
v -0.024793487 0.009158452 0.060124058
v -0.024792135 -0.009151693 0.060186528
v -0.024792135 0.009151693 0.060186528
v -0.024790809 -0.009163885 0.060074009
v -0.024790809 -0.00914979 0.060204163
v -0.024790809 0.00914979 0.060204163
v -0.024790809 0.009163885 0.060074009
v -0.024789633 -0.009165226 0.060061682
v -0.024789633 0.009165226 0.060061682
v -0.024785589 -0.009144995 0.060248658
v -0.024785589 0.009144995 0.060248658
v -0.024782345 -0.00917092 0.060009424
v -0.024782345 -0.009142836 0.060268749
v -0.024782345 0.009142836 0.060268749
v -0.024782345 0.00917092 0.060009424
v -0.024780627 -0.009171948 0.06
v -0.024780627 0.008799996 0.06
v -0.024780627 0.009171948 0.06
v -0.024773898 -0.009138404 0.060310021
v -0.024773898 0.009138404 0.060310021
v -0.024773452 0.008293068 0.067397624
v -0.024773374 -0.008293102 0.067397594
v -0.024768308 -0.009136012 0.060332354
v -0.024768308 0.009136012 0.060332354
v -0.024757177 -0.009131975 0.060370091
v -0.024757177 0.009131975 0.060370091
v -0.024748804 -0.009129369 0.060394503
v -0.024748804 0.009129369 0.060394503
v -0.024735471 -0.009125726 0.060428679
v -0.024735471 0.009125725 0.060428679
v -0.024723982 -0.009122955 0.060454726
v -0.024723982 0.009122955 0.060454726
v -0.024709005 -0.009119718 0.060485188
v -0.024709005 0.009119718 0.060485188
v -0.024694029 -0.009116814 0.060512569
v -0.024694029 0.009116814 0.060512569
v -0.024678027 -0.009114001 0.060539149
v -0.024678027 0.009114 0.060539149
v -0.024665842 -0.009112023 0.060557846
v -0.024665842 0.009112023 0.060557846
v -0.024659168 -0.009110993 0.060567595
v -0.024659168 0.009110993 0.060567595
v -0.024643997 0.008346686 0.067354687
v -0.024643915 -0.008346718 0.067354657
v -0.024629116 -0.009106749 0.060607821
v -0.024629116 0.009106749 0.060607821
v -0.024619665 -0.00910553 0.060619388
v -0.024619665 0.00910553 0.060619388
v -0.024588343 -0.009101821 0.06065464
v -0.024588343 0.009101821 0.06065464
v -0.024575818 -0.009100463 0.06066756
v -0.024575818 0.009100463 0.06066756
v -0.02454377 -0.009097271 0.060697984
v -0.02454377 0.009097271 0.060697984
v -0.024527956 -0.009095828 0.060711741
v -0.024527956 0.009095828 0.060711741
v -0.024513852 0.008393121 0.067310929
v -0.024513766 -0.008393149 0.067310907
v -0.024495887 -0.009093143 0.060737394
v -0.024495887 0.009093143 0.060737394
v -0.024476439 -0.009091657 0.060751606
v -0.024476439 0.009091657 0.060751606
v -0.024445042 -0.009089461 0.060772628
v -0.024445042 0.009089461 0.060772628
v -0.024421658 -0.009087976 0.060786851
v -0.024421658 0.009087976 0.060786851
v -0.024391474 -0.009086235 0.060803548
v -0.024391474 0.009086235 0.060803548
v -0.024383513 0.00843245 0.067266561
v -0.024383426 -0.008432474 0.067266531
v -0.024367077 -0.0086646 0.065346822
v -0.024364026 -0.009084812 0.060817208
v -0.024364026 0.009084812 0.060817208
v -0.024335388 -0.009083479 0.060830016
v -0.024335388 0.00908348 0.060830016
v -0.024303978 -0.009082185 0.060842451
v -0.024303978 0.009082185 0.060842451
v -0.024279851 -0.009081305 0.060850915
v -0.024279851 0.009081305 0.060850915
v -0.02425346 0.008464796 0.067221746
v -0.024253367 -0.008464816 0.067221709
v -0.024241965 -0.009080113 0.060862388
v -0.024241965 0.009080113 0.060862388
v -0.024220467 -0.009079536 0.060867943
v -0.024220467 0.009079536 0.060867943
v -0.024178457 -0.00907861 0.060876869
v -0.024178457 0.00907861 0.060876869
v -0.024159977 -0.009078284 0.060880009
v -0.024159977 0.009078284 0.060880009
v -0.024124134 0.008490327 0.067176662
v -0.024124039 -0.008490344 0.067176633
v -0.024113929 -0.009077685 0.060885783
v -0.024113929 0.009077685 0.060885783
v -0.024098473 -0.009077551 0.06088708
v -0.024098473 0.009077551 0.06088708
v -0.024048874 -0.009077344 0.060889069
v -0.024048874 0.009077344 0.060889069
v -0.024036564 -0.009077346 0.060889054
v -0.024036564 0.009077346 0.060889054
v -0.02399596 0.008509248 0.067131482
v -0.023995861 -0.008509261 0.067131452
v -0.023983778 -0.00907759 0.060886692
v -0.023983778 0.00907759 0.060886692
v -0.023974795 -0.00907767 0.060885921
v -0.023974795 0.009077671 0.060885921
v -0.023955598 -0.002258207 0.075
v -0.023955597 -0.002373197 0.075
v -0.023955597 -0.002074484 0.075
v -0.023955597 -0.002012653 0.075
v -0.023955597 -0.001892164 0.075
v -0.023955597 -0.001834902 0.075
v -0.023955597 0.001893132 0.075
v -0.023955597 0.002075434 0.075
v -0.023955597 0.002274509 0.075
v -0.023955597 0.005026551 0.075
v -0.023955596 -0.005026616 0.075
v -0.023955596 -0.002316808 0.075
v -0.023955596 -0.002136447 0.075
v -0.023955596 -0.001780558 0.075
v -0.023955596 -0.001729785 0.075
v -0.023955596 -0.001683194 0.075
v -0.023955596 0.001684205 0.075
v -0.023955596 0.001730783 0.075
v -0.023955596 0.001781544 0.075
v -0.023955596 0.001835879 0.075
v -0.023955596 0.002013608 0.075
v -0.023955595 -0.002197893 0.075
v -0.023955595 -0.001951642 0.075
v -0.023955595 0.001952603 0.075
v -0.023955595 0.002137393 0.075
v -0.023955595 0.002198835 0.075
v -0.023955595 0.002214236 0.075
v -0.023955595 0.00233308 0.075
v -0.023945833 0.005253861 0.075
v -0.023945824 -0.005254088 0.075
v -0.023945824 0.005254077 0.075
v -0.023945758 -0.005255649 0.075
v -0.023945192 -0.005269321 0.075
v -0.023945192 0.005269323 0.075
v -0.023944832 0.005272578 0.075
v -0.023930475 -0.0054023 0.075
v -0.02393011 -0.005405613 0.075
v -0.02393011 0.00540561 0.075
v -0.023929573 0.005408954 0.075
v -0.023919133 -0.009078422 0.060878679
v -0.023919133 0.009078422 0.060878679
v -0.023913605 -0.00907852 0.060877729
v -0.023913605 0.00907852 0.060877729
v -0.023908562 -0.005539695 0.075
v -0.023908024 0.005543052 0.075
v -0.023908022 -0.005543058 0.075
v -0.023907308 0.005546433 0.075
v -0.023900688 -0.009078768 0.060875338
v -0.023900688 0.009078769 0.060875338
v -0.023879409 -0.005677852 0.075
v -0.0238787 0.005681202 0.075
v -0.023878698 -0.005681211 0.075
v -0.023877807 0.005684566 0.075
v -0.023869319 0.008521798 0.067086369
v -0.02386922 -0.008521806 0.067086332
v -0.023855429 -0.009079833 0.060865086
v -0.023855429 0.009079833 0.060865086
v -0.023842802 -0.005816293 0.075
v -0.02384193 0.005819579 0.075
v -0.023841927 -0.005819593 0.075
v -0.023840875 0.00582287 0.075
v -0.023840575 -0.00908025 0.060861073
v -0.023840575 0.00908025 0.060861073
v -0.023798575 -0.005954512 0.075
v -0.02379756 0.005957677 0.075
v -0.023797555 -0.005957695 0.075
v -0.023796365 0.005960836 0.075
v -0.023793144 -0.009081814 0.06084602
v -0.023793144 0.009081814 0.06084602
v -0.023781648 -0.009082249 0.06084184
v -0.023781648 0.009082249 0.06084184
v -0.023746612 -0.006091979 0.075
v -0.023745481 0.006094965 0.075
v -0.023745474 -0.006094986 0.075
v -0.023744566 -0.008528244 0.067041464
v -0.023744566 0.008528244 0.067041464
v -0.023744176 0.006097934 0.075
v -0.023732748 -0.009084353 0.060821615
v -0.023732748 0.009084353 0.060821615
v -0.023724558 -0.009084748 0.060817827
v -0.023724558 0.009084748 0.060817827
v -0.023686847 -0.006228143 0.075
v -0.02368564 0.006230892 0.075
v -0.023685629 -0.006230916 0.075
v -0.023684268 0.006233617 0.075
v -0.023674699 -0.009087432 0.060792066
v -0.023674699 0.009087432 0.060792066
v -0.023669552 -0.009087739 0.060789131
v -0.023669552 0.009087739 0.060789131
v -0.023619432 -0.009091032 0.060757592
v -0.023619432 0.009091032 0.060757592
v -0.023619277 -0.006362439 0.075
v -0.023618039 0.006364896 0.075
v -0.023618026 -0.006364925 0.075
v -0.023617029 -0.009091204 0.060755938
v -0.023617029 0.009091204 0.060755938
v -0.023616651 0.006367326 0.075
v -0.02356747 -0.009095117 0.060718536
v -0.02356747 0.009095117 0.060718536
v -0.023567365 -0.009095126 0.060718451
v -0.023567365 0.009095126 0.060718451
v -0.023543948 -0.006494294 0.075
v -0.023542741 0.006496411 0.075
v -0.023542722 -0.006496442 0.075
v -0.023541397 0.0064985 0.075
v -0.02351889 -0.009099688 0.060674939
v -0.02351889 0.009099688 0.060674939
v -0.023460987 -0.006623136 0.075
v -0.02345987 0.006624869 0.075
v -0.02345985 -0.006624903 0.075
v -0.023458638 0.006626579 0.075
v -0.023370565 -0.006748397 0.075
v -0.023369617 0.006749714 0.075
v -0.02336959 -0.00674975 0.075
v -0.023368571 0.006751014 0.075
v -0.023272929 -0.006869529 0.075
v -0.023272228 0.006870403 0.075
v -0.023272196 -0.00687044 0.075
v -0.023271448 0.006871274 0.075
v -0.023168383 -0.006986002 0.075
v -0.023168011 0.006986418 0.075
v -0.023167975 -0.006986458 0.075
v -0.02316758 0.006986851 0.075
v -0.023113724 -0.009172128 0.06
v -0.023113724 0.004388028 0.06
v -0.023113724 0.009172128 0.06
v -0.023057812 0.007096799 0.075
v -0.023057799 -0.007096812 0.075
v -0.023057383 0.007097284 0.074999876
v -0.023057343 -0.007097325 0.074999869
v -0.023057339 0.007097273 0.075
v -0.023057338 0.007097275 0.075
v -0.023057296 -0.007097316 0.075
v -0.023057294 -0.007097318 0.075
v -0.022971693 -0.009156824 0.060139086
v -0.022971693 0.009156824 0.060139086
v -0.022952002 0.00720473 0.074968792
v -0.022951957 -0.007204772 0.074968785
v -0.022941151 0.007202071 0.075
v -0.022940659 0.007202515 0.075
v -0.022940612 -0.007202557 0.075
v -0.022940092 -0.007202981 0.075
v -0.022841834 0.007306315 0.07493557
v -0.022841785 -0.007306357 0.074935555
v -0.022819484 0.007300876 0.075
v -0.022818421 0.007301742 0.075
v -0.022818367 -0.007301784 0.075
v -0.02281725 -0.007302602 0.075
v -0.022727337 0.007401671 0.074900351
v -0.022727283 -0.007401713 0.074900337
v -0.022692843 0.007393347 0.075
v -0.022691132 0.0073946 0.075
v -0.022691073 -0.007394641 0.075
v -0.022689284 -0.007395816 0.075
v -0.022608997 0.007490487 0.074863292
v -0.022608938 -0.007490528 0.074863277
v -0.022561767 0.007479191 0.075
v -0.022559337 0.007480787 0.075
v -0.022559272 -0.007480827 0.075
v -0.022556744 -0.00748231 0.075
v -0.022503192 -0.008277447 0.07043086
v -0.022487324 0.007572503 0.074824557
v -0.02248726 -0.007572544 0.074824542
v -0.022426815 0.007558173 0.075
v -0.022423604 0.007560057 0.075
v -0.022423535 -0.007560096 0.075
v -0.022420209 -0.00756183 0.075
v -0.022362845 0.00764752 0.074784331
v -0.022362776 -0.007647559 0.074784309
v -0.022288573 0.007630115 0.075
v -0.022284529 0.007632224 0.075
v -0.022284452 -0.007632261 0.075
v -0.022280282 -0.007634181 0.075
v -0.02223609 0.007715396 0.074742787
v -0.022236018 -0.007715432 0.074742764
v -0.022147622 0.007694895 0.075
v -0.022142704 0.007697159 0.075
v -0.022142624 -0.007697194 0.075
v -0.022137574 -0.007699228 0.075
v -0.022107596 0.007776046 0.074700125
v -0.022107519 -0.00777608 0.074700102
v -0.022004558 0.007752448 0.075
v -0.021998739 0.007754792 0.075
v -0.021998655 -0.007754825 0.075
v -0.021992704 -0.007756898 0.075
v -0.021977892 0.007829444 0.074656531
v -0.02197781 -0.007829475 0.074656501
v -0.021859967 0.007802765 0.075
v -0.021853231 0.007805112 0.075
v -0.021853139 -0.007805141 0.075
v -0.021847494 0.007875619 0.074612193
v -0.021847408 -0.007875646 0.07461217
v -0.021846276 -0.007807175 0.075
v -0.021716902 0.007914647 0.074567311
v -0.021716814 -0.007914672 0.074567273
v -0.021714417 0.00784589 0.075
v -0.021706762 0.007848159 0.075
v -0.021706669 -0.007848185 0.075
v -0.021698898 -0.007850103 0.075
v -0.021586597 0.00794666 0.074522048
v -0.021586504 -0.00794668 0.074522011
v -0.02156847 0.007881914 0.075
v -0.021559906 0.007884028 0.075
v -0.021559805 -0.007884049 0.075
v -0.021551143 -0.007885773 0.075
v -0.021504 0.008088033 0.073167987
v -0.021457026 0.007971825 0.074476592
v -0.021456931 -0.007971841 0.074476555
v -0.021436718 0.009172244 0.06
v -0.021422652 0.007910977 0.075
v -0.021413202 0.007912858 0.075
v -0.021413096 -0.007912876 0.075
v -0.02140357 -0.007914333 0.075
v -0.021373436 -0.008341425 0.069536015
v -0.021373436 0.008341425 0.069536015
v -0.021373346 -0.008342262 0.069524422
v -0.021373346 0.008342262 0.069524422
v -0.021371722 -0.008337765 0.069586694
v -0.021371722 0.008337765 0.069586694
v -0.021370606 -0.00834613 0.069470935
v -0.021370606 -0.008336727 0.069601089
v -0.021370606 0.008336727 0.069601089
v -0.021370606 0.00834613 0.069470935
v -0.021369796 -0.008346762 0.069462225
v -0.021369796 0.008346762 0.069462225
v -0.021364931 -0.008333298 0.069648638
v -0.021364931 0.008333298 0.069648638
v -0.021362143 -0.008350808 0.069406345
v -0.021362143 -0.008332071 0.069665678
v -0.021362143 0.008332071 0.069665678
v -0.021362143 0.008350808 0.069406345
v -0.021361092 -0.008351232 0.069400504
v -0.021361092 0.008351232 0.069400504
v -0.021353027 -0.008328896 0.069709785
v -0.021353027 0.008328896 0.069709785
v -0.021348106 -0.008355423 0.06934274
v -0.021348106 -0.008327493 0.069729283
v -0.021348106 0.008327493 0.069729283
v -0.021348106 0.008355423 0.06934274
v -0.02134731 -0.008355638 0.069339782
v -0.02134731 0.008355638 0.069339782
v -0.021336101 -0.008324589 0.069769695
v -0.021336101 0.008324589 0.069769695
v -0.021328613 0.007990352 0.074431106
v -0.021328604 -0.008323028 0.069791429
v -0.021328604 0.008323028 0.069791429
v -0.021328516 -0.007990364 0.074431069
v -0.021328514 -0.008359957 0.069280349
v -0.021328514 0.008359957 0.069280349
v -0.021314209 -0.008320394 0.069828123
v -0.021314209 0.008320394 0.069828123
v -0.021304896 -0.008364147 0.069222786
v -0.021304896 0.008364147 0.069222786
v -0.02130378 -0.008364323 0.069220364
v -0.02130378 -0.008318706 0.069851659
v -0.02130378 0.008318706 0.069851659
v -0.02130378 0.008364323 0.069220364
v -0.021287587 -0.008316357 0.069884442
v -0.021287587 0.008316357 0.069884442
v -0.021277467 0.007933257 0.075
v -0.021276625 -0.00836818 0.069167443
v -0.021276625 0.00836818 0.069167443
v -0.021273827 -0.008314562 0.069909498
v -0.021273827 0.008314562 0.069909498
v -0.021273825 -0.00836854 0.069162525
v -0.021273825 0.00836854 0.069162525
v -0.021267164 0.007934833 0.075
v -0.021267056 -0.007934847 0.075
v -0.021256705 -0.007935969 0.075
v -0.021256465 -0.008312506 0.06993822
v -0.021256465 0.008312506 0.06993822
v -0.021248301 -0.008371553 0.069121234
v -0.021248301 0.008371553 0.069121234
v -0.021245558 -0.008311313 0.069954894
v -0.021245558 0.008311313 0.069954894
v -0.021238966 -0.008372556 0.069107503
v -0.021238966 -0.008310624 0.069964521
v -0.021238966 0.008310624 0.069964521
v -0.021238966 0.008372556 0.069107503
v -0.021211728 -0.008375238 0.069070809
v -0.021211728 0.008375238 0.069070809
v -0.021208828 -0.008307741 0.070004858
v -0.021208828 0.008307741 0.070004858
v -0.021203104 -0.009172196 0.06
v -0.021201745 0.008002483 0.074385747
v -0.021201646 -0.008002491 0.074385718
v -0.021199463 -0.008376343 0.069055706
v -0.021199463 -0.008306922 0.070016317
v -0.021199463 0.008306922 0.070016317
v -0.021199463 0.008376343 0.069055706
v -0.021171041 -0.008378698 0.069023542
v -0.021171041 0.008378698 0.069023542
v -0.021167956 -0.008304392 0.070051759
v -0.021167956 0.008304392 0.070051759
v -0.021155614 -0.008379869 0.069007538
v -0.021155614 -0.008303484 0.070064485
v -0.021155614 0.008303484 0.070064485
v -0.021155614 0.008379869 0.069007538
v -0.021133388 0.007948969 0.075
v -0.021126749 -0.008381889 0.068979979
v -0.021126749 0.008381889 0.068979979
v -0.021123355 -0.0083013 0.0700951
v -0.021123355 0.0083013 0.0700951
v -0.021122276 0.007950174 0.075
v -0.021122166 -0.007950184 0.075
v -0.021111037 -0.007950908 0.075
v -0.021107752 -0.008383108 0.068963356
v -0.021107752 -0.008300332 0.070108667
v -0.021107752 0.008300332 0.070108667
v -0.021107752 0.008383108 0.068963356
v -0.021079041 -0.008384802 0.06894026
v -0.021079041 0.008384802 0.06894026
v -0.021076776 -0.008008489 0.074340671
v -0.021075422 -0.008298491 0.070134513
v -0.021075422 0.008298491 0.070134513
v -0.021056237 -0.008386034 0.068923488
v -0.021056237 -0.008297493 0.070148535
v -0.021056237 0.008297493 0.070148535
v -0.021056237 0.008386034 0.068923488
v -0.021028144 -0.008387422 0.068904579
v -0.021028144 0.008387422 0.068904579
v -0.021024499 -0.00829598 0.070169769
v -0.021024499 0.00829598 0.070169769
v -0.021001456 -0.008388623 0.068888247
v -0.021001456 -0.008294984 0.070183776
v -0.021001456 0.008294984 0.070183776
v -0.021001456 0.008388623 0.068888247
v -0.020990847 0.007958362 0.075
v -0.02097898 0.007959135 0.075
v -0.02097887 -0.00795914 0.075
v -0.020974401 -0.008389729 0.068873197
v -0.020974401 0.008389729 0.068873197
v -0.020970697 -0.008293774 0.070200779
v -0.020970697 0.008293774 0.070200779
v -0.02096703 -0.007959411 0.075
v -0.020943824 -0.008390855 0.068857886
v -0.020943824 -0.008292824 0.070214137
v -0.020943824 0.008292824 0.070214137
v -0.020943824 0.008390855 0.068857886
v -0.02091842 -0.008391696 0.068846457
v -0.02091842 0.008391696 0.068846457
v -0.020914478 -0.008291893 0.070227236
v -0.020914478 0.008291893 0.070227236
v -0.020902516 -0.00839218 0.06883987
v -0.020902516 0.00839218 0.06883987
v -0.020883774 -0.008392712 0.068832643
v -0.020883774 -0.008291029 0.07023938
v -0.020883774 0.008291029 0.07023938
v -0.020883774 0.008392712 0.068832643
v -0.020862268 0.007963338 0.075
v -0.020857945 -0.008290388 0.070248403
v -0.020857945 0.008290388 0.070248403
v -0.020844126 -0.008393701 0.068819217
v -0.020844126 0.008393701 0.068819217
v -0.020837686 -0.007961996 0.075
v -0.020836846 0.007963883 0.075
v -0.020821763 -0.00839418 0.068812713
v -0.020821763 -0.008289613 0.070259318
v -0.020821763 0.008289613 0.070259318
v -0.020821763 0.00839418 0.068812713
v -0.020798398 -0.008289186 0.070265315
v -0.020798398 0.008289186 0.070265315
v -0.020784119 -0.008394864 0.06880343
v -0.020784119 0.008394864 0.06880343
v -0.020758254 -0.008395247 0.068798229
v -0.020758254 -0.008288584 0.070273794
v -0.020758254 0.008288584 0.070273794
v -0.020758254 0.008395247 0.068798229
v -0.020737648 -0.008288338 0.070277266
v -0.020737648 0.008288338 0.070277266
v -0.020722924 -0.008395659 0.068792641
v -0.020722924 0.008395659 0.068792641
v -0.020693729 -0.008395904 0.068789311
v -0.020693729 -0.008287951 0.070282713
v -0.020693729 0.008287951 0.070282713
v -0.020693729 0.008395904 0.068789311
v -0.020675885 -0.008287847 0.070284173
v -0.020675885 0.008287847 0.070284173
v -0.020661181 -0.008396077 0.068786964
v -0.020661181 0.008396077 0.068786964
v -0.020637869 -0.007963181 0.075
v -0.020634184 -0.007963196 0.075
v -0.020632979 -0.007963201 0.075
v -0.020628672 -0.008396146 0.068786032
v -0.020628672 -0.008287718 0.070285991
v -0.020628672 0.008287718 0.070285991
v -0.020628672 0.008396146 0.068786032
v -0.020628318 -0.007963218 0.075
v -0.020627182 -0.007963221 0.075
v -0.020621459 -0.007963239 0.075
v -0.020620477 -0.007963241 0.075
v -0.02061384 -0.008287721 0.070285954
v -0.02061384 0.008287721 0.070285954
v -0.020613619 -0.007963259 0.075
v -0.020612873 -0.007963261 0.075
v -0.020604818 -0.007963279 0.075
v -0.020604401 -0.00796328 0.075
v -0.020599345 -0.008396119 0.068786398
v -0.020599345 0.008396119 0.068786398
v -0.020595073 -0.007963298 0.075
v -0.020584955 -0.007963315 0.075
v -0.02058448 -0.007963316 0.075
v -0.020574101 -0.007963331 0.075
v -0.020573048 -0.007963333 0.075
v -0.020564045 -0.007963345 0.075
v -0.020563576 -0.008395971 0.068788402
v -0.020563576 -0.008287886 0.070283622
v -0.020563576 0.008287886 0.070283622
v -0.020563576 0.008395971 0.068788402
v -0.020560872 -0.007963349 0.075
v -0.020551965 -0.008287959 0.070282601
v -0.020551965 0.008287959 0.070282601
v -0.020551941 -0.007963359 0.075
v -0.020548039 -0.007963364 0.075
v -0.020539287 -0.007963373 0.075
v -0.020537568 -0.008395784 0.068790942
v -0.020537568 0.008395784 0.068790942
v -0.020534658 -0.007963377 0.075
v -0.020526249 -0.007963385 0.075
v -0.020520848 -0.00796339 0.075
v -0.02051291 -0.007963396 0.075
v -0.020506744 -0.007963401 0.075
v -0.020499359 -0.007963406 0.075
v -0.020498933 -0.00839538 0.068796419
v -0.020498933 -0.008288455 0.070275605
v -0.020498933 0.008288455 0.070275605
v -0.020498933 0.00839538 0.068796419
v -0.020490671 -0.008288558 0.070274167
v -0.020490671 0.008288558 0.070274167
v -0.020483417 -0.008395175 0.068799198
v -0.020483417 0.008395175 0.068799198
v -0.020481028 -0.008288685 0.070272371
v -0.020481028 0.008288685 0.070272371
v -0.020435229 -0.008394379 0.068810008
v -0.020435229 -0.008289421 0.070262015
v -0.020435229 0.008289421 0.070262015
v -0.020435229 0.008394379 0.068810008
v -0.020422921 -0.008394136 0.068813317
v -0.020422921 0.008394136 0.068813317
v -0.020420665 -0.0082897 0.070258081
v -0.020420665 0.0082897 0.070258081
v -0.020372944 -0.008392975 0.068829082
v -0.020372944 -0.008290776 0.070242941
v -0.020372944 0.008290776 0.070242941
v -0.020372944 0.008392975 0.068829082
v -0.020363912 -0.008392734 0.068832345
v -0.020363912 0.008392734 0.068832345
v -0.020361641 -0.008291068 0.070238836
v -0.020361641 0.008291068 0.070238836
v -0.020312548 -0.008391179 0.068853483
v -0.020312548 -0.00829251 0.070218541
v -0.020312548 0.00829251 0.070218541
v -0.020312548 0.008391179 0.068853483
v -0.020306701 -0.008390981 0.068856172
v -0.020306701 0.008390981 0.068856172
v -0.020304481 -0.008292777 0.070214808
v -0.020304481 0.008292777 0.070214808
v -0.020254498 -0.008389005 0.068883032
v -0.020254498 -0.008294612 0.070188992
v -0.020254498 0.008294612 0.070188992
v -0.020254498 0.008389005 0.068883032
v -0.020251554 -0.008388883 0.068884701
v -0.020251554 0.008388883 0.068884701
v -0.020249372 -0.008294821 0.070186071
v -0.020249372 0.008294821 0.070186071
v -0.02019923 -0.008386473 0.068917505
v -0.02019923 -0.008297066 0.070154518
v -0.02019923 0.008297066 0.070154518
v -0.02019923 0.008386473 0.068917505
v -0.020199034 -0.008386463 0.06891764
v -0.020199034 0.008386463 0.06891764
v -0.020196823 -0.008297184 0.070152864
v -0.020196823 0.008297184 0.070152864
v -0.020157431 0.007962955 0.075
v -0.020149393 -0.008383734 0.068954818
v -0.020149393 0.008383734 0.068954818
v -0.020147266 -0.008299849 0.070115462
v -0.020147266 0.008299849 0.070115462
v -0.020147163 -0.0083836 0.068956643
v -0.020147163 -0.008299855 0.07011538
v -0.020147163 0.008299855 0.07011538
v -0.020147163 0.0083836 0.068956643
v -0.020141261 0.00796297 0.075
v -0.020128694 0.007962981 0.075
v -0.020113629 0.007962992 0.075
v -0.020105267 -0.008380876 0.068993792
v -0.020105267 0.008380876 0.068993792
v -0.020099611 0.007963003 0.075
v -0.020098688 -0.00838041 0.069000155
v -0.020098688 -0.008302957 0.070071869
v -0.020098688 0.008302957 0.070071869
v -0.020098688 0.00838041 0.069000155
v -0.020085781 0.007963012 0.075
v -0.020070472 0.007963022 0.075
v -0.020058091 0.007963028 0.075
v -0.020050409 0.007963033 0.075
v -0.020041589 0.007963037 0.075
v -0.020023269 0.007963045 0.075
v -0.020013274 0.007963049 0.075
v -0.019996778 0.007963055 0.075
v -0.019985835 0.007963058 0.075
v -0.019971213 0.007963061 0.075
v -0.01995958 0.007963063 0.075
v -0.019946916 0.007963065 0.075
v -0.019939569 0.0 0.075
v -0.019938946 -9.762e-06 0.075
v -0.019938946 9.762e-06 0.075
v -0.019933093 -5.5609e-05 0.075
v -0.019933093 5.5609e-05 0.075
v -0.019931221 -6.5367e-05 0.075
v -0.019931221 6.5367e-05 0.075
v -0.019928103 -7.5101e-05 0.075
v -0.019928103 7.5101e-05 0.075
v -0.019910627 -0.000120515 0.075
v -0.019910627 0.000120515 0.075
v -0.019906252 -0.000130236 0.075
v -0.019906252 0.000130236 0.075
v -0.019900632 -0.000139909 0.075
v -0.019900632 0.000139909 0.075
v -0.019871757 -0.000184466 0.075
v -0.019871757 0.000184466 0.075
v -0.019864853 -0.000194114 0.075
v -0.019864853 0.000194114 0.075
v -0.019856691 -0.00020369 0.075
v -0.019856691 0.00020369 0.075
v -0.019816784 -0.000246978 0.075
v -0.019816784 0.000246978 0.075
v -0.019807321 -0.000256515 0.075
v -0.019807321 0.000256515 0.075
v -0.019796589 -0.000265954 0.075
v -0.019796589 0.000265954 0.075
v -0.019746195 -0.000307582 0.075
v -0.019746195 0.000307582 0.075
v -0.019734121 -0.000316964 0.075
v -0.019734121 0.000316964 0.075
v -0.019720777 -0.000326219 0.075
v -0.019720777 0.000326219 0.075
v -0.019661396 -0.007964082 0.075
v -0.019660501 -0.000365823 0.075
v -0.019660501 0.000365823 0.075
v -0.019645782 -0.000375 0.075
v -0.019645782 0.000375 0.075
v -0.019639921 -0.007964095 0.075
v -0.019629774 -0.000384021 0.075
v -0.019629774 0.000384021 0.075
v -0.019618698 -0.007964108 0.075
v -0.019595153 -0.00796412 0.075
v -0.019576068 -0.007964129 0.075
v -0.019564203 -0.007964135 0.075
v -0.019560406 -0.000421268 0.075
v -0.019560406 0.000421268 0.075
v -0.019551491 -0.008341425 0.069536015
v -0.019551491 0.008341425 0.069536015
v -0.01955056 -0.00796414 0.075
v -0.019542995 -0.000430182 0.075
v -0.019542995 0.000430182 0.075
v -0.019524285 -0.000438909 0.075
v -0.019524285 0.000438909 0.075
v -0.019522133 -0.007964151 0.075
v -0.019506569 -0.007964156 0.075
v -0.019480785 -0.007964163 0.075
v -0.019463605 -0.007964167 0.075
v -0.019446693 -0.000473504 0.075
v -0.019446693 0.000473504 0.075
v -0.019440542 -0.007964171 0.075
v -0.019426546 -0.000482091 0.075
v -0.019426546 0.000482091 0.075
v -0.019422094 -0.007964174 0.075
v -0.019405096 -0.000490455 0.075
v -0.019405096 0.000490455 0.075
v -0.019401893 -0.007964176 0.075
v -0.019382446 -0.007964177 0.075
v -0.019320216 -0.000522144 0.075
v -0.019320216 0.000522144 0.075
v -0.019297302 -0.00053033 0.075
v -0.019297302 0.00053033 0.075
v -0.019247588 0.000545911 0.075
v -0.01920633 -0.000558838 0.075
v -0.01915625 -0.000574533 0.075
v -0.01915625 0.000574533 0.075
v -0.019101006 0.000589032 0.075
v -0.019060117 -0.000599765 0.075
v -0.019004492 -0.000614364 0.075
v -0.019004492 0.000614364 0.075
v -0.01894376 0.000627596 0.075
v -0.018904257 -0.000636204 0.075
v -0.018843145 -0.000649519 0.075
v -0.018843145 0.000649519 0.075
v -0.018777042 0.000661289 0.075
v -0.018739923 -0.000667897 0.075
v -0.018673458 -0.000679731 0.075
v -0.018673458 0.000679731 0.075
v -0.018602153 0.000689833 0.075
v -0.018568347 -0.000694622 0.075
v -0.018496718 -0.000704769 0.075
v -0.018496718 0.000704769 0.075
v -0.018420471 0.000712992 0.075
v -0.018390787 -0.000716193 0.075
v -0.018314271 -0.000724444 0.075
v -0.018314271 0.000724444 0.075
v -0.01823343 0.000730574 0.075
v -0.018208537 -0.000732461 0.075
v -0.018127497 -0.000738606 0.075
v -0.018127497 0.000738606 0.075
v -0.018042507 0.000742433 0.075
v -0.01802295 -0.000743314 0.075
v -0.017937841 -0.000747146 0.075
v -0.017937841 0.000747146 0.075
v -0.01784922 0.000748469 0.075
v -0.01783537 -0.000748676 0.075
v -0.017746719 -0.00075 0.075
v -0.017746719 0.00075 0.075
v -0.017655116 0.000748632 0.075
v -0.017647139 -0.000748513 0.075
v -0.017555596 -0.000747146 0.075
v -0.017555596 0.000747146 0.075
v -0.017461709 0.000742919 0.075
v -0.017459668 -0.000742826 0.075
v -0.01736593 -0.000738606 0.075
v -0.01736593 0.000738606 0.075
v -0.017274273 -0.000731656 0.075
v -0.017270592 0.000731376 0.075
v -0.017179166 -0.000724444 0.075
v -0.017179166 0.000724444 0.075
v -0.017092346 -0.000715082 0.075
v -0.017083235 0.000714099 0.075
v -0.016996719 -0.000704769 0.075
v -0.016996719 0.000704769 0.075
v -0.01691518 -0.000693218 0.075
v -0.016901157 0.000691231 0.075
v -0.016819979 -0.000679731 0.075
v -0.016819979 0.000679731 0.075
v -0.01674408 -0.000666218 0.075
v -0.016725781 0.000662961 0.075
v -0.016650283 -0.000649519 0.075
v -0.016650283 0.000649519 0.075
v -0.016580299 -0.000634271 0.075
v -0.01655851 0.000629521 0.075
v -0.016488947 -0.000614364 0.075
v -0.016488947 0.000614364 0.075
v -0.016425079 -0.0005976 0.075
v -0.016400621 0.000591186 0.075
v -0.016337175 -0.000574533 0.075
v -0.016337175 0.000574533 0.075
v -0.016279522 -0.000556464 0.075
v -0.016253382 0.000548272 0.075
v -0.016196134 -0.00053033 0.075
v -0.016196134 0.00053033 0.075
v -0.016156306 -0.0005161 0.075
v -0.016144751 0.000511154 0.075
v -0.016117905 -0.000501128 0.075
v -0.01610511 0.000496998 0.075
v -0.016066893 -0.000482091 0.075
v -0.016066893 0.000482091 0.075
v -0.016030207 -0.00046646 0.075
v -0.016021802 0.00046199 0.075
v -0.015995208 -0.000450138 0.075
v -0.01598528 0.000446437 0.075
v -0.015950441 -0.000430182 0.075
v -0.015950441 0.000430182 0.075
v -0.015917379 -0.000413261 0.075
v -0.01591159 0.000409325 0.075
v -0.015886227 -0.000395713 0.075
v -0.015878665 0.000392482 0.075
v -0.015847644 -0.000375 0.075
v -0.015847644 0.000375 0.075
v -0.015818646 -0.000356921 0.075
v -0.015814978 0.000353536 0.075
v -0.015791773 -0.00033829 0.075
v -0.015786087 0.000335532 0.075
v -0.015759316 -0.000316964 0.075
v -0.015759316 0.000316964 0.075
v -0.015734768 -0.000297879 0.075
v -0.015732749 0.000295027 0.075
v -0.015712529 -0.000278328 0.075
v -0.015708279 0.000276011 0.075
v -0.015686112 -0.000256515 0.075
v -0.015686112 0.000256515 0.075
v -0.015666344 -0.000236593 0.075
v -0.01566556 0.000234225 0.075
v -0.015649042 -0.000216301 0.075
v -0.015645842 0.000214362 0.075
v -0.015628585 -0.000194114 0.075
v -0.015628585 0.000194114 0.075
v -0.015613977 0.000171576 0.075
v -0.015613863 -0.000173539 0.075
v -0.015601734 -0.000152696 0.075
v -0.015599282 0.000151048 0.075
v -0.015587176 -0.000130236 0.075
v -0.015587176 0.000130236 0.075
v -0.015578443 0.000107545 0.075
v -0.015577711 -0.000109202 0.075
v -0.015570919 -8.8009e-05 0.075
v -0.015568988 8.6544e-05 0.075
v -0.015562205 -6.5367e-05 0.075
v -0.015562205 6.5367e-05 0.075
v -0.015559299 4.261e-05 0.075
v -0.015558134 -4.4078e-05 0.075
v -0.015556772 -2.274e-05 0.075
v -0.01555523 2.1337e-05 0.075
v -0.015553868 0.0 0.075
v -0.015313789 -0.007964168 0.075
v -0.015296299 -0.007964168 0.075
v -0.015274635 -0.007964166 0.075
v -0.015258352 -0.007964164 0.075
v -0.015233857 -0.00796416 0.075
v -0.015223802 -0.007964158 0.075
v -0.01519185 -0.007964149 0.075
v -0.015183529 -0.007964147 0.075
v -0.015149025 -0.007964134 0.075
v -0.015142651 -0.007964132 0.075
v -0.015105803 -0.007964115 0.075
v -0.015101504 -0.007964113 0.075
v -0.015062596 -0.007964091 0.075
v -0.015060331 -0.007964089 0.075
v -0.015019812 -0.007964062 0.075
v -0.015019617 -0.007964062 0.075
v -0.014979635 -0.007964031 0.075
v -0.01497784 -0.007964029 0.075
v -0.014942666 -0.007963997 0.075
v -0.014937062 -0.007963991 0.075
v -0.014659324 -0.009183553 0.06
v -0.014656112 -0.009183563 0.06
v -0.014655272 -0.009183566 0.06
v -0.014651779 -0.009183581 0.06
v -0.014651134 -0.009183584 0.06
v -0.014647376 -0.009183603 0.06
v -0.014646939 -0.009183606 0.06
v -0.014642944 -0.009183631 0.06
v -0.014642714 -0.009183632 0.06
v -0.014638523 -0.009183662 0.06
v -0.014638507 -0.009183662 0.06
v -0.014634344 -0.009183696 0.06
v -0.014634152 -0.009183698 0.06
v -0.014630466 -0.009183732 0.06
v -0.014629871 -0.009183738 0.06
v -0.01458286 -0.009184214 0.06
v -0.014495819 -0.007963438 0.075
v -0.0143 -0.009180323 0.06
v -0.0143 -0.008633766 0.065720335
v -0.0143 0.008633766 0.065720335
v -0.0143 0.009181966 0.06
v -0.01429619 0.007963065 0.075
v -0.01428467 0.007963065 0.075
v -0.014273768 0.007963065 0.075
v -0.014269032 -0.008633285 0.065720335
v -0.014260087 0.007963064 0.075
v -0.014249685 0.007963062 0.075
v -0.014247205 -0.00917784 0.06
v -0.014245462 0.009177188 0.06
v -0.014244802 -0.009177803 0.06
v -0.014241213 0.00863203 0.065720335
v -0.014241213 0.009177063 0.06
v -0.014239184 0.009176914 0.06
v -0.01423386 0.007963059 0.075
v -0.014227307 0.007963057 0.075
v -0.014213143 0.008629974 0.065720335
v -0.014213134 -0.008629973 0.065720335
v -0.014212726 -0.009174842 0.06
v -0.014208684 -0.009174603 0.06
v -0.014206279 0.007963051 0.075
v -0.014200754 0.007963049 0.075
v -0.014180409 0.009171548 0.06
v -0.014177649 0.007963039 0.075
v -0.014173348 0.007963037 0.075
v -0.014152587 -0.009167679 0.06
v -0.014148292 0.007963024 0.075
v -0.014147859 -0.009167108 0.06
v -0.014147858 -0.008622086 0.065720335
v -0.014146342 -0.009166857 0.06
v -0.014145349 0.007963022 0.075
v -0.014126924 0.008618624 0.065720335
v -0.014126915 -0.008618622 0.065720335
v -0.014122182 0.009162457 0.06
v -0.014118528 0.007963006 0.075
v -0.014116956 0.007963005 0.075
v -0.014115928 0.009161633 0.06
v -0.014115068 0.009161476 0.06
v -0.014115067 0.00861646 0.065720335
v -0.014109768 0.009160268 0.06
v -0.014090665 -0.009156492 0.06
v -0.014088672 0.007962984 0.075
v -0.014088535 0.007962984 0.075
v -0.014087826 -0.009155933 0.06
v -0.014087824 -0.008610921 0.065720335
v -0.014060305 0.00796296 0.075
v -0.014059031 0.007962959 0.075
v -0.014052355 0.009147512 0.06
v -0.014048746 0.009146444 0.06
v -0.014041997 0.008599796 0.065720335
v -0.014041987 -0.008599794 0.065720335
v -0.014033925 0.007962935 0.075
v -0.014032792 -0.009142149 0.06
v -0.014029902 0.007962931 0.075
v -0.014029452 -0.009141338 0.06
v -0.013992393 0.009130104 0.06
v -0.013992392 0.008585117 0.065720335
v -0.013975277 -0.009124169 0.06
v -0.01397001 -0.009122542 0.06
v -0.013970009 -0.008577562 0.065720335
v -0.013969203 -0.009122254 0.06
v -0.013958997 0.008573627 0.065720335
v -0.013958988 -0.008573624 0.065720335
v -0.013937339 0.00911028 0.06
v -0.013934888 0.009109436 0.06
v -0.013932978 0.009108711 0.06
v -0.013932976 0.008563744 0.065720335
v -0.013928982 0.00910699 0.06
v -0.013916089 -0.009101746 0.06
v -0.013910172 -0.009099295 0.06
v -0.013878549 0.008540304 0.065720335
v -0.01387854 -0.008540301 0.065720335
v -0.013875398 0.009083771 0.06
v -0.01387101 0.009081544 0.06
v -0.013858326 -0.009075508 0.06
v -0.013856711 -0.009074731 0.06
v -0.013856709 -0.008529796 0.065720335
v -0.013819115 0.009055052 0.06
v -0.013819113 0.008510136 0.065720335
v -0.013817788 0.009054304 0.06
v -0.013806364 -0.009047753 0.06
v -0.013802234 -0.009045539 0.06
v -0.013801259 0.00850007 0.065720335
v -0.013801251 -0.008500066 0.065720335
v -0.013767799 0.009024681 0.06
v -0.013753575 -0.009015452 0.06
v -0.013749709 -0.00901306 0.06
v -0.013749707 -0.008468185 0.065720335
v -0.013748059 -0.009011938 0.06
v -0.013727715 0.008453218 0.065720335
v -0.013727707 -0.008453213 0.065720335
v -0.013723017 0.007962551 0.075
v -0.013719913 0.008992077 0.06
v -0.013714366 0.008988544 0.06
v -0.013713277 0.008987767 0.06
v -0.013713275 0.008442915 0.065720335
v -0.013709144 0.008984537 0.06
v -0.013701271 -0.008978837 0.06
v -0.013699109 -0.008977265 0.06
v -0.013699107 -0.008432423 0.065720335
v -0.013663447 0.008949045 0.06
v -0.013660293 0.008946246 0.06
v -0.013658478 0.00840009 0.065720335
v -0.01365847 -0.008400084 0.065720335
v -0.01365441 -0.008941284 0.06
v -0.013651312 -0.008938818 0.06
v -0.013617008 0.008908064 0.06
v -0.013617006 0.008363288 0.065720335
v -0.013615248 0.008906359 0.06
v -0.013608876 -0.00890008 0.06
v -0.013604742 -0.008896349 0.06
v -0.013604742 -0.008351584 0.065720335
v -0.013603922 -0.00889554 0.06
v -0.013594079 0.00834108 0.065720335
v -0.013594071 -0.008341073 0.065720335
v -0.013574595 0.00886573 0.06
v -0.013563976 -0.008854242 0.06
v -0.013561441 -0.008851585 0.06
v -0.013561439 -0.008306862 0.065720335
v -0.013536616 0.008822736 0.06
v -0.013535016 0.008276625 0.065720335
v -0.013535011 -0.008276617 0.065720335
v -0.013531995 0.008817693 0.06
v -0.013531739 0.008272698 0.065720335
v -0.013531739 0.008817386 0.06
v -0.013527828 0.008812262 0.06
v -0.013524031 -0.008807753 0.06
v -0.013521957 -0.00880538 0.06
v -0.01349262 0.008767042 0.06
v -0.013490784 0.0087643 0.06
v -0.013487319 -0.008759254 0.06
v -0.013483212 -0.008753916 0.06
v -0.013483211 -0.008209288 0.065720335
v -0.013483096 -0.00875375 0.06
v -0.013481751 0.008207208 0.065720335
v -0.013481745 -0.0082072 0.065720335
v -0.01345853 0.008717124 0.06
v -0.013458529 0.008172531 0.065720335
v -0.01345135 -0.008705471 0.06
v -0.01344758 -0.008699551 0.06
v -0.0134347 0.008133352 0.065720335
v -0.013434695 -0.008133343 0.065720335
v -0.01342935 0.008668222 0.06
v -0.013427425 0.008665058 0.06
v -0.013426786 0.008119388 0.065720335
v -0.013426786 0.00866393 0.06
v -0.013424157 0.00865878 0.06
v -0.013418867 -0.008649296 0.06
v -0.013417471 -0.008646777 0.06
v -0.01341747 -0.00810225 0.065720335
v -0.013398082 0.008608253 0.06
v -0.013396391 0.008604369 0.06
v -0.013394235 0.008055618 0.065720335
v -0.013394231 -0.00805561 0.065720335
v -0.01339194 -0.008594779 0.06
v -0.013390036 -0.008590956 0.06
v -0.01337353 0.008008049 0.065720335
v -0.01337353 0.008552485 0.06
v -0.013367794 -0.0085374 0.06
v -0.013365404 -0.008531738 0.06
v -0.013365404 -0.007987321 0.065720335
v -0.013365011 -0.008530682 0.06
v -0.013360675 0.007974599 0.065720335
v -0.013360673 -0.00797459 0.065720335
v -0.013353964 0.0084995 0.06
v -0.01335289 0.008496707 0.06
v -0.013352181 0.008494676 0.06
v -0.01335218 0.007950295 0.065720335
v -0.013350687 0.008489717 0.06
v -0.013346147 -0.008475744 0.06
v -0.013343934 -0.008468724 0.06
v -0.013334422 0.008435732 0.06
v -0.013334291 0.007890917 0.065720335
v -0.013334288 -0.007890908 0.065720335
v -0.013333244 0.008430733 0.06
v -0.01332854 -0.008412613 0.06
v -0.013328006 -0.008410517 0.06
v -0.013328006 -0.007866217 0.065720335
v -0.013320338 0.007831748 0.065720335
v -0.013320337 0.008376015 0.06
v -0.013316176 -0.008353513 0.06
v -0.013315292 0.007805218 0.065720335
v -0.01331529 -0.007805208 0.065720335
v -0.013315083 -0.008348272 0.06
v -0.013310822 0.008320836 0.06
v -0.013310385 0.008318543 0.06
v -0.013309922 0.007771411 0.065720335
v -0.013309921 0.008315621 0.06
v -0.013309395 0.008311018 0.06
v -0.013306876 -0.008290623 0.06
v -0.013306075 -0.008285028 0.06
v -0.013306075 -0.007740848 0.065720335
v -0.01330588 -0.008283055 0.06
v -0.01330383 -0.007718153 0.065720335
v -0.01330383 0.007718163 0.065720335
v -0.013303258 0.008255479 0.06
v -0.01330294 0.008249499 0.06
v -0.013301327 -0.0076821 0.065720335
v -0.01330034 -0.008182343 0.06
v -0.013300186 0.00764976 0.065720335
v -0.013300117 -0.008179145 0.06
v -0.013300016 0.008176277 0.06
v -0.0133 -0.008174561 0.06
v -0.0133 -0.007630427 0.065720335
v -0.0133 -0.006936739 0.06
v -0.0133 -0.006907018 0.06
v -0.0133 -0.006875415 0.06
v -0.0133 -0.006842095 0.06
v -0.0133 -0.006807269 0.06
v -0.0133 -0.00677119 0.06
v -0.0133 -0.006734167 0.06
v -0.0133 -0.003455152 0.06
v -0.0133 -0.003384163 0.06
v -0.0133 -0.003312352 0.06
v -0.0133 -0.003276348 0.06
v -0.0133 -0.00324039 0.06
v -0.0133 -0.003204576 0.06
v -0.0133 -0.003168986 0.06
v -0.0133 -0.003133718 0.06
v -0.0133 -0.003098862 0.06
v -0.0133 -0.003064509 0.06
v -0.0133 -0.003030749 0.06
v -0.0133 -0.00299768 0.06
v -0.0133 -0.002965385 0.06
v -0.0133 -0.002933954 0.06
v -0.0133 -0.002903475 0.06
v -0.0133 -0.002874035 0.06
v -0.0133 -0.00284571 0.06
v -0.0133 -0.002818581 0.06
v -0.0133 -0.002792722 0.06
v -0.0133 -0.002768206 0.06
v -0.0133 -0.001724103 0.06
v -0.0133 -0.00075 0.062739752
v -0.0133 -0.000747146 0.062670186
v -0.0133 -0.000747146 0.062809311
v -0.0133 -0.000738606 0.062601157
v -0.0133 -0.000738606 0.06287834
v -0.0133 -0.000724444 0.062533177
v -0.0133 -0.000724444 0.06294632
v -0.0133 -0.000704769 0.06246677
v -0.0133 -0.000704769 0.063012727
v -0.0133 -0.000679731 0.062402446
v -0.0133 -0.000679731 0.063077055
v -0.0133 -0.000649519 0.062340684
v -0.0133 -0.000649519 0.063138813
v -0.0133 -0.000614364 0.062281959
v -0.0133 -0.000614364 0.063197538
v -0.0133 -0.000574533 0.06222672
v -0.0133 -0.000574533 0.063252777
v -0.0133 -0.00053033 0.062175386
v -0.0133 -0.00053033 0.063304119
v -0.0133 -0.000506693 0.062151305
v -0.0133 -0.000506693 0.063328192
v -0.0133 -0.000482091 0.062128343
v -0.0133 -0.000482091 0.063351154
v -0.0133 -0.000456571 0.06210655
v -0.0133 -0.000456571 0.063372955
v -0.0133 -0.000430182 0.062085956
v -0.0133 -0.000430182 0.063393541
v -0.0133 -0.000402975 0.062066611
v -0.0133 -0.000402975 0.06341289
v -0.0133 -0.000375 0.062048547
v -0.0133 -0.000375 0.06343095
v -0.0133 -0.000346311 0.062031798
v -0.0133 -0.000346311 0.063447699
v -0.0133 -0.000316964 0.062016394
v -0.0133 -0.000316964 0.063463107
v -0.0133 -0.000287013 0.062002372
v -0.0133 -0.000287013 0.063477129
v -0.0133 -0.000256515 0.061989751
v -0.0133 -0.000256515 0.06348975
v -0.0133 -0.000225529 0.061978556
v -0.0133 -0.000225529 0.063500941
v -0.0133 -0.000194114 0.061968811
v -0.0133 -0.000194114 0.063510686
v -0.0133 -0.00017468 0.06
v -0.0133 -0.00016233 0.061960537
v -0.0133 -0.00016233 0.063518964
v -0.0133 -0.00014842 0.06
v -0.0133 -0.000147767 0.06
v -0.0133 -0.000145956 0.06
v -0.0133 -0.000142978 0.06
v -0.0133 -0.000138831 0.06
v -0.0133 -0.000133528 0.06
v -0.0133 -0.000130236 0.061953742
v -0.0133 -0.000130236 0.063525759
v -0.0133 -0.000127091 0.06
v -0.0133 -0.000101186 0.06
v -0.0133 -9.7895e-05 0.061948445
v -0.0133 -9.7895e-05 0.063531056
v -0.0133 -7.5421e-05 0.06
v -0.0133 -6.5367e-05 0.061944652
v -0.0133 -6.5367e-05 0.063534848
v -0.0133 -4.9858e-05 0.06
v -0.0133 -3.2715e-05 0.061942376
v -0.0133 -3.2715e-05 0.063537121
v -0.0133 -2.4558e-05 0.06
v -0.0133 0.0 0.061941616
v -0.0133 0.0 0.063537881
v -0.0133 4.19e-07 0.06
v -0.0133 2.5015e-05 0.06
v -0.0133 3.2715e-05 0.061942376
v -0.0133 3.2715e-05 0.063537121
v -0.0133 4.9172e-05 0.06
v -0.0133 6.5367e-05 0.061944652
v -0.0133 6.5367e-05 0.063534848
v -0.0133 7.2835e-05 0.06
v -0.0133 9.595e-05 0.06
v -0.0133 9.7895e-05 0.061948445
v -0.0133 9.7895e-05 0.063531056
v -0.0133 0.000118465 0.06
v -0.0133 0.000130236 0.061953742
v -0.0133 0.000130236 0.063525759
v -0.0133 0.000140329 0.06
v -0.0133 0.000161495 0.06
v -0.0133 0.00016233 0.061960537
v -0.0133 0.00016233 0.063518964
v -0.0133 0.000181917 0.06
v -0.0133 0.000194114 0.061968811
v -0.0133 0.000194114 0.063510686
v -0.0133 0.000201553 0.06
v -0.0133 0.000220362 0.06
v -0.0133 0.000225529 0.061978556
v -0.0133 0.000225529 0.063500941
v -0.0133 0.000238308 0.06
v -0.0133 0.000255354 0.06
v -0.0133 0.000256515 0.061989751
v -0.0133 0.000256515 0.06348975
v -0.0133 0.000271468 0.06
v -0.0133 0.000287013 0.062002372
v -0.0133 0.000287013 0.063477129
v -0.0133 0.000300792 0.06
v -0.0133 0.000308443 0.06
v -0.0133 0.000316964 0.062016394
v -0.0133 0.000316964 0.063463107
v -0.0133 0.000333832 0.06
v -0.0133 0.000346311 0.062031798
v -0.0133 0.000346311 0.063447699
v -0.0133 0.000355047 0.06
v -0.0133 0.000371982 0.06
v -0.0133 0.000375 0.062048547
v -0.0133 0.000375 0.06343095
v -0.0133 0.000384577 0.06
v -0.0133 0.000392809 0.06
v -0.0133 0.000396701 0.06
v -0.0133 0.000402975 0.062066611
v -0.0133 0.000402975 0.06341289
v -0.0133 0.000406504 0.06
v -0.0133 0.000411899 0.06
v -0.0133 0.00041761 0.06
v -0.0133 0.000423626 0.06
v -0.0133 0.000429937 0.06
v -0.0133 0.000430182 0.062085956
v -0.0133 0.000430182 0.063393541
v -0.0133 0.000436529 0.06
v -0.0133 0.000443389 0.06
v -0.0133 0.000450502 0.06
v -0.0133 0.000456571 0.06210655
v -0.0133 0.000456571 0.063372955
v -0.0133 0.000457854 0.06
v -0.0133 0.000465429 0.06
v -0.0133 0.000473209 0.06
v -0.0133 0.000481177 0.06
v -0.0133 0.000482091 0.062128343
v -0.0133 0.000482091 0.063351154
v -0.0133 0.000489316 0.06
v -0.0133 0.000497606 0.06
v -0.0133 0.000506029 0.06
v -0.0133 0.000506693 0.062151305
v -0.0133 0.000506693 0.063328192
v -0.0133 0.000514564 0.06
v -0.0133 0.000523192 0.06
v -0.0133 0.00053033 0.062175386
v -0.0133 0.00053033 0.063304119
v -0.0133 0.000531892 0.06
v -0.0133 0.000540644 0.06
v -0.0133 0.000549427 0.06
v -0.0133 0.000574533 0.06222672
v -0.0133 0.000574533 0.063252777
v -0.0133 0.000614364 0.062281959
v -0.0133 0.000614364 0.063197538
v -0.0133 0.000649519 0.062340684
v -0.0133 0.000649519 0.063138813
v -0.0133 0.000679731 0.062402446
v -0.0133 0.000679731 0.063077055
v -0.0133 0.000704769 0.06246677
v -0.0133 0.000704769 0.063012727
v -0.0133 0.000724444 0.062533177
v -0.0133 0.000724444 0.06294632
v -0.0133 0.000738606 0.062601157
v -0.0133 0.000738606 0.06287834
v -0.0133 0.000747146 0.062670186
v -0.0133 0.000747146 0.062809311
v -0.0133 0.00075 0.062739752
v -0.0133 0.007630427 0.065720335
v -0.0133 0.007699565 0.064888008
v -0.0133 0.007961567 0.06
v -0.0133 0.008148044 0.060167093
v -0.0133 0.008166391 0.06
v -0.0126 -0.008633767 0.065720335
v -0.0126 -0.008276732 0.070440985
v -0.0126 -0.007943357 0.075
v -0.0126 0.007952451 0.075
v -0.0126 0.008088168 0.073166005
v -0.0126 0.008633767 0.065720335
v -0.012534597 -0.008631619 0.065720335
v -0.012534597 0.008631619 0.065720335
v -0.012513144 -0.008629975 0.065720335
v -0.012513134 0.008629974 0.065720335
v -0.012501311 0.007957612 0.075
v -0.012484857 -0.007956859 0.075
v -0.012476842 0.007958317 0.075
v -0.012475715 0.007958231 0.075
v -0.01247518 -0.0079581 0.075
v -0.012474056 -0.007958014 0.075
v -0.012471767 -0.007957763 0.075
v -0.012471189 0.007957635 0.075
v -0.012469474 -0.007957714 0.075
v -0.012469473 -0.008625183 0.065720335
v -0.012466984 -0.007957331 0.075
v -0.012466983 0.00795733 0.075
v -0.012426926 -0.008618625 0.065720335
v -0.012426915 0.008618623 0.065720335
v -0.012406196 -0.007947269 0.075
v -0.012406196 0.007947269 0.075
v -0.012404909 0.007947027 0.075
v -0.012404908 0.008614487 0.065720335
v -0.012401232 -0.007946168 0.075
v -0.0123449 0.007932999 0.075
v -0.012341999 -0.008599797 0.065720335
v -0.012341987 0.008599794 0.065720335
v -0.012341229 -0.007932141 0.075
v -0.012341228 0.007932141 0.075
v -0.012341181 -0.008599578 0.065720335
v -0.012341181 -0.007932128 0.075
v -0.012336384 -0.007930614 0.075
v -0.012282255 0.007914206 0.075
v -0.01227856 0.007913083 0.075
v -0.01227856 0.008580519 0.065720335
v -0.012277421 -0.007912682 0.075
v -0.012277421 0.007912681 0.075
v -0.012274993 -0.007911736 0.075
v -0.012258999 -0.008573629 0.065720335
v -0.012258989 0.008573625 0.065720335
v -0.012219738 0.007890915 0.075
v -0.012217317 -0.007889972 0.075
v -0.012217314 -0.00855739 0.065720335
v -0.012215065 -0.007888979 0.075
v -0.012215064 0.007888979 0.075
v -0.01217855 -0.008540306 0.065720335
v -0.012178541 0.008540302 0.065720335
v -0.012158918 -0.007863475 0.075
v -0.012158918 0.007863474 0.075
v -0.012157711 0.007862895 0.075
v -0.012157709 0.008530293 0.065720335
v -0.012154442 -0.007861144 0.075
v -0.012103331 0.007833753 0.075
v -0.012101261 -0.008500072 0.065720335
v -0.012101252 0.008500067 0.065720335
v -0.012100073 -0.007832008 0.075
v -0.012100072 0.007832008 0.075
v -0.0121 -0.008499343 0.065720335
v -0.0121 -0.007831966 0.075
v -0.012095828 -0.007829304 0.075
v -0.012047697 0.007799355 0.075
v -0.01204443 0.00779732 0.075
v -0.012044428 0.008464671 0.065720335
v -0.012043469 -0.007796662 0.075
v -0.012043468 0.007796662 0.075
v -0.012041371 -0.007795122 0.075
v -0.012027717 -0.00845322 0.065720335
v -0.012027708 0.008453214 0.065720335
v -0.011993326 0.007760637 0.075
v -0.011991238 -0.007759104 0.075
v -0.011991236 -0.008426426 0.065720335
v -0.011989363 -0.007757596 0.075
v -0.011989362 0.007757596 0.075
v -0.011958479 -0.008400092 0.065720335
v -0.011958471 0.008400085 0.065720335
v -0.01194167 -0.007718354 0.075
v -0.011941669 0.007718354 0.075
v -0.011940654 0.007717482 0.075
v -0.011940653 0.008384774 0.065720335
v -0.011938001 -0.007714992 0.075
v -0.011895601 0.007675176 0.075
v -0.01189408 -0.008341081 0.065720335
v -0.011894072 0.008341074 0.065720335
v -0.011892961 -0.007672699 0.075
v -0.01189296 0.007672699 0.075
v -0.011892893 -0.008339892 0.065720335
v -0.011892893 -0.007672632 0.075
v -0.011889613 -0.007669045 0.075
v -0.011850749 0.007627514 0.075
v -0.01184816 0.007624746 0.075
v -0.011848159 0.00829197 0.065720335
v -0.011847419 -0.007623881 0.075
v -0.011847419 0.00762388 0.075
v -0.011845819 -0.007621885 0.075
v -0.011835018 -0.008276626 0.065720335
v -0.011835011 0.008276618 0.065720335
v -0.011808236 0.007576013 0.075
v -0.011806646 -0.007574029 0.075
v -0.011806644 -0.008241216 0.065720335
v -0.011805251 -0.007572123 0.075
v -0.011805251 0.007572122 0.075
v -0.011781752 -0.008207209 0.065720335
v -0.011781747 0.0082072 0.065720335
v -0.011769267 -0.007521777 0.075
v -0.011769266 0.007521777 0.075
v -0.01176853 0.007520698 0.075
v -0.011768529 0.008187847 0.065720335
v -0.011766646 -0.007517663 0.075
v -0.011735887 0.007468069 0.075
v -0.011734701 -0.008133354 0.065720335
v -0.011734696 0.008133344 0.065720335
v -0.011734015 -0.007465053 0.075
v -0.011734014 0.007465052 0.075
v -0.011733974 -0.008132093 0.065720335
v -0.011733974 -0.007464983 0.075
v -0.011731775 -0.007460751 0.075
v -0.011704862 0.007410373 0.075
v -0.011703127 0.007407121 0.075
v -0.011703127 0.008074188 0.065720335
v -0.011702638 -0.0074061 0.075
v -0.011702638 0.0074061 0.075
v -0.011701643 -0.007403834 0.075
v -0.011694236 -0.00805562 0.065720335
v -0.011694231 0.00805561 0.065720335
v -0.011677109 0.00734961 0.075
v -0.011676121 -0.00734736 0.075
v -0.01167612 -0.008014384 0.065720335
v -0.011675278 -0.007345188 0.075
v -0.011675277 0.007345188 0.075
v -0.011660676 -0.007974601 0.065720335
v -0.011660673 0.007974591 0.065720335
v -0.011653482 -0.00728713 0.075
v -0.011653481 0.007287129 0.075
v -0.011653069 0.007285956 0.075
v -0.011653069 0.007952936 0.065720335
v -0.011652052 -0.007282596 0.075
v -0.011635096 0.00722655 0.075
v -0.011634291 -0.007890919 0.065720335
v -0.011634288 0.007890908 0.065720335
v -0.011634086 -0.007223216 0.075
v -0.011634086 0.007223215 0.075
v -0.011634074 -0.007890107 0.065720335
v -0.011634074 -0.007223172 0.075
v -0.011633064 -0.007218608 0.075
v -0.011620019 0.007162731 0.075
v -0.011619215 0.007159277 0.075
v -0.011619215 0.007826166 0.065720335
v -0.011619006 -0.007158159 0.075
v -0.011619006 0.007158158 0.075
v -0.011618646 -0.00715582 0.075
v -0.011615292 -0.007805218 0.065720335
v -0.01161529 0.007805208 0.065720335
v -0.011608912 0.007096864 0.075
v -0.011608555 -0.007761387 0.065720335
v -0.011608555 -0.007094544 0.075
v -0.011608555 0.007094544 0.075
v -0.011608555 0.007761387 0.065720335
v -0.011608305 -0.007092256 0.075
v -0.011608305 0.007092255 0.075
v -0.01160383 -0.007718163 0.065720335
v -0.011603829 0.007718152 0.065720335
v -0.01160223 -0.007030412 0.075
v -0.01160223 0.007030411 0.075
v -0.011602141 -0.007696047 0.065720335
v -0.011602141 -0.007029251 0.075
v -0.011602141 0.007029251 0.075
v -0.011602141 0.007696047 0.065720335
v -0.011602029 0.007025805 0.075
v -0.011601906 -0.007020225 0.075
v -0.0116 -0.007630427 0.065720335
v -0.0116 -0.007246661 0.070830137
v -0.0116 -0.006962195 0.075
v -0.0116 -0.005707711 0.075
v -0.0116 -0.005675975 0.075
v -0.0116 -0.00075 0.07276278
v -0.0116 -0.000747146 0.072693214
v -0.0116 -0.000747146 0.072832339
v -0.0116 -0.000738606 0.072624184
v -0.0116 -0.000738606 0.072901376
v -0.0116 -0.000724444 0.072556205
v -0.0116 -0.000724444 0.072969347
v -0.0116 -0.000704769 0.072489798
v -0.0116 -0.000704769 0.073035754
v -0.0116 -0.000679731 0.07242547
v -0.0116 -0.000679731 0.073100083
v -0.0116 -0.000649519 0.072363712
v -0.0116 -0.000649519 0.073161848
v -0.0116 -0.000614364 0.072304986
v -0.0116 -0.000614364 0.073220566
v -0.0116 -0.000588714 0.075
v -0.0116 -0.000581447 0.075
v -0.0116 -0.000578889 0.075
v -0.0116 -0.000574533 0.072249748
v -0.0116 -0.000574533 0.073275812
v -0.0116 -0.000571795 0.075
v -0.0116 -0.000560125 0.075
v -0.0116 -0.000543881 0.075
v -0.0116 -0.00053033 0.072198413
v -0.0116 -0.00053033 0.073327146
v -0.0116 -0.000523106 0.075
v -0.0116 -0.000506693 0.072174333
v -0.0116 -0.000506693 0.073351227
v -0.0116 -0.000497889 0.075
v -0.0116 -0.000482091 0.07215137
v -0.0116 -0.000482091 0.073374182
v -0.0116 -0.000468366 0.075
v -0.0116 -0.00046233 0.075
v -0.0116 -0.000456571 0.072129577
v -0.0116 -0.000456571 0.073395982
v -0.0116 -0.000456326 0.075
v -0.0116 -0.000450367 0.075
v -0.0116 -0.000444469 0.075
v -0.0116 -0.000438645 0.075
v -0.0116 -0.000432909 0.075
v -0.0116 -0.000430182 0.072108984
v -0.0116 -0.000430182 0.073416568
v -0.0116 -0.000427274 0.075
v -0.0116 -0.000421753 0.075
v -0.0116 -0.00041636 0.075
v -0.0116 -0.000411105 0.075
v -0.0116 -0.000406001 0.075
v -0.0116 -0.000402975 0.072089642
v -0.0116 -0.000402975 0.073435917
v -0.0116 -0.000401059 0.075
v -0.0116 -0.000396289 0.075
v -0.0116 -0.000391702 0.075
v -0.0116 -0.000387307 0.075
v -0.0116 -0.000383112 0.075
v -0.0116 -0.000379127 0.075
v -0.0116 -0.000375358 0.075
v -0.0116 -0.000375 0.072071575
v -0.0116 -0.000375 0.073453985
v -0.0116 -0.000368495 0.075
v -0.0116 -0.000346311 0.072054826
v -0.0116 -0.000346311 0.073470734
v -0.0116 -0.000337084 0.075
v -0.0116 -0.000319833 0.075
v -0.0116 -0.000316964 0.072039425
v -0.0116 -0.000316964 0.073486134
v -0.0116 -0.000301591 0.075
v -0.0116 -0.000287013 0.072025396
v -0.0116 -0.000287013 0.073500156
v -0.0116 -0.000282394 0.075
v -0.0116 -0.000262277 0.075
v -0.0116 -0.000256515 0.072012775
v -0.0116 -0.000256515 0.073512778
v -0.0116 -0.000241282 0.075
v -0.0116 -0.000225529 0.072001584
v -0.0116 -0.000225529 0.073523968
v -0.0116 -0.000219452 0.075
v -0.0116 -0.000196832 0.075
v -0.0116 -0.000194114 0.071991839
v -0.0116 -0.000194114 0.073533714
v -0.0116 -0.000173471 0.075
v -0.0116 -0.00016233 0.071983561
v -0.0116 -0.00016233 0.073541991
v -0.0116 -0.00014942 0.075
v -0.0116 -0.000130236 0.071976773
v -0.0116 -0.000130236 0.073548786
v -0.0116 -0.000124733 0.075
v -0.0116 -9.9465e-05 0.075
v -0.0116 -9.7895e-05 0.071971476
v -0.0116 -9.7895e-05 0.073554084
v -0.0116 -7.3674e-05 0.075
v -0.0116 -6.5367e-05 0.071967684
v -0.0116 -6.5367e-05 0.073557876
v -0.0116 -4.742e-05 0.075
v -0.0116 -3.2715e-05 0.071965404
v -0.0116 -3.2715e-05 0.073560148
v -0.0116 -2.0764e-05 0.075
v -0.0116 0.0 0.071964644
v -0.0116 0.0 0.073560908
v -0.0116 6.232e-06 0.075
v -0.0116 3.2715e-05 0.071965404
v -0.0116 3.2715e-05 0.073560148
v -0.0116 3.3503e-05 0.075
v -0.0116 6.0985e-05 0.075
v -0.0116 6.5367e-05 0.071967684
v -0.0116 6.5367e-05 0.073557876
v -0.0116 8.8612e-05 0.075
v -0.0116 9.7895e-05 0.071971476
v -0.0116 9.7895e-05 0.073554084
v -0.0116 0.000116318 0.075
v -0.0116 0.000130236 0.071976773
v -0.0116 0.000130236 0.073548786
v -0.0116 0.00016233 0.071983561
v -0.0116 0.00016233 0.073541991
v -0.0116 0.000194114 0.071991839
v -0.0116 0.000194114 0.073533714
v -0.0116 0.000225529 0.072001584
v -0.0116 0.000225529 0.073523968
v -0.0116 0.000256515 0.072012775
v -0.0116 0.000256515 0.073512778
v -0.0116 0.000287013 0.072025396
v -0.0116 0.000287013 0.073500156
v -0.0116 0.000316964 0.072039425
v -0.0116 0.000316964 0.073486134
v -0.0116 0.000346311 0.072054826
v -0.0116 0.000346311 0.073470734
v -0.0116 0.000375 0.072071575
v -0.0116 0.000375 0.073453985
v -0.0116 0.000402975 0.072089642
v -0.0116 0.000402975 0.073435917
v -0.0116 0.000430182 0.072108984
v -0.0116 0.000430182 0.073416568
v -0.0116 0.000456571 0.072129577
v -0.0116 0.000456571 0.073395982
v -0.0116 0.000482091 0.07215137
v -0.0116 0.000482091 0.073374182
v -0.0116 0.000506693 0.072174333
v -0.0116 0.000506693 0.073351227
v -0.0116 0.00053033 0.072198413
v -0.0116 0.00053033 0.073327146
v -0.0116 0.000574533 0.072249748
v -0.0116 0.000574533 0.073275812
v -0.0116 0.000614364 0.072304986
v -0.0116 0.000614364 0.073220566
v -0.0116 0.000649519 0.072363712
v -0.0116 0.000649519 0.073161848
v -0.0116 0.000679731 0.07242547
v -0.0116 0.000679731 0.073100083
v -0.0116 0.000704769 0.072489798
v -0.0116 0.000704769 0.073035754
v -0.0116 0.000724444 0.072556205
v -0.0116 0.000724444 0.072969347
v -0.0116 0.000738606 0.072624184
v -0.0116 0.000738606 0.072901376
v -0.0116 0.000747146 0.072693214
v -0.0116 0.000747146 0.072832339
v -0.0116 0.00075 0.07276278
v -0.0116 0.005021783 0.075
v -0.0116 0.00503296 0.075
v -0.0116 0.00504551 0.075
v -0.0116 0.005059365 0.075
v -0.0116 0.005074461 0.075
v -0.0116 0.005090721 0.075
v -0.0116 0.005108065 0.075
v -0.0116 0.005126405 0.075
v -0.0116 0.005145656 0.075
v -0.0116 0.005165721 0.075
v -0.0116 0.005186509 0.075
v -0.0116 0.005207924 0.075
v -0.0116 0.005229872 0.075
v -0.0116 0.005252256 0.075
v -0.0116 0.005274976 0.075
v -0.0116 0.005297956 0.075
v -0.0116 0.005321093 0.075
v -0.0116 0.005344313 0.075
v -0.0116 0.005390679 0.075
v -0.0116 0.005436467 0.075
v -0.0116 0.005481159 0.075
v -0.0116 0.00552434 0.075
v -0.0116 0.005565652 0.075
v -0.0116 0.005604824 0.075
v -0.0116 0.005641644 0.075
v -0.0116 0.005675975 0.075
v -0.0116 0.005707711 0.075
v -0.0116 0.005736806 0.075
v -0.0116 0.005763237 0.075
v -0.0116 0.006964161 0.075
v -0.0116 0.007630427 0.065720335
f 1427 1425 1798
f 147 494 485
f 147 485 1
f 1793 1800 1798
f 319 840 1226
f 319 840 287
f 1795 1988 1794
f 1795 1421 1426
f 1795 1421 1420
f 18 147 1
f 518 50 494
f 44 50 494
f 1646 1654 1648
f 1670 1664 1667
f 1788 1790 1786
f 1788 1790 1793
f 1743 1748 1742
f 1989 1795 1988
f 1989 1623 1426
f 1989 1795 1426
f 146 485 1
f 751 244 695
f 194 673 188
f 681 194 200
f 681 194 673
f 667 182 188
f 667 673 188
f 1231 840 1226
f 1316 1636 1226
f 73 44 18
f 73 18 147
f 73 147 494
f 73 44 494
f 59 61 529
f 59 58 529
f 1687 1692 1686
f 1687 1682 1686
f 1652 1654 1648
f 1652 1656 1654
f 1658 1656 1654
f 1658 1664 1667
f 1676 1682 1680
f 1676 1682 1674
f 1671 1670 1667
f 1671 1670 1674
f 1792 1793 1798
f 1792 1788 1793
f 1792 1425 1798
f 1306 1682 1686
f 1708 1702 1704
f 1720 1714 1715
f 1417 1792 1425
f 1417 1792 1788
f 1751 1748 1742
f 1779 1776 1770
f 1779 1408 1782
f 1779 1401 1408
f 1779 1401 1770
f 1771 1776 1770
f 368 495 485
f 368 146 485
f 1252 1646 1643
f 212 244 695
f 212 206 695
f 834 840 287
f 834 813 287
f 286 263 788
f 286 813 788
f 286 813 287
f 245 751 244
f 687 206 200
f 687 681 200
f 687 206 695
f 661 667 182
f 661 182 176
f 661 176 655
f 1278 1316 1226
f 1272 1262 1651
f 1647 1262 1651
f 1247 1647 1633
f 523 58 529
f 523 522 58
f 1684 1682 1680
f 1684 1687 1682
f 1659 1658 1664
f 1659 1658 1656
f 1672 1670 1674
f 1672 1676 1674
f 1300 1674 1299
f 1300 1682 1674
f 1330 1702 1335
f 1710 1702 1335
f 1710 1708 1702
f 1710 1714 1715
f 1695 1311 1313
f 1695 1311 1686
f 1695 1692 1686
f 1695 1692 1698
f 1700 1702 1698
f 1700 1702 1704
f 1730 1736 1732
f 1415 1788 1782
f 1415 1417 1788
f 1415 1408 1782
f 1400 1401 1770
f 1766 1771 1768
f 1766 1771 1770
f 1766 1400 1395
f 1766 1400 1770
f 1766 1394 1395
f 1766 1394 1758
f 1783 1779 1776
f 1783 1779 1782
f 1783 1788 1786
f 1783 1788 1782
f 1734 1741 1739
f 1370 1368 1739
f 1361 1368 1739
f 19 368 495
f 19 368 146
f 683 682 202
f 683 688 202
f 1638 1221 1222
f 1268 1646 1654
f 262 245 751
f 262 751 788
f 262 263 788
f 1239 1231 1226
f 1637 1636 1226
f 1637 1633 1226
f 1238 1633 1226
f 1238 1247 1633
f 1261 1647 1262
f 1261 1247 1647
f 1297 1298 1679
f 1302 1298 1679
f 1675 1297 1679
f 1655 1272 1651
f 1655 1280 1272
f 1655 1280 1663
f 1318 1691 1309
f 55 522 58
f 55 54 522
f 519 54 518
f 519 54 522
f 51 518 50
f 51 54 518
f 531 61 529
f 531 535 61
f 599 601 121
f 581 587 100
f 581 577 100
f 595 115 110
f 595 593 110
f 595 115 597
f 108 593 110
f 551 75 549
f 551 557 75
f 85 87 567
f 85 561 567
f 85 561 557
f 93 87 567
f 545 69 549
f 545 69 543
f 71 75 549
f 71 69 549
f 65 537 543
f 65 537 535
f 1305 1306 1682
f 1305 1300 1682
f 1310 1306 1686
f 1310 1311 1686
f 1712 1710 1715
f 1712 1710 1708
f 1323 1330 1702
f 1337 1710 1335
f 1337 1710 1714
f 1723 1342 1352
f 1723 1342 1714
f 1723 1720 1714
f 1738 1364 1742
f 1738 1730 1736
f 1738 1740 1736
f 1738 1740 1743
f 1738 1743 1742
f 1726 1723 1720
f 1384 1758 1755
f 1754 1751 1748
f 1754 1751 1755
f 1754 1758 1755
f 1764 1766 1768
f 1764 1766 1758
f 1764 1760 1758
f 1789 1795 1420
f 1789 1785 1420
f 1789 1795 1794
f 1784 1789 1785
f 1784 1785 1780
f 1769 1762 1767
f 1775 1774 1780
f 1775 1769 1774
f 1775 1769 1767
f 1413 1785 1420
f 48 19 495
f 48 517 495
f 48 517 49
f 72 19 2
f 72 19 146
f 72 2 1
f 72 146 1
f 598 594 116
f 177 171 656
f 163 643 157
f 650 163 171
f 195 190 674
f 669 190 668
f 669 190 674
f 189 190 668
f 696 246 697
f 207 688 202
f 207 208 688
f 752 246 697
f 264 789 318
f 264 752 246
f 790 318 814
f 790 789 318
f 904 1022 318
f 1193 1221 318
f 1223 1638 1221
f 1644 1646 1643
f 1644 1646 1648
f 1254 1252 1646
f 1279 1658 1654
f 1279 1268 1654
f 1279 1658 1667
f 1259 1260 1226
f 1259 1251 1226
f 1249 1251 1226
f 1245 1246 1226
f 1245 1239 1226
f 1267 1260 1226
f 1267 1271 1226
f 1276 1278 1226
f 1276 1271 1226
f 1645 1647 1633
f 1645 1637 1633
f 1683 1691 1309
f 1683 1302 1679
f 1668 1675 1290
f 1668 1280 1663
f 1292 1675 1290
f 1292 1675 1297
f 1325 1703 1319
f 1696 1703 1319
f 1696 1318 1319
f 1696 1318 1691
f 1696 1691 1693
f 117 599 121
f 117 599 597
f 117 115 597
f 125 603 605
f 125 129 605
f 125 603 601
f 125 601 121
f 131 129 605
f 131 616 135
f 137 141 624
f 137 616 624
f 137 616 135
f 143 630 150
f 143 630 624
f 143 141 624
f 170 176 655
f 589 108 587
f 589 108 593
f 104 587 100
f 104 108 587
f 79 557 75
f 79 85 557
f 569 93 567
f 569 93 577
f 95 577 100
f 95 93 577
f 67 69 543
f 67 65 543
f 63 535 61
f 63 65 535
f 1322 1695 1313
f 1322 1323 1695
f 1699 1323 1702
f 1699 1323 1695
f 1699 1702 1698
f 1699 1695 1698
f 1341 1342 1714
f 1341 1337 1714
f 1727 1723 1352
f 1727 1356 1352
f 1727 1356 1730
f 1727 1726 1730
f 1727 1726 1723
f 1363 1738 1364
f 1363 1738 1730
f 1728 1730 1732
f 1728 1726 1730
f 1386 1394 1758
f 1386 1384 1758
f 1380 1751 1755
f 1380 1384 1755
f 1756 1760 1758
f 1756 1754 1758
f 1747 1741 1739
f 1747 1749 1752
f 1747 1370 1739
f 1747 1370 1375
f 1747 1752 1375
f 1763 1762 1767
f 1763 1759 1762
f 1757 1759 1752
f 1390 1763 1759
f 1787 1784 1789
f 1781 1784 1780
f 1404 1396 1767
f 1404 1775 1767
f 1404 1410 1780
f 1404 1775 1780
f 1412 1413 1785
f 1412 1785 1780
f 1412 1410 1780
f 53 57 521
f 53 517 521
f 53 517 49
f 66 536 544
f 550 558 76
f 588 101 578
f 109 594 116
f 109 588 594
f 109 588 101
f 178 177 656
f 178 662 183
f 638 643 157
f 638 637 157
f 651 171 656
f 651 650 171
f 644 163 643
f 644 650 163
f 151 142 631
f 151 632 631
f 151 632 637
f 151 637 157
f 625 142 136
f 625 618 136
f 122 130 602
f 122 598 602
f 122 598 116
f 606 130 602
f 196 677 674
f 196 195 674
f 196 677 682
f 184 189 668
f 184 663 668
f 184 663 662
f 184 662 183
f 689 208 688
f 689 696 208
f 213 696 208
f 753 264 789
f 753 264 752
f 819 318 814
f 819 839 318
f 865 867 318
f 865 839 318
f 1187 1056 318
f 1191 1193 318
f 1235 1223 1638
f 1265 1268 1646
f 1265 1254 1646
f 1248 1246 1226
f 1248 1249 1226
f 1649 1647 1651
f 1649 1645 1647
f 1304 1683 1309
f 1304 1683 1302
f 1289 1668 1290
f 1289 1668 1280
f 1707 1711 1331
f 1707 1325 1331
f 1707 1325 1703
f 1707 1706 1703
f 1707 1706 1711
f 1724 1349 1347
f 1724 1349 1353
f 1724 1721 1725
f 1724 1721 1718
f 1701 1696 1703
f 1713 1706 1711
f 607 131 605
f 607 131 616
f 152 156 636
f 152 630 636
f 152 630 150
f 158 642 162
f 158 642 636
f 158 156 636
f 649 170 655
f 1358 1356 1730
f 1358 1363 1730
f 1373 1751 1742
f 1373 1380 1751
f 1746 1747 1741
f 1746 1747 1749
f 1761 1759 1762
f 1761 1757 1759
f 1753 1749 1752
f 1753 1757 1752
f 1382 1390 1759
f 1382 1752 1375
f 1382 1759 1752
f 1391 1390 1763
f 1391 1396 1767
f 1391 1763 1767
f 1791 1789 1794
f 1791 1787 1789
f 1777 1774 1780
f 1777 1781 1780
f 530 57 521
f 62 66 536
f 62 530 536
f 62 530 57
f 70 550 76
f 70 550 544
f 70 66 544
f 94 568 578
f 94 101 578
f 657 178 656
f 657 178 662
f 626 142 631
f 626 625 142
f 617 606 130
f 617 130 136
f 617 618 136
f 201 682 202
f 201 196 682
f 214 696 246
f 214 213 696
f 1188 1189 318
f 1188 1187 318
f 1190 1189 318
f 1190 1191 318
f 1205 1221 1222
f 1205 1204 1221
f 1244 1632 1643
f 1244 1235 1632
f 1244 1252 1643
f 1642 1235 1632
f 1642 1235 1638
f 1642 1632 1643
f 1642 1644 1643
f 1283 1279 1667
f 1283 1285 1667
f 1294 1674 1299
f 1294 1671 1674
f 1650 1655 1651
f 1650 1649 1651
f 1333 1711 1331
f 1333 1340 1711
f 1719 1340 1347
f 1719 1724 1347
f 1719 1340 1711
f 1719 1724 1718
f 1719 1713 1718
f 1719 1713 1711
f 1731 1724 1353
f 1731 1733 1729
f 1731 1725 1729
f 1731 1724 1725
f 1705 1706 1703
f 1705 1701 1703
f 1697 1696 1693
f 1697 1701 1696
f 166 649 170
f 166 649 642
f 166 642 162
f 1372 1364 1742
f 1372 1373 1742
f 86 94 568
f 86 568 558
f 86 558 76
f 874 879 318
f 881 879 318
f 899 904 318
f 899 898 318
f 1030 1022 318
f 1030 1031 318
f 1033 1043 318
f 1033 1031 318
f 1044 1043 318
f 1202 1204 1221
f 1293 1671 1667
f 1293 1294 1671
f 1293 1285 1667
f 1657 1655 1663
f 1657 1650 1655
f 1735 1361 1353
f 1735 1731 1353
f 1735 1361 1739
f 1735 1734 1739
f 1735 1733 1734
f 1735 1731 1733
f 872 867 318
f 872 874 318
f 884 886 318
f 884 881 318
f 888 886 318
f 888 889 318
f 894 898 318
f 894 889 318
f 1055 1056 318
f 1055 1052 318
f 1049 1046 318
f 1049 1052 318
f 1045 1046 318
f 1045 1044 318
f 1195 1193 1221
f 1195 1196 1221
f 1197 1198 1221
f 1197 1196 1221
f 1201 1198 1221
f 1201 1202 1221
f 1662 1668 1663
f 1662 1657 1663
f 1673 1668 1675
f 1669 1673 1668
f 1678 1675 1679
f 1678 1683 1679
f 1665 1662 1668
f 1665 1669 1668
f 1677 1673 1675
f 1677 1678 1675
f 1685 1678 1683
f 1685 1683 1691
f 1690 1691 1693
f 1690 1685 1691
f 1989 1800 1798
f 1989 1988 1800
f 1989 1623 1427
f 1989 1427 1798
f 1293 1623 1426
f 1293 1421 1426
f 1293 1412 1410
f 1293 59 61
f 1293 2 1
f 1293 319 1226
f 1293 194 200
f 1293 1386 1394
f 1293 1361 1353
f 1293 44 50
f 1293 1427 1425
f 1293 1421 1420
f 1293 1337 1335
f 1293 1349 1353
f 1293 182 176
f 1293 1623 1427
f 1293 51 50
f 1293 104 100
f 1293 212 244
f 1293 319 287
f 1293 206 200
f 1293 18 1
f 1293 1283 1279
f 1293 71 75
f 1293 1400 1395
f 1293 262 263
f 1293 1292 1290
f 1293 1415 1408
f 1293 178 183
f 1293 182 188
f 1293 1221 318
f 1293 44 18
f 1293 1261 1262
f 1293 137 135
f 1293 1311 1313
f 1293 1417 1425
f 1293 1304 1309
f 1293 1289 1290
f 1293 109 116
f 1293 151 157
f 1293 1372 1364
f 1293 286 287
f 1293 194 188
f 1293 245 244
f 1293 59 58
f 1293 55 58
f 1293 1294 1299
f 1293 1325 1331
f 1293 1300 1299
f 1293 1330 1335
f 1293 63 61
f 1293 1401 1408
f 1293 1341 1342
f 1293 1370 1375
f 1293 1358 1356
f 1293 19 2
f 1293 48 49
f 1293 207 202
f 1293 264 318
f 1293 1244 1252
f 1293 212 206
f 1293 286 263
f 1293 1254 1252
f 1293 1272 1262
f 1293 1238 1226
f 1293 1265 1268
f 1293 1318 1309
f 1293 117 121
f 1293 115 110
f 1293 170 176
f 1293 79 75
f 1293 67 69
f 1293 1305 1306
f 1293 1310 1306
f 1293 1342 1352
f 1293 1415 1417
f 1293 1400 1401
f 1293 1394 1395
f 1293 1349 1347
f 1293 1370 1368
f 1293 1361 1368
f 1293 166 162
f 1293 1413 1420
f 1293 62 57
f 1293 163 157
f 1293 122 116
f 1293 184 183
f 1293 201 202
f 1293 262 245
f 1293 1238 1247
f 1293 1261 1247
f 1293 1297 1298
f 1293 1302 1298
f 1293 1280 1272
f 1293 1318 1319
f 1293 55 54
f 1293 51 54
f 1293 125 121
f 1293 131 135
f 1293 143 150
f 1293 108 110
f 1293 85 87
f 1293 93 87
f 1293 71 69
f 1293 95 100
f 1293 1305 1300
f 1293 1310 1311
f 1293 1323 1330
f 1293 1322 1313
f 1293 1356 1352
f 1293 1363 1364
f 1293 1404 1396
f 1293 53 49
f 1293 48 19
f 1293 70 76
f 1293 177 171
f 1293 163 171
f 1293 142 136
f 1293 130 136
f 1293 195 190
f 1293 189 190
f 1293 207 208
f 1293 264 246
f 1293 1223 1221
f 1293 214 246
f 1293 1279 1268
f 1293 1292 1297
f 1293 1325 1319
f 1293 117 115
f 1293 125 129
f 1293 131 129
f 1293 137 141
f 1293 143 141
f 1293 152 150
f 1293 1333 1331
f 1293 104 108
f 1293 79 85
f 1293 95 93
f 1293 67 65
f 1293 63 65
f 1293 1322 1323
f 1293 1341 1337
f 1293 158 162
f 1293 1386 1384
f 1293 1380 1384
f 1293 1382 1375
f 1293 1404 1410
f 1293 1412 1413
f 1293 53 57
f 1293 1391 1396
f 1293 109 101
f 1293 178 177
f 1293 151 142
f 1293 122 130
f 1293 196 195
f 1293 184 189
f 1293 213 208
f 1293 1235 1223
f 1293 1265 1254
f 1293 1244 1235
f 1293 1304 1302
f 1293 1289 1280
f 1293 1340 1347
f 1293 152 156
f 1293 158 156
f 1293 1358 1363
f 1293 1373 1380
f 1293 1382 1390
f 1293 1391 1390
f 1293 62 66
f 1293 70 66
f 1293 94 101
f 1293 201 196
f 1293 214 213
f 1293 1283 1285
f 1293 86 76
f 1293 1333 1340
f 1293 166 170
f 1293 1372 1373
f 1293 86 94
f 1690 545 549
f 1690 1239 1231
f 1690 494 485
f 1690 683 682
f 1690 1316 1636
f 1690 1988 1800
f 1690 1740 1743
f 1690 687 695
f 1690 1743 1748
f 1690 1988 1794
f 1690 537 543
f 1690 617 618
f 1690 1245 1246
f 1690 1793 1800
f 1690 1790 1786
f 1690 589 587
f 1690 1248 1246
f 1690 495 485
f 1690 517 495
f 1690 834 840
f 1690 519 518
f 1690 1790 1793
f 1690 1676 1680
f 1690 595 597
f 1690 1652 1648
f 1690 1700 1698
f 1690 1783 1786
f 1690 649 655
f 1690 536 544
f 1690 752 697
f 1690 751 695
f 1690 1231 840
f 1690 518 494
f 1690 581 587
f 1690 523 529
f 1690 1672 1670
f 1690 1692 1698
f 1690 1684 1680
f 1690 1670 1664
f 1690 1720 1715
f 1690 1736 1732
f 1690 1771 1768
f 1690 1733 1729
f 1690 530 521
f 1690 588 578
f 1690 677 682
f 1690 813 788
f 1690 751 788
f 1690 681 673
f 1690 667 673
f 1690 661 655
f 1690 1188 1189
f 1690 1276 1278
f 1690 551 549
f 1690 603 605
f 1690 1642 1638
f 1690 1687 1692
f 1690 1652 1656
f 1690 1659 1664
f 1690 1708 1704
f 1690 1712 1715
f 1690 569 567
f 1690 1771 1776
f 1690 1734 1741
f 1690 1721 1718
f 1690 1791 1794
f 1690 638 643
f 1690 657 656
f 1690 669 668
f 1690 790 814
f 1690 834 813
f 1690 687 681
f 1690 661 667
f 1690 1644 1648
f 1690 1278 1316
f 1690 523 522
f 1690 531 529
f 1690 599 597
f 1690 616 624
f 1690 630 624
f 1690 607 605
f 1690 561 567
f 1690 1684 1687
f 1690 1659 1656
f 1690 1672 1676
f 1690 1700 1704
f 1690 1754 1748
f 1690 1740 1736
f 1690 1783 1776
f 1690 1764 1768
f 1690 1725 1729
f 1690 1746 1741
f 1690 1769 1762
f 1690 568 578
f 1690 598 602
f 1690 663 668
f 1690 677 674
f 1690 683 688
f 1690 696 697
f 1690 753 789
f 1690 904 1022
f 1690 1638 1222
f 1690 1259 1260
f 1690 1190 1189
f 1690 1267 1260
f 1690 1637 1636
f 1690 519 522
f 1690 531 535
f 1690 537 535
f 1690 599 601
f 1690 603 601
f 1690 1713 1718
f 1690 630 636
f 1690 581 577
f 1690 595 593
f 1690 561 557
f 1690 551 557
f 1690 545 543
f 1690 1712 1708
f 1690 1726 1720
f 1690 1728 1732
f 1690 1764 1760
f 1690 1733 1734
f 1690 1721 1725
f 1690 1756 1760
f 1690 1753 1749
f 1690 1769 1774
f 1690 517 521
f 1690 550 544
f 1690 598 594
f 1690 663 662
f 1690 632 631
f 1690 651 656
f 1690 644 643
f 1690 669 674
f 1690 606 602
f 1690 689 688
f 1690 790 789
f 1690 819 814
f 1690 865 867
f 1690 872 867
f 1690 1033 1043
f 1690 1044 1043
f 1690 1259 1251
f 1690 1249 1251
f 1690 1245 1239
f 1690 1267 1271
f 1690 1276 1271
f 1690 1645 1637
f 1690 1705 1706
f 1690 642 636
f 1690 589 593
f 1690 569 577
f 1690 1728 1726
f 1690 1756 1754
f 1690 1761 1762
f 1690 1787 1784
f 1690 1781 1784
f 1690 1777 1774
f 1690 550 558
f 1690 568 558
f 1690 588 594
f 1690 632 637
f 1690 638 637
f 1690 651 650
f 1690 644 650
f 1690 625 618
f 1690 626 631
f 1690 689 696
f 1690 753 752
f 1690 819 839
f 1690 865 839
f 1690 1697 1693
f 1690 884 886
f 1690 1187 1056
f 1690 1191 1193
f 1690 1205 1222
f 1690 1248 1249
f 1690 1649 1645
f 1690 1202 1204
f 1690 1713 1706
f 1690 607 616
f 1690 649 642
f 1690 1746 1749
f 1690 1761 1757
f 1690 1753 1757
f 1690 1791 1787
f 1690 1777 1781
f 1690 530 536
f 1690 657 662
f 1690 626 625
f 1690 617 606
f 1690 1201 1198
f 1690 899 904
f 1690 1030 1022
f 1690 894 898
f 1690 1188 1187
f 1690 1190 1191
f 1690 1205 1204
f 1690 1045 1046
f 1690 1642 1644
f 1690 1650 1649
f 1690 1705 1701
f 1690 1697 1701
f 1690 874 879
f 1690 881 879
f 1690 899 898
f 1690 888 886
f 1690 1030 1031
f 1690 1033 1031
f 1690 1055 1056
f 1690 1049 1046
f 1690 1195 1193
f 1690 1197 1198
f 1690 1657 1650
f 1690 872 874
f 1690 884 881
f 1690 888 889
f 1690 894 889
f 1690 1055 1052
f 1690 1049 1052
f 1690 1045 1044
f 1690 1195 1196
f 1690 1197 1196
f 1690 1201 1202
f 1690 1662 1657
f 1690 1677 1673
f 1690 1669 1673
f 1690 1665 1662
f 1690 1665 1669
f 1690 1677 1678
f 1690 1685 1678
