v -0.0083 -0.055 -0.00662007
v -0.0083 -0.055 -0.001812438
v -0.0083 -0.055 -0.001760365
v -0.0083 -0.055 -0.001704657
v -0.0083 -0.055 -0.001645714
v -0.0083 -0.055 -0.001583993
v -0.0083 -0.055 -0.001519994
v -0.0083 -0.055 -0.001487308
v -0.0083 -0.055 -0.001454259
v -0.0083 -0.055 -0.00142092
v -0.0083 -0.055 -0.001387368
v -0.0083 -0.055 -0.001353678
v -0.0083 -0.055 -0.001319932
v -0.0083 -0.055 -0.001286207
v -0.0083 -0.055 -0.001252587
v -0.0083 -0.055 -0.001219147
v -0.0083 -0.055 -0.001185976
v -0.0083 -0.055 -0.000373078
v -0.0083 -0.055 -0.000348779
v -0.0083 -0.055 -0.000324164
v -0.0083 -0.055 -0.000299297
v -0.0083 -0.055 -0.000274246
v -0.0083 -0.055 -0.000249079
v -0.0083 -0.055 -0.000247835
v -0.0083 -0.055 -0.000222733
v -0.0083 -0.055 -0.00019765
v -0.0083 -0.055 -0.000172657
v -0.0083 -0.055 -0.000147822
v -0.0083 -0.055 -0.000123214
v -0.0083 -0.055 -9.89e-05
v -0.0083 -0.055 -7.4948e-05
v -0.0083 -0.055 -5.142e-05
v -0.0083 -0.055 -2.8381e-05
v -0.0083 -0.055 -5.891e-06
v -0.0083 -0.055 1.5992e-05
v -0.0083 -0.055 3.7213e-05
v -0.0083 -0.055 5.7719e-05
v -0.0083 -0.055 7.7461e-05
v -0.0083 -0.055 9.6394e-05
v -0.0083 -0.055 0.000114474
v -0.0083 -0.055 0.000131664
v -0.0083 -0.055 0.000147928
v -0.0083 -0.055 0.000163234
v -0.0083 -0.055 0.000177557
v -0.0083 -0.055 0.000190871
v -0.0083 -0.055 0.0002144
v -0.0083 -0.055 0.000215121
v -0.0083 -0.055 0.000217539
v -0.0083 -0.055 0.000221701
v -0.0083 -0.055 0.000227634
v -0.0083 -0.055 0.000235344
v -0.0083 -0.055 0.000244818
v -0.0083 -0.055 0.000250204
v -0.0083 -0.055 0.000256015
v -0.0083 -0.055 0.00026224
v -0.0083 -0.055 0.000268868
v -0.0083 -0.055 0.000275888
v -0.0083 -0.055 0.000283285
v -0.0083 -0.055 0.000291043
v -0.0083 -0.055 0.000299143
v -0.0083 -0.055 0.000307568
v -0.0083 -0.055 0.000316296
v -0.0083 -0.055 0.000325304
v -0.0083 -0.055 0.000334569
v -0.0083 -0.055 0.000344066
v -0.0083 -0.055 0.000353768
v -0.0083 -0.055 0.000363648
v -0.0083 -0.055 0.000373679
v -0.0083 -0.055 0.00038383
v -0.0083 -0.055 0.000394073
v -0.0083 -0.055 0.000404378
v -0.0083 -0.055 0.000414714
v -0.0083 -0.055 0.000437868
v -0.0083 -0.055 0.000448465
v -0.0083 -0.055 0.000459036
v -0.0083 -0.055 0.000469551
v -0.0083 -0.055 0.00047998
v -0.0083 -0.055 0.000490293
v -0.0083 -0.055 0.000500461
v -0.0083 -0.055 0.000510456
v -0.0083 -0.055 0.000520253
v -0.0083 -0.055 0.000529824
v -0.0083 -0.055 0.000539147
v -0.0083 -0.055 0.000548197
v -0.0083 -0.055 0.000556953
v -0.0083 -0.055 0.000565396
v -0.0083 -0.055 0.000573506
v -0.0083 -0.055 0.000581268
v -0.0083 -0.055 0.000588665
v -0.0083 -0.055 0.002079933
v -0.0083 -0.055 0.002145384
v -0.0083 -0.055 0.002207985
v -0.0083 -0.055 0.002267269
v -0.0083 -0.055 0.002322823
v -0.0083 -0.055 0.002374299
v -0.0083 -0.055 0.002421407
v -0.0083 -0.055 0.00246391
v -0.0083 -0.055 0.006314301
v -0.0083 -0.055 0.006625472
v -0.0083 -0.053807426 0.0
v -0.0083 -0.053806707 -3.2715e-05
v -0.0083 -0.053806707 3.2715e-05
v -0.0083 -0.053804554 -6.5367e-05
v -0.0083 -0.053804554 6.5367e-05
v -0.0083 -0.053800974 -9.7895e-05
v -0.0083 -0.053800974 9.7895e-05
v -0.0083 -0.053795967 -0.000130236
v -0.0083 -0.053795967 0.000130236
v -0.0083 -0.053789549 -0.00016233
v -0.0083 -0.053789549 0.00016233
v -0.0083 -0.053781725 -0.000194114
v -0.0083 -0.053781725 0.000194114
v -0.0083 -0.053772517 -0.000225529
v -0.0083 -0.053772517 0.000225529
v -0.0083 -0.05376194 -0.000256515
v -0.0083 -0.05376194 0.000256515
v -0.0083 -0.053750016 -0.000287013
v -0.0083 -0.053750016 0.000287013
v -0.0083 -0.053736761 -0.000316964
v -0.0083 -0.053736761 0.000316964
v -0.0083 -0.05372221 -0.000346311
v -0.0083 -0.05372221 0.000346311
v -0.0083 -0.053706381 -0.000375
v -0.0083 -0.053706381 0.000375
v -0.0083 -0.053689312 -0.000402975
v -0.0083 -0.053689312 0.000402975
v -0.0083 -0.053671028 -0.000430182
v -0.0083 -0.053671028 0.000430182
v -0.0083 -0.053651571 -0.000456571
v -0.0083 -0.053651571 0.000456571
v -0.0083 -0.053630974 -0.000482091
v -0.0083 -0.053630974 0.000482091
v -0.0083 -0.053609278 -0.000506693
v -0.0083 -0.053609278 0.000506693
v -0.0083 -0.053586524 -0.00053033
v -0.0083 -0.053586524 0.00053033
v -0.0083 -0.053538017 -0.000574533
v -0.0083 -0.053538017 0.000574533
v -0.0083 -0.053485818 -0.000614364
v -0.0083 -0.053485818 0.000614364
v -0.0083 -0.053430326 -0.000649519
v -0.0083 -0.053430326 0.000649519
v -0.0083 -0.053371966 -0.000679731
v -0.0083 -0.053371966 0.000679731
v -0.0083 -0.053311177 -0.000704769
v -0.0083 -0.053311177 0.000704769
v -0.0083 -0.053248428 -0.000724444
v -0.0083 -0.053248428 0.000724444
v -0.0083 -0.053184193 -0.000738606
v -0.0083 -0.053184193 0.000738606
v -0.0083 -0.053118959 -0.000747146
v -0.0083 -0.053118959 0.000747146
v -0.0083 -0.053053226 -0.00075
v -0.0083 -0.053053226 0.00075
v -0.0083 -0.052987494 -0.000747146
v -0.0083 -0.052987494 0.000747146
v -0.0083 -0.05292226 -0.000738606
v -0.0083 -0.05292226 0.000738606
v -0.0083 -0.052858025 -0.000724444
v -0.0083 -0.052858025 0.000724444
v -0.0083 -0.052795276 -0.000704769
v -0.0083 -0.052795276 0.000704769
v -0.0083 -0.052734487 -0.000679731
v -0.0083 -0.052734487 0.000679731
v -0.0083 -0.052676126 -0.000649519
v -0.0083 -0.052676126 0.000649519
v -0.0083 -0.052620634 -0.000614364
v -0.0083 -0.052620634 0.000614364
v -0.0083 -0.052568436 -0.000574533
v -0.0083 -0.052568436 0.000574533
v -0.0083 -0.052519929 -0.00053033
v -0.0083 -0.052519929 0.00053033
v -0.0083 -0.052497171 -0.000506693
v -0.0083 -0.052497171 0.000506693
v -0.0083 -0.052475475 -0.000482091
v -0.0083 -0.052475475 0.000482091
v -0.0083 -0.052454881 -0.000456571
v -0.0083 -0.052454881 0.000456571
v -0.0083 -0.052435424 -0.000430182
v -0.0083 -0.052435424 0.000430182
v -0.0083 -0.05241714 -0.000402975
v -0.0083 -0.05241714 0.000402975
v -0.0083 -0.052400071 -0.000375
v -0.0083 -0.052400071 0.000375
v -0.0083 -0.052384242 -0.000346311
v -0.0083 -0.052384242 0.000346311
v -0.0083 -0.052369691 -0.000316964
v -0.0083 -0.052369691 0.000316964
v -0.0083 -0.052356437 -0.000287013
v -0.0083 -0.052356437 0.000287013
v -0.0083 -0.052344512 -0.000256515
v -0.0083 -0.052344512 0.000256515
v -0.0083 -0.052333932 -0.000225529
v -0.0083 -0.052333932 0.000225529
v -0.0083 -0.052324727 -0.000194114
v -0.0083 -0.052324727 0.000194114
v -0.0083 -0.052316904 -0.00016233
v -0.0083 -0.052316904 0.00016233
v -0.0083 -0.052310485 -0.000130236
v -0.0083 -0.052310485 0.000130236
v -0.0083 -0.052305479 -9.7895e-05
v -0.0083 -0.052305479 9.7895e-05
v -0.0083 -0.052301899 -6.5367e-05
v -0.0083 -0.052301899 6.5367e-05
v -0.0083 -0.052299745 -3.2715e-05
v -0.0083 -0.052299745 3.2715e-05
v -0.0083 -0.052299026 0.0
v -0.0083 -0.05123169 -0.006891712
v -0.0083 -0.048025236 0.006294297
v -0.0083 -0.048022952 -0.007101087
v -0.0083 -0.047447007 0.007139442
v -0.0083 -0.043751441 0.0
v -0.0083 -0.043750726 -3.2715e-05
v -0.0083 -0.043750726 3.2715e-05
v -0.0083 -0.043748572 -6.5367e-05
v -0.0083 -0.043748572 6.5367e-05
v -0.0083 -0.043744989 -9.7895e-05
v -0.0083 -0.043744989 9.7895e-05
v -0.0083 -0.043739986 -0.000130236
v -0.0083 -0.043739986 0.000130236
v -0.0083 -0.043733563 -0.00016233
v -0.0083 -0.043733563 0.00016233
v -0.0083 -0.043725744 -0.000194114
v -0.0083 -0.043725744 0.000194114
v -0.0083 -0.043716535 -0.000225529
v -0.0083 -0.043716535 0.000225529
v -0.0083 -0.043705959 -0.000256515
v -0.0083 -0.043705959 0.000256515
v -0.0083 -0.043694034 -0.000287013
v -0.0083 -0.043694034 0.000287013
v -0.0083 -0.04368078 -0.000316964
v -0.0083 -0.04368078 0.000316964
v -0.0083 -0.043666225 -0.000346311
v -0.0083 -0.043666225 0.000346311
v -0.0083 -0.0436504 -0.000375
v -0.0083 -0.0436504 0.000375
v -0.0083 -0.043633327 -0.000402975
v -0.0083 -0.043633327 0.000402975
v -0.0083 -0.043615047 -0.000430182
v -0.0083 -0.043615047 0.000430182
v -0.0083 -0.04359559 -0.000456571
v -0.0083 -0.04359559 0.000456571
v -0.0083 -0.043574993 -0.000482091
v -0.0083 -0.043574993 0.000482091
v -0.0083 -0.043553296 -0.000506693
v -0.0083 -0.043553296 0.000506693
v -0.0083 -0.043530542 -0.00053033
v -0.0083 -0.043530542 0.00053033
v -0.0083 -0.043482032 -0.000574533
v -0.0083 -0.043482032 0.000574533
v -0.0083 -0.043429833 -0.000614364
v -0.0083 -0.043429833 0.000614364
v -0.0083 -0.043374345 -0.000649519
v -0.0083 -0.043374345 0.000649519
v -0.0083 -0.043315981 -0.000679731
v -0.0083 -0.043315981 0.000679731
v -0.0083 -0.043255195 -0.000704769
v -0.0083 -0.043255195 0.000704769
v -0.0083 -0.043192446 -0.000724444
v -0.0083 -0.043192446 0.000724444
v -0.0083 -0.043128207 -0.000738606
v -0.0083 -0.043128207 0.000738606
v -0.0083 -0.043062977 -0.000747146
v -0.0083 -0.043062977 0.000747146
v -0.0083 -0.042997245 -0.00075
v -0.0083 -0.042997245 0.00075
v -0.0083 -0.042931512 -0.000747146
v -0.0083 -0.042931512 0.000747146
v -0.0083 -0.042866278 -0.000738606
v -0.0083 -0.042866278 0.000738606
v -0.0083 -0.042802043 -0.000724444
v -0.0083 -0.042802043 0.000724444
v -0.0083 -0.042739294 -0.000704769
v -0.0083 -0.042739294 0.000704769
v -0.0083 -0.042678505 -0.000679731
v -0.0083 -0.042678505 0.000679731
v -0.0083 -0.042620145 -0.000649519
v -0.0083 -0.042620145 0.000649519
v -0.0083 -0.042564653 -0.000614364
v -0.0083 -0.042564653 0.000614364
v -0.0083 -0.042512454 -0.000574533
v -0.0083 -0.042512454 0.000574533
v -0.0083 -0.042463943 -0.00053033
v -0.0083 -0.042463943 0.00053033
v -0.0083 -0.042441189 -0.000506693
v -0.0083 -0.042441189 0.000506693
v -0.0083 -0.042419493 -0.000482091
v -0.0083 -0.042419493 0.000482091
v -0.0083 -0.042398896 -0.000456571
v -0.0083 -0.042398896 0.000456571
v -0.0083 -0.042379439 -0.000430182
v -0.0083 -0.042379439 0.000430182
v -0.0083 -0.042361159 -0.000402975
v -0.0083 -0.042361159 0.000402975
v -0.0083 -0.04234409 -0.000375
v -0.0083 -0.04234409 0.000375
v -0.0083 -0.042328261 -0.000346311
v -0.0083 -0.042328261 0.000346311
v -0.0083 -0.042313706 -0.000316964
v -0.0083 -0.042313706 0.000316964
v -0.0083 -0.042300455 -0.000287013
v -0.0083 -0.042300455 0.000287013
v -0.0083 -0.042288531 -0.000256515
v -0.0083 -0.042288531 0.000256515
v -0.0083 -0.042277951 -0.000225529
v -0.0083 -0.042277951 0.000225529
v -0.0083 -0.042268746 -0.000194114
v -0.0083 -0.042268746 0.000194114
v -0.0083 -0.042260922 -0.00016233
v -0.0083 -0.042260922 0.00016233
v -0.0083 -0.042254504 -0.000130236
v -0.0083 -0.042254504 0.000130236
v -0.0083 -0.042249497 -9.7895e-05
v -0.0083 -0.042249497 9.7895e-05
v -0.0083 -0.042245917 -6.5367e-05
v -0.0083 -0.042245917 6.5367e-05
v -0.0083 -0.042243764 -3.2715e-05
v -0.0083 -0.042243764 3.2715e-05
v -0.0083 -0.042243045 0.0
v -0.0083 -0.041550096 -0.007566197
v -0.0083 -0.041550096 0.007566197
v -0.0083 -0.037648961 -0.007907942
v -0.0083 -0.035 -0.008226692
v -0.0083 -0.035 -0.008203727
v -0.0083 -0.035 -0.003619851
v -0.0083 -0.035 -0.00354535
v -0.0083 -0.035 -0.003468079
v -0.0083 -0.035 -0.003388665
v -0.0083 -0.035 -0.003307818
v -0.0083 -0.035 -0.001929096
v -0.0083 -0.035 -0.00185938
v -0.0083 -0.035 -0.001824028
v -0.0083 -0.035 -0.00178845
v -0.0083 -0.035 -0.001752727
v -0.0083 -0.035 -0.001716941
v -0.0083 -0.035 -0.001681177
v -0.0083 -0.035 -0.001645516
v -0.0083 -0.035 -0.001610048
v -0.0083 -0.035 -0.001574855
v -0.0083 -0.035 -0.001540025
v -0.0083 -0.035 -0.00150564
v -0.0083 -0.035 -0.001471791
v -0.0083 -0.035 -0.001438557
v -0.0083 -0.035 -0.001406025
v -0.0083 -0.035 -0.001374271
v -0.0083 -0.035 -0.001343383
v -0.0083 -0.035 -0.001313429
v -0.0083 -0.035 -0.001284488
v -0.0083 -0.035 -0.001256635
v -0.0083 -0.035 -0.001229931
v -0.0083 -0.035 -0.001204448
v -0.0083 -0.035 -0.001180245
v -0.0083 -0.035 -0.001157376
v -0.0083 -0.035 -0.001135902
v -0.0083 -0.035 -0.001115863
v -0.0083 -0.035 -0.001097311
v -0.0083 -0.035 -0.00108028
v -0.0083 -0.035 -0.00106481
v -0.0083 -0.035 -0.001050927
v -0.0083 -0.035 -0.001038659
v -0.0083 -0.035 -0.001028023
v -0.0083 -0.035 -0.001019041
v -0.0083 -0.035 -0.001011717
v -0.0083 -0.035 -0.00100606
v -0.0083 -0.035 -0.001002071
v -0.0083 -0.035 -0.000999745
v -0.0083 -0.035 -0.000999074
v -0.0083 -0.035 0.000350343
v -0.0083 -0.035 0.000353908
v -0.0083 -0.035 0.000357675
v -0.0083 -0.035 0.000361639
v -0.0083 -0.035 0.000365791
v -0.0083 -0.035 0.000370123
v -0.0083 -0.035 0.000374626
v -0.0083 -0.035 0.00037929
v -0.0083 -0.035 0.000384106
v -0.0083 -0.035 0.000389063
v -0.0083 -0.035 0.00039415
v -0.0083 -0.035 0.000399356
v -0.0083 -0.035 0.000404668
v -0.0083 -0.035 0.000410074
v -0.0083 -0.035 0.000415562
v -0.0083 -0.035 0.000421119
v -0.0083 -0.035 0.000426732
v -0.0083 -0.035 0.000432386
v -0.0083 -0.035 0.000438069
v -0.0083 -0.035 0.000471972
v -0.0083 -0.035 0.000477819
v -0.0083 -0.035 0.00048367
v -0.0083 -0.035 0.000489509
v -0.0083 -0.035 0.000495323
v -0.0083 -0.035 0.000501098
v -0.0083 -0.035 0.000506821
v -0.0083 -0.035 0.000512477
v -0.0083 -0.035 0.000518054
v -0.0083 -0.035 0.000523539
v -0.0083 -0.035 0.000528919
v -0.0083 -0.035 0.000534183
v -0.0083 -0.035 0.000539318
v -0.0083 -0.035 0.000544313
v -0.0083 -0.035 0.000549157
v -0.0083 -0.035 0.000553841
v -0.0083 -0.035 0.000558355
v -0.0083 -0.035 0.000562689
v -0.0083 -0.035 0.000566835
v -0.0083 -0.035 0.000574533
v -0.0083 -0.035 0.000607276
v -0.0083 -0.035 0.000635804
v -0.0083 -0.035 0.000659948
v -0.0083 -0.035 0.000679587
v -0.0083 -0.035 0.000694649
v -0.0083 -0.035 0.000705101
v -0.0083 -0.035 0.000710954
v -0.0083 -0.035 0.002669332
v -0.0083 -0.035 0.002703712
v -0.0083 -0.035 0.006294297
v -0.0083 -0.035 0.007140058
v -0.0083 -0.035 0.008185316
v -0.0083 -0.035 0.008226692
v -0.008299922 -0.055 -0.006634999
v -0.008299867 -0.055 -0.006639191
v -0.008299218 -0.055 0.006649913
v -0.008299217 -0.035 -0.008246339
v -0.008299046 -0.055 0.006662424
v -0.008297697 -0.055 -0.006682951
v -0.00829734 -0.055 0.006693403
v -0.008296797 -0.055 -0.006705466
v -0.008296797 -0.041556466 -0.007645917
v -0.008296797 -0.035 -0.00830704
v -0.008295404 -0.035 0.008310334
v -0.008295161 -0.035 -0.008321849
v -0.008293926 -0.055 0.00673561
v -0.008293926 -0.041558862 0.007675893
v -0.008293926 -0.035 0.008337252
v -0.008291967 -0.055 -0.006749088
v -0.008291398 -0.055 0.006753327
v -0.008290078 -0.055 -0.006766149
v -0.008290078 -0.041561287 -0.007706262
v -0.008290078 -0.035 -0.008367862
v -0.008287551 -0.035 -0.008382525
v -0.008287116 -0.035 0.008385096
v -0.008284937 -0.055 0.006798624
v -0.008284937 -0.041563869 0.007738557
v -0.008284937 -0.035 0.008400413
v -0.008282594 -0.055 -0.006809466
v -0.008281294 -0.055 0.00681614
v -0.008279663 -0.055 -0.006826429
v -0.008279663 -0.041566078 -0.007766207
v -0.008279663 -0.035 -0.008428282
v -0.008276254 -0.035 -0.008442743
v -0.008275122 -0.035 0.008447719
v -0.008271995 -0.055 0.006860862
v -0.008271995 -0.041568816 0.007800449
v -0.008271995 -0.035 0.008462795
v -0.008269537 -0.055 -0.006869277
v -0.00826726 -0.055 0.006878089
v -0.008265566 -0.055 -0.006886078
v -0.008265566 -0.04157082 -0.007825525
v -0.008265566 -0.035 -0.008488069
v -0.008261289 -0.035 -0.008502274
v -0.008259233 -0.035 0.008509328
v -0.008255185 -0.055 0.006922017
v -0.008255185 -0.041573673 0.007861264
v -0.008255185 -0.035 0.008524091
v -0.008252823 -0.055 -0.006928294
v -0.00824938 -0.055 0.006938888
v -0.00824782 -0.055 -0.006944867
v -0.00824782 -0.041575491 -0.007883986
v -0.00824782 -0.035 -0.008546993
v -0.008242691 -0.035 -0.00856089
v -0.008239539 -0.035 0.00856967
v -0.008234598 -0.055 0.006981854
v -0.008234598 -0.041578431 0.007920768
v -0.008234598 -0.035 0.008584066
v -0.008232494 -0.055 -0.006986286
v -0.008227752 -0.055 0.006998305
v -0.00822647 -0.055 -0.007002567
v -0.00822647 -0.041580077 -0.007941366
v -0.00822647 -0.035 -0.008604827
v -0.008220509 -0.035 -0.008618363
v -0.008216143 -0.035 0.008628514
v -0.008210341 -0.055 0.007040147
v -0.008210341 -0.041583061 0.007978737
v -0.008210341 -0.035 0.008642494
v -0.008208607 -0.055 -0.007043028
v -0.008202485 -0.055 0.007056114
v -0.008201577 -0.055 -0.007058952
v -0.008201577 -0.041584559 -0.007997437
v -0.008201577 -0.035 -0.008661342
v -0.008194806 -0.035 -0.008674468
v -0.008189162 -0.035 0.008685641
v -0.008182531 -0.055 0.007096676
v -0.008182531 -0.041587554 0.008034952
v -0.008182531 -0.035 0.008699153
v -0.00818123 -0.055 -0.007098298
v -0.008173702 -0.055 0.007112099
v -0.008173213 -0.055 -0.007113801
v -0.008173213 -0.041588917 -0.008051981
v -0.008173213 -0.035 -0.008716318
v -0.008165659 -0.035 -0.008728984
v -0.008158724 -0.035 0.008740834
v -0.0081513 -0.055 0.007151231
v -0.0081513 -0.04159189 0.008089204
v -0.0081513 -0.035 0.008753835
v -0.008150449 -0.055 -0.007151875
v -0.008141536 -0.055 0.007166051
v -0.008141469 -0.055 -0.007166894
v -0.008141469 -0.041593134 -0.00810478
v -0.008141469 -0.035 -0.008769534
v -0.008133159 -0.035 -0.008781694
v -0.00812497 -0.035 0.008793891
v -0.008116791 -0.055 0.007203611
v -0.008116791 -0.041596055 0.008141293
v -0.008116791 -0.035 0.008806336
v -0.008116362 -0.055 -0.007203545
v -0.008106447 -0.055 -0.007218018
v -0.008106447 -0.041597199 -0.00815562
v -0.008106447 -0.035 -0.008820776
v -0.008106135 -0.055 0.007217773
v -0.008097412 -0.035 -0.008832385
v -0.00808805 -0.035 0.008844618
v -0.008079156 -0.055 0.007253626
v -0.008079156 -0.04160003 0.00819103
v -0.008079156 -0.035 0.008856467
v -0.008079079 -0.055 -0.007253098
v -0.008068261 -0.055 -0.007266965
v -0.008068261 -0.041601088 -0.008204295
v -0.008068261 -0.035 -0.008869836
v -0.008067653 -0.055 0.007267078
v -0.008058536 -0.035 -0.00888085
v -0.008048129 -0.035 0.008892831
v -0.008038727 -0.055 -0.007300331
v -0.008038562 -0.055 0.007301096
v -0.008038562 -0.0416038 0.008238235
v -0.008038562 -0.035 0.008904045
v -0.00802704 -0.055 -0.007313534
v -0.00802704 -0.041604787 -0.008250605
v -0.00802704 -0.035 -0.008916513
v -0.008026283 -0.055 0.007313765
v -0.008016675 -0.035 -0.008926877
v -0.008005439 -0.035 0.008938299
v -0.007995488 -0.055 -0.007345006
v -0.00799526 -0.055 0.007345774
v -0.00799526 -0.04160735 0.008282666
v -0.00799526 -0.035 0.008948827
v -0.007982992 -0.055 -0.007357471
v -0.007982992 -0.041608281 -0.008294297
v -0.007982992 -0.035 -0.008960551
v -0.007982213 -0.055 0.007357661
v -0.007971996 -0.035 -0.008970255
v -0.007960064 -0.035 0.008980967
v -0.007949443 -0.055 -0.007387005
v -0.007949282 -0.055 0.007387664
v -0.007949282 -0.041610681 0.008324322
v -0.007949282 -0.035 0.008990813
v -0.007936144 -0.055 -0.007398714
v -0.007936144 -0.04161156 -0.008335311
v -0.007936144 -0.035 -0.009001889
v -0.007935543 -0.055 0.007398701
v -0.007924571 -0.035 -0.009010881
v -0.007912215 -0.035 0.00902066
v -0.007900895 -0.055 0.007426538
v -0.007900895 -0.041613769 0.008362981
v -0.007900895 -0.035 0.009029778
v -0.007900762 -0.055 -0.00742614
v -0.007886724 -0.055 -0.007437022
v -0.007886724 -0.041614603 -0.008373406
v -0.007886724 -0.035 -0.009040285
v -0.007886519 -0.055 0.007436688
v -0.007874616 -0.035 -0.009048532
v -0.007862108 -0.035 0.009057225
v -0.007850295 -0.055 0.007462265
v -0.007850295 -0.041616607 0.00839851
v -0.007850295 -0.035 0.009065587
v -0.007849634 -0.055 -0.007462223
v -0.007835342 -0.055 0.007471492
v -0.007834908 -0.055 -0.007472229
v -0.007834908 -0.041617401 -0.008408418
v -0.007834908 -0.035 -0.009075573
v -0.00782231 -0.035 -0.009083042
v -0.007809949 -0.035 0.009090541
v -0.007797691 -0.055 0.007494727
v -0.007797691 -0.041619189 0.00843079
v -0.007797691 -0.035 0.009098124
v -0.007796246 -0.055 -0.007495094
v -0.007782221 -0.055 0.007503
v -0.007780885 -0.055 -0.007504179
v -0.007780885 -0.041619938 -0.00844019
v -0.007780885 -0.035 -0.009107597
v -0.007767843 -0.035 -0.009114258
v -0.007755947 -0.035 0.009120498
v -0.007743293 -0.055 0.007523818
v -0.007743293 -0.041621499 0.00845972
v -0.007743293 -0.035 0.009127282
v -0.007740793 -0.055 -0.007524604
v -0.007727369 -0.055 0.00753111
v -0.007724854 -0.055 -0.007532725
v -0.007724854 -0.041622207 -0.008468578
v -0.007724854 -0.035 -0.009136209
v -0.007711414 -0.035 -0.009142035
v -0.007700322 -0.035 0.009147003
v -0.007687321 -0.055 0.007549448
v -0.007687321 -0.041623536 0.008485207
v -0.007687321 -0.035 0.009152971
v -0.00768348 -0.055 -0.007550617
v -0.007671005 -0.055 0.007555735
v -0.007667022 -0.055 -0.007557735
v -0.007667022 -0.041624196 -0.008493449
v -0.007667022 -0.035 -0.009161277
v -0.007653234 -0.035 -0.009166244
v -0.007643292 -0.035 0.009169976
v -0.007629994 -0.055 0.007571539
v -0.007629994 -0.041625291 0.008507175
v -0.007629994 -0.035 0.009175113
v -0.007624521 -0.055 -0.007573009
v -0.007613351 -0.055 0.007576802
v -0.007607606 -0.055 -0.007579087
v -0.007607606 -0.041625891 -0.008514682
v -0.007607606 -0.035 -0.009182679
v -0.00759352 -0.035 -0.009186765
v -0.007585082 -0.035 0.00918935
v -0.007571538 -0.055 0.007590027
v -0.007571538 -0.041626763 0.008525562
v -0.007571538 -0.035 0.009193644
v -0.007564139 -0.055 -0.007591665
v -0.007554634 -0.055 0.007594253
v -0.007546832 -0.055 -0.007596674
v -0.007546832 -0.041627292 -0.008532171
v -0.007546832 -0.035 -0.009200306
v -0.0075325 -0.035 -0.009203492
v -0.00752592 -0.035 0.009205074
v -0.007512179 -0.055 0.007604866
v -0.007512179 -0.04162794 0.008540317
v -0.007512179 -0.035 0.009208517
v -0.007502563 -0.055 -0.00760649
v -0.007495079 -0.055 0.007608043
v -0.007484932 -0.055 -0.007610399
v -0.007484932 -0.041628379 -0.008545821
v -0.007484932 -0.035 -0.009214063
v -0.007470405 -0.035 -0.009216332
v -0.007466033 -0.035 0.00921711
v -0.007452146 -0.055 0.00761602
v -0.007452146 -0.041628826 0.008551409
v -0.007452146 -0.035 0.009219696
v -0.007440031 -0.055 -0.007617396
v -0.007434917 -0.055 0.007618142
v -0.007422145 -0.055 -0.007620184
v -0.007422145 -0.041629158 -0.00855555
v -0.007422145 -0.035 -0.00922387
v -0.007407481 -0.035 -0.009225209
v -0.007405652 -0.035 0.009225436
v -0.007391667 -0.055 0.007623469
v -0.007391667 -0.041629419 0.008558817
v -0.007391667 -0.035 0.009227163
v -0.007388914 -0.055 0.007624191
v -0.007376838 -0.055 -0.007624311
v -0.007371767 -0.055 0.007625247
v -0.007358771 -0.055 -0.007625957
v -0.00735873 -0.041629624 -0.008561293
v -0.007358697 -0.035 -0.009229661
v -0.007344972 -0.035 0.009230046
v -0.007336967 -0.035 -0.009212742
v -0.007331009 -0.04162972 0.008562534
v -0.007330949 -0.035 0.009230912
v -0.007321784 -0.035 0.009221321
v -0.007317169 -0.055 0.00763847
v -0.007314413 -0.055 -0.007636622
v -0.0073 -0.055 -0.007636956
v -0.0073 -0.055 0.00763583
v -0.0073 -0.053719696 0.007731435
v -0.0073 -0.053269792 -0.007761125
v -0.0073 -0.041629754 -0.008562994
v -0.0073 -0.041629754 0.008562994
v -0.0073 -0.039746799 0.008719932
v -0.0073 -0.038392782 -0.008841903
v -0.0073 -0.035 -0.009213868
v -0.0073 -0.035 0.009221698
v -0.005995037 -0.055 0.007641694
v -0.005677525 -0.055 0.007642435
v -0.005647091 -0.055 0.007642493
v -0.005618176 -0.055 0.007642542
v -0.005616773 -0.055 0.007642545
v -0.005589534 -0.055 0.007642586
v -0.005586763 -0.055 0.00764259
v -0.005561457 -0.055 0.007642624
v -0.005557448 -0.055 0.007642629
v -0.005534278 -0.055 0.007642655
v -0.005529168 -0.055 0.007642661
v -0.005508395 -0.055 0.007642681
v -0.005305613 -0.055 -0.007641425
v -0.005275015 -0.055 -0.00764149
v -0.005273609 -0.055 -0.007641493
v -0.005239817 -0.055 -0.007641558
v -0.005239559 -0.055 -0.007641558
v -0.005206372 -0.055 -0.007641615
v -0.00520441 -0.055 -0.007641618
v -0.00517356 -0.055 -0.007641664
v -0.005169953 -0.055 -0.007641669
v -0.005141576 -0.055 -0.007641705
v -0.005136574 -0.055 -0.007641711
v -0.005110906 -0.055 -0.007641738
v -0.005104653 -0.055 -0.007641743
v -0.005081886 -0.055 -0.007641762
v -0.005074564 -0.055 -0.007641766
v -0.005058122 -0.055 -0.007641776
v -0.005046658 -0.055 -0.00764178
v -0.005032799 -0.055 -0.007641784
v -0.005021257 -0.055 -0.007641784
v -0.00483052 -0.035 0.009216157
v -0.00436923 -0.035 0.009212936
v -0.00416219 -0.035 -0.009211883
v -0.004143806 -0.035 -0.00921182
v -0.003530616 -0.035 0.009226984
v -0.003480618 -0.035 0.009226548
v -0.003433288 -0.035 0.009226172
v -0.003431012 -0.035 0.009226155
v -0.003386541 -0.035 0.009225838
v -0.003382034 -0.035 0.009225808
v -0.003340806 -0.035 0.009225549
v -0.003334264 -0.035 0.00922551
v -0.003296577 -0.035 0.009225305
v -0.003288201 -0.035 0.009225263
v -0.003254433 -0.035 0.009225111
v -0.002233274 -0.035 -0.009254738
v -0.00220778 -0.035 -0.009254569
v -0.002185793 -0.035 -0.009254442
v -0.002165978 -0.035 -0.009254344
v -0.002159001 -0.035 -0.009254313
v -0.001206389 -0.048720028 -0.008057646
v -0.001206389 -0.048720028 0.008057646
v -0.000659192 -0.049255881 -0.008022532
v -0.000659192 -0.049255881 0.008022532
v -0.000659192 -0.048184175 -0.008092974
v -0.000659192 -0.048184175 0.008092974
v -0.000653052 -0.049261827 0.008022143
v -0.000653045 -0.048178222 -0.008093368
v -0.000610718 -0.049299393 0.008019688
v -0.000610718 -0.048140664 -0.008095854
v -0.000610644 -0.049299452 -0.008019684
v -0.000610643 -0.0481406 0.008095858
v -0.000608963 -0.049300831 0.008019594
v -0.000608954 -0.048139218 -0.00809595
v -0.000561147 -0.049336813 -0.008017244
v -0.000561144 -0.048103239 0.008098332
v -0.000559276 -0.049338102 0.008017159
v -0.000559268 -0.048101947 -0.008098418
v -0.00055865 -0.049338534 -0.008017131
v -0.00055865 -0.049338534 0.008017131
v -0.00055865 -0.048101522 -0.008098446
v -0.00055865 -0.048101522 0.008098446
v -0.000508659 -0.049370002 -0.008015077
v -0.000508655 -0.048070055 0.008100531
v -0.000506787 -0.049371075 0.008015006
v -0.00050678 -0.048068978 -0.008100602
v -0.000503383 -0.049373008 -0.00801488
v -0.000503383 -0.049373008 0.00801488
v -0.000503383 -0.048067048 -0.00810073
v -0.000503383 -0.048067048 0.00810073
v -0.000453527 -0.049398769 -0.008013198
v -0.000453524 -0.048041288 0.008102437
v -0.000451825 -0.049399566 0.008013146
v -0.00045182 -0.048040491 -0.008102491
v -0.000445333 -0.049402561 -0.00801295
v -0.000445333 -0.049402561 0.00801295
v -0.000445333 -0.048037495 -0.008102689
v -0.000445333 -0.048037495 0.008102689
v -0.000396163 -0.049422882 -0.008011624
v -0.000396161 -0.048017174 0.008104037
v -0.00039449 -0.049423505 0.008011583
v -0.000394487 -0.048016552 -0.008104078
v -0.000384938 -0.049426962 -0.008011358
v -0.000384938 -0.049426962 0.008011358
v -0.000384938 -0.048013095 -0.008104307
v -0.000384938 -0.048013095 0.008104307
v -0.000337242 -0.04944209 -0.00801037
v -0.000337242 -0.047997966 0.008105311
v -0.00033541 -0.047997456 -0.008105344
v -0.000335409 -0.049442604 0.008010337
v -0.000322653 -0.049446028 -0.008010113
v -0.000322653 -0.049446028 0.008010113
v -0.000322653 -0.047994029 -0.008105571
v -0.000322653 -0.047994029 0.008105571
v -0.000276922 -0.047983687 0.008106258
v -0.000276919 -0.049456373 -0.008009438
v -0.000275078 -0.04798333 -0.008106281
v -0.000275073 -0.049456727 0.008009415
v -0.000269486 -0.047982287 0.008106351
v -0.000269473 -0.049457774 -0.008009347
v -0.000258948 -0.049459621 -0.008009226
v -0.000258948 -0.049459621 0.008009226
v -0.000258948 -0.047980435 -0.008106474
v -0.000258948 -0.047980435 0.008106474
v -0.00022194 -0.049464907 0.008008881
v -0.000221874 -0.047975142 -0.008106825
v -0.000208081 -0.047973651 0.008106924
v -0.000208064 -0.049466405 -0.008008784
v -0.000194304 -0.049467634 -0.008008704
v -0.000194304 -0.049467634 0.008008704
v -0.000194304 -0.047972422 -0.008107006
v -0.000194304 -0.047972422 0.008107006
v -0.000160002 -0.049469594 0.008008575
v -0.000159939 -0.047970463 -0.008107135
v -0.000152675 -0.038775697 -0.008806548
v -0.000152675 -0.038775697 0.008806548
v -0.000146065 -0.04797012 0.008107158
v -0.000146043 -0.04946994 -0.008008553
v -0.000129209 -0.049470011 -0.008008548
v -0.000129209 -0.049470011 0.008008548
v -0.000129209 -0.047970045 -0.008107163
v -0.000129209 -0.047970045 0.008107163
v -9.7873e-05 -0.049469136 0.008008605
v -9.7815e-05 -0.047970925 -0.008107105
v -8.4209e-05 -0.047971714 0.008107052
v -8.4182e-05 -0.049468342 -0.008008657
v -6.4153e-05 -0.049466725 -0.008008762
v -6.4153e-05 -0.049466725 0.008008762
v -6.4153e-05 -0.047973331 -0.008106945
v -6.4153e-05 -0.047973331 0.008106945
v -3.6094e-05 -0.049463551 0.00800897
v -3.6041e-05 -0.047976512 -0.008106734
v -2.2634e-05 -0.047978409 0.008106608
v -2.2603e-05 -0.04946164 -0.008009094
v 3.73e-07 -0.049457811 -0.008009344
v 3.73e-07 -0.049457811 0.008009344
v 3.73e-07 -0.047982246 -0.008106354
v 3.73e-07 -0.047982246 0.008106354
v 2.4915e-05 -0.049452901 0.008009665
v 2.4963e-05 -0.047987163 -0.008106027
v 3.8288e-05 -0.047990192 0.008105827
v 3.8322e-05 -0.049449857 -0.008009863
v 6.3881e-05 -0.049443331 -0.00801029
v 6.3881e-05 -0.049443331 0.00801029
v 6.3881e-05 -0.047996726 -0.008105393
v 6.3881e-05 -0.047996726 0.008105393
v 8.4873e-05 -0.049437243 0.008010686
v 8.4919e-05 -0.048002824 -0.008104988
v 9.8132e-05 -0.048007 0.008104711
v 9.8169e-05 -0.049433045 -0.00801096
v 0.000125894 -0.049423393 -0.008011591
v 0.000125894 -0.049423393 0.008011591
v 0.000125894 -0.048016664 -0.00810407
v 0.000125894 -0.048016664 0.00810407
v 0.00014345 -0.049416646 0.008012031
v 0.000143493 -0.048023429 -0.008103621
v 0.000156257 -0.048028659 0.008103275
v 0.000156297 -0.049411383 -0.008012375
v 0.000156426 -0.049411327 -0.008012378
v 0.000156519 -0.048028767 0.008103267
v 0.000160556 -0.048030481 -0.008103154
v 0.00016058 -0.049409565 0.008012493
v 0.000185943 -0.04939815 -0.008013238
v 0.000185943 -0.04939815 0.008013238
v 0.000185943 -0.048041906 -0.008102397
v 0.000185943 -0.048041906 0.008102397
v 0.00021248 -0.049384966 -0.008014099
v 0.000212567 -0.048055135 0.008101519
v 0.000216595 -0.048057254 -0.008101379
v 0.000216618 -0.049382791 0.008014241
v 0.000238205 -0.03839292 -0.00884189
v 0.000243575 -0.049367793 -0.00801522
v 0.000243575 -0.049367793 0.00801522
v 0.000243575 -0.048072264 -0.008100384
v 0.000243575 -0.048072264 0.008100384
v 0.000266257 -0.049354013 -0.00801612
v 0.000266338 -0.048086096 0.008099467
v 0.000270153 -0.048088521 -0.008099307
v 0.000270175 -0.049351521 0.008016283
v 0.000298356 -0.049332552 -0.008017522
v 0.000298356 -0.049332552 0.008017522
v 0.000298356 -0.048107505 -0.008098049
v 0.000298356 -0.048107505 0.008098049
v 0.00031739 -0.049318649 -0.00801843
v 0.000317467 -0.048121467 0.008097125
v 0.000320987 -0.048124142 -0.008096948
v 0.000321007 -0.0493159 0.00801861
v 0.000349871 -0.049292687 -0.008020126
v 0.000349871 -0.048147369 0.00809541
v 0.000349872 -0.049292687 0.008020126
v 0.000349872 -0.048147369 -0.00809541
v 0.000365416 -0.049279168 -0.008021009
v 0.000365487 -0.048160952 0.008094511
v 0.000368855 -0.04816398 -0.008094311
v 0.000368872 -0.049276061 0.008021213
v 0.000394521 -0.039311554 -0.008758231
v 0.000394521 -0.039311554 0.008758231
v 0.000394521 -0.038239844 -0.008856224
v 0.000394521 -0.038239844 0.008856224
v 0.000397734 -0.049248502 -0.008023013
v 0.000397734 -0.049248502 0.008023014
v 0.000397734 -0.048191555 -0.008092486
v 0.000397734 -0.048191555 0.008092486
v 0.000401225 -0.039318036 0.008757655
v 0.00040989 -0.049235974 -0.008023833
v 0.000409956 -0.048204154 0.008091653
v 0.000413202 -0.0482076 -0.008091425
v 0.000413217 -0.049232442 0.008024064
v 0.000430024 -0.038207244 -0.008859293
v 0.000441582 -0.049200334 -0.008026163
v 0.000441582 -0.049200334 0.008026163
v 0.000441582 -0.048239723 -0.0080893
v 0.000441582 -0.048239723 0.0080893
v 0.000442995 -0.038196336 -0.00886032
v 0.000442996 -0.039355066 0.008754365
v 0.00044307 -0.039355125 -0.00875436
v 0.000443083 -0.038196262 0.008860327
v 0.000445344 -0.039356984 0.008754195
v 0.000447474 -0.055 -0.007642015
v 0.000450717 -0.049189162 -0.008026894
v 0.000450778 -0.048250969 0.008088557
v 0.000453729 -0.048254676 -0.008088312
v 0.000453741 -0.049185365 0.008027142
v 0.000459434 -0.055 -0.007642014
v 0.000472377 -0.055 -0.00764201
v 0.000478714 -0.038168728 -0.008862924
v 0.000481085 -0.049148541 -0.008029551
v 0.000481085 -0.049148541 0.008029551
v 0.000481085 -0.048291516 -0.008085878
v 0.000481085 -0.048291516 0.008085878
v 0.000483546 -0.055 -0.007642004
v 0.000487602 -0.049139023 -0.008030173
v 0.000487658 -0.048301116 0.008085243
v 0.000490242 -0.048304979 -0.008084988
v 0.000490252 -0.049135063 0.008030432
v 0.000492567 -0.039392486 -0.008751047
v 0.000492592 -0.038158894 0.008863852
v 0.00049501 -0.03939417 0.008750898
v 0.000495062 -0.038157195 -0.008864013
v 0.000495063 -0.039394204 -0.008750895
v 0.000495063 -0.038157191 0.008864013
v 0.000497897 -0.048316736 0.008084211
v 0.000498094 -0.049123012 -0.008031221
v 0.000498159 -0.055 -0.007641995
v 0.000508298 -0.055 -0.007641987
v 0.000515945 -0.049093515 0.008033152
v 0.000515945 -0.048346542 -0.008082244
v 0.000515946 -0.049093515 -0.008033152
v 0.000515946 -0.048346542 0.008082244
v 0.000519417 -0.048352655 -0.00808184
v 0.000519592 -0.049087092 0.008033572
v 0.000524528 -0.055 -0.007641971
v 0.00052907 -0.048370387 0.00808067
v 0.00052924 -0.049069345 -0.008034734
v 0.000530294 -0.038134452 -0.008866162
v 0.00053103 -0.055 0.007642948
v 0.000533538 -0.055 -0.00764196
v 0.000534698 -0.055 0.007642953
v 0.000545038 -0.03942566 -0.00874811
v 0.000545071 -0.038125716 0.008866988
v 0.000545899 -0.049035672 0.008036939
v 0.000545899 -0.048404384 -0.008078427
v 0.0005459 -0.049035672 -0.008036939
v 0.0005459 -0.048404384 0.008078427
v 0.00054655 -0.055 0.007642966
v 0.000547458 -0.039427049 0.008747988
v 0.000547642 -0.048408169 -0.008078177
v 0.00054779 -0.049031567 0.008037208
v 0.000548757 -0.055 0.007642968
v 0.000550329 -0.038122717 -0.008867272
v 0.00055033 -0.039428681 -0.008747844
v 0.00055033 -0.038122717 0.008867272
v 0.000550331 -0.039428681 0.008747844
v 0.000551187 -0.055 -0.007641937
v 0.000551412 -0.055 0.00764297
v 0.00055573 -0.048426501 0.008076968
v 0.000555871 -0.049013223 -0.008038409
v 0.00055897 -0.055 -0.007641925
v 0.00056582 -0.055 0.007642979
v 0.000566574 -0.055 -0.007641914
v 0.000569584 -0.055 0.00764298
v 0.000570722 -0.048975449 -0.008040885
v 0.000570722 -0.048975449 0.008040885
v 0.000570722 -0.048464607 -0.008074456
v 0.000570722 -0.048464607 0.008074456
v 0.000571132 -0.048465744 -0.00807438
v 0.000571252 -0.048973981 0.00804098
v 0.000577694 -0.048484746 0.008073128
v 0.000577807 -0.048954971 -0.008042227
v 0.000577844 -0.055 -0.007641894
v 0.000584068 -0.055 0.007642983
v 0.000584418 -0.038104597 -0.008868988
v 0.000589012 -0.055 0.007642983
v 0.000589778 -0.048525088 -0.008070471
v 0.000589869 -0.04891463 0.008044872
v 0.000590225 -0.0489133 -0.008044959
v 0.000590225 -0.0489133 0.008044959
v 0.000590225 -0.048526756 -0.008070361
v 0.000590225 -0.048526756 0.008070361
v 0.000591852 -0.055 -0.007641868
v 0.00059478 -0.048544724 0.008069177
v 0.000594863 -0.048894987 -0.00804616
v 0.000600136 -0.039454415 -0.00874557
v 0.00060017 -0.038096968 0.00886971
v 0.000602389 -0.03945547 0.008745477
v 0.000603245 -0.055 0.007642981
v 0.000603455 -0.048585851 -0.00806647
v 0.000603518 -0.048853859 0.008048858
v 0.000604209 -0.055 -0.007641843
v 0.000604262 -0.048849691 -0.008049131
v 0.000604262 -0.048849691 0.008049131
v 0.000604262 -0.048590366 -0.008066173
v 0.000604262 -0.048590366 0.008066173
v 0.00060681 -0.048605833 0.008065155
v 0.000606864 -0.048833873 -0.008050169
v 0.000608379 -0.038093168 -0.00887007
v 0.00060838 -0.03945823 -0.008745233
v 0.00060838 -0.038093168 0.00887007
v 0.000608381 -0.03945823 0.008745233
v 0.000609473 -0.055 0.007642979
v 0.000612044 -0.048647538 -0.008062411
v 0.000612077 -0.048792172 0.008052907
v 0.000612726 -0.048785105 -0.008053371
v 0.000612726 -0.048785105 0.008053371
v 0.000612726 -0.048654951 -0.008061924
v 0.000612726 -0.048654951 0.008061924
v 0.00061373 -0.04866774 0.008061083
v 0.000613755 -0.048771966 -0.008054234
v 0.000615484 -0.048709724 -0.008058323
v 0.000615489 -0.048729982 0.008056992
v 0.000615555 -0.048720028 -0.008057646
v 0.000615555 -0.048720028 0.008057646
v 0.000616699 -0.055 -0.007641815
v 0.000623236 -0.055 0.007642973
v 0.000630011 -0.055 -0.007641783
v 0.000630729 -0.055 0.007642968
v 0.00064098 -0.055 -0.007641754
v 0.000640985 -0.038079239 -0.00887139
v 0.000643837 -0.055 0.007642958
v 0.000652531 -0.055 0.007642949
v 0.000654991 -0.055 -0.007641715
v 0.000657423 -0.039478503 -0.008743444
v 0.00065744 -0.038072888 0.008871993
v 0.000659667 -0.039479338 0.00874337
v 0.000664468 -0.055 -0.007641686
v 0.000664827 -0.055 0.007642936
v 0.000668775 -0.038068768 -0.008872384
v 0.000668776 -0.039482631 -0.008743079
v 0.000668776 -0.039482631 0.008743079
v 0.000668776 -0.038068768 0.008872384
v 0.000674623 -0.055 0.007642924
v 0.000678916 -0.055 -0.007641638
v 0.00068582 -0.055 0.007642908
v 0.000686886 -0.055 -0.007641611
v 0.000696755 -0.055 0.007642892
v 0.000699429 -0.038058642 -0.008873345
v 0.000701576 -0.055 -0.007641555
v 0.000706792 -0.055 0.007642875
v 0.000708063 -0.055 -0.007641529
v 0.000716257 -0.038053699 0.008873815
v 0.000716259 -0.0394977 -0.00874175
v 0.000718639 -0.039498366 0.008741692
v 0.000718678 -0.055 0.007642853
v 0.000722786 -0.055 -0.007641464
v 0.00072752 -0.055 0.007642835
v 0.000727916 -0.055 -0.007641441
v 0.00073106 -0.038049698 -0.008874195
v 0.000731061 -0.039501701 -0.008741398
v 0.000731061 -0.039501701 0.008741398
v 0.000731061 -0.038049698 0.008874195
v 0.000740159 -0.055 0.007642807
v 0.00074239 -0.055 -0.007641368
v 0.000744091 -0.055 -0.007641358
v 0.000747804 -0.055 0.007642789
v 0.000759228 -0.038042974 -0.008874834
v 0.000760261 -0.055 -0.007641265
v 0.000760978 -0.055 0.007642755
v 0.000761062 -0.055 -0.00764126
v 0.000767389 -0.055 0.007642738
v 0.000776495 -0.038039412 0.008875172
v 0.000776516 -0.039511986 -0.008740492
v 0.000778856 -0.039512437 0.008740452
v 0.000780934 -0.055 0.007642697
v 0.000785376 -0.038037747 -0.00887533
v 0.00078585 -0.038037661 0.008875338
v 0.000785927 -0.039513752 -0.008740337
v 0.00078611 -0.055 0.007642681
v 0.000794766 -0.039515294 -0.008740201
v 0.000794766 -0.039515294 0.008740201
v 0.000794766 -0.038036104 -0.008875486
v 0.000794766 -0.038036104 0.008875486
v 0.00079985 -0.055 0.007642634
v 0.000803886 -0.055 0.007642619
v 0.000817571 -0.055 0.007642565
v 0.000820582 -0.055 0.007642553
v 0.000825662 -0.055 0.00764253
v 0.000832765 -0.039520692 0.008739726
v 0.000833966 -0.055 0.007642492
v 0.000840662 -0.055 0.007642458
v 0.000846637 -0.038029224 -0.00887614
v 0.000847164 -0.038029172 0.008876146
v 0.000847272 -0.039522234 -0.00873959
v 0.000859409 -0.039523307 -0.008739496
v 0.000859409 -0.039523307 0.008739496
v 0.000859409 -0.038028091 -0.008876248
v 0.000859409 -0.038028091 0.008876248
v 0.000894649 -0.039525293 0.008739321
v 0.000908563 -0.038025774 -0.008876469
v 0.000908962 -0.03802577 0.008876469
v 0.000909131 -0.039525632 -0.008739291
v 0.000924505 -0.03952568 -0.008739286
v 0.000924505 -0.03952568 0.008739286
v 0.000924505 -0.038025718 -0.008876474
v 0.000924505 -0.038025718 0.008876474
v 0.000956643 -0.039524768 0.008739367
v 0.00097047 -0.03802745 -0.00887631
v 0.000970668 -0.038027462 0.008876308
v 0.000970873 -0.039523922 -0.008739442
v 0.000989561 -0.039522398 -0.008739575
v 0.000989561 -0.039522398 0.008739575
v 0.000989561 -0.038029 -0.008876162
v 0.000989561 -0.038029 0.008876162
v 0.001018287 -0.039519135 0.008739863
v 0.001031936 -0.038034208 -0.008875666
v 0.001032128 -0.038034238 0.008875663
v 0.001032363 -0.039517123 -0.00874004
v 0.001054087 -0.039513484 -0.00874036
v 0.001054087 -0.039513484 0.00874036
v 0.001054087 -0.038037915 -0.008875314
v 0.001054087 -0.038037915 0.008875314
v 0.001079167 -0.039508455 0.008740803
v 0.001092578 -0.038045999 -0.008874546
v 0.001092931 -0.038046081 0.008874538
v 0.001093193 -0.039505254 -0.008741085
v 0.001117596 -0.039499 -0.008741636
v 0.001117596 -0.039499 0.008741636
v 0.001117596 -0.038052395 -0.008873939
v 0.001117596 -0.038052395 0.008873939
v 0.001139117 -0.039492752 0.008742187
v 0.001152296 -0.038062818 -0.008872949
v 0.001152632 -0.03806293 0.008872938
v 0.001152925 -0.039488375 -0.008742573
v 0.001179608 -0.039479066 0.008743394
v 0.001179609 -0.039479066 -0.008743394
v 0.001179609 -0.038072333 -0.008872046
v 0.001179609 -0.038072333 0.008872046
v 0.001197607 -0.039472137 0.008744005
v 0.001210446 -0.038084529 -0.008870889
v 0.001210454 -0.038084533 0.008870889
v 0.001210507 -0.039466843 -0.008744472
v 0.001214771 -0.039465029 0.008744632
v 0.001233079 -0.055 0.007641863
v 0.001233183 -0.055 -0.00764054
v 0.001238217 -0.055 0.007641843
v 0.001239553 -0.055 -0.007640514
v 0.001239657 -0.038097575 -0.008869653
v 0.001239658 -0.039453823 -0.008745622
v 0.001239658 -0.039453823 0.008745622
v 0.001239658 -0.038097575 0.008869653
v 0.001242666 -0.055 -0.007636972
v 0.001244461 -0.055 0.007641773
v 0.001251373 -0.055 -0.007637706
v 0.001261806 -0.03810849 -0.008868619
v 0.001266408 -0.038110871 0.008868393
v 0.001266475 -0.03944049 -0.0087468
v 0.001270512 -0.055 -0.007637488
v 0.001270512 -0.055 0.007637488
v 0.001270722 -0.039438255 0.008746997
v 0.001291188 -0.055 -0.007637077
v 0.001291188 -0.055 0.007637077
v 0.00129729 -0.039423466 -0.008748305
v 0.00129729 -0.039423466 0.008748305
v 0.00129729 -0.038127933 -0.008866779
v 0.00129729 -0.038127933 0.008866779
v 0.001313188 -0.055 -0.007636442
v 0.00131571 -0.038139042 -0.008865728
v 0.001320122 -0.038141809 0.008865466
v 0.001320195 -0.039409544 -0.008749537
v 0.001321075 -0.055 0.007636372
v 0.001324209 -0.039406985 0.008749763
v 0.00134273 -0.055 -0.007635752
v 0.001343087 -0.055 0.007635736
v 0.00135207 -0.039388221 -0.008751425
v 0.00135207 -0.039388221 0.008751425
v 0.00135207 -0.038163178 -0.008863448
v 0.00135207 -0.038163178 0.008863448
v 0.001365827 -0.055 -0.007634863
v 0.001366184 -0.055 0.007634847
v 0.00136702 -0.038174018 -0.008862425
v 0.001368071 -0.053718649 0.007731891
v 0.001371213 -0.038177162 0.008862128
v 0.001371284 -0.03937418 -0.008752669
v 0.001375068 -0.039371304 0.008752924
v 0.001389746 -0.055 -0.007633704
v 0.001390104 -0.055 0.007633687
v 0.001403586 -0.039348356 -0.008754961
v 0.001403586 -0.039348356 0.008754961
v 0.001403586 -0.038203042 -0.008859688
v 0.001403586 -0.038203042 0.008859688
v 0.001414208 -0.055 -0.007632266
v 0.001414566 -0.055 0.007632249
v 0.001415397 -0.038213242 -0.008858727
v 0.001415533 -0.053269569 -0.007761508
v 0.001419126 -0.038216554 0.008858415
v 0.00141921 -0.03933477 -0.008756167
v 0.001422901 -0.039331447 0.008756462
v 0.001438918 -0.055 -0.007630553
v 0.001439276 -0.055 0.007630537
v 0.001451448 -0.039304174 -0.008758888
v 0.001451448 -0.038247224 -0.008855531
v 0.001451448 -0.038247224 0.008855531
v 0.001451449 -0.039304174 0.008758888
v 0.001460311 -0.038256302 -0.008854678
v 0.001463592 -0.038259741 0.008854355
v 0.001463661 -0.039291583 -0.008760009
v 0.001467217 -0.039287806 0.008760345
v 0.00146908 -0.055 -0.007628109
v 0.001469438 -0.055 0.007628092
v 0.001495296 -0.039256003 -0.008763179
v 0.001495296 -0.038295396 -0.008851008
v 0.001495296 -0.038295396 0.008851008
v 0.001495297 -0.039256003 0.008763179
v 0.001498965 -0.055 -0.007626073
v 0.001499328 -0.055 0.00762604
v 0.001501461 -0.038302887 -0.008850306
v 0.001504435 -0.038306572 0.008849962
v 0.001504486 -0.039244764 -0.008764182
v 0.001507724 -0.039240696 0.008764545
v 0.001529917 -0.055 0.007622536
v 0.001534799 -0.03920421 -0.008767805
v 0.001534799 -0.038347188 -0.00884616
v 0.001534799 -0.038347188 0.00884616
v 0.0015348 -0.03920421 0.008767805
v 0.001538686 -0.038352825 -0.008845633
v 0.001541346 -0.038356747 0.008845267
v 0.001541379 -0.039194603 -0.008768665
v 0.001544265 -0.039190281 0.008769051
v 0.001545247 -0.055 -0.007621561
v 0.00155258 -0.038373932 0.008843661
v 0.001552768 -0.039177172 -0.008770225
v 0.001563099 -0.051874693 -0.007852542
v 0.001564003 -0.038392533 -0.008841926
v 0.001569659 -0.039149188 0.008772733
v 0.001569659 -0.038402211 -0.008841024
v 0.00156966 -0.039149184 -0.008772733
v 0.00156966 -0.038402215 0.008841023
v 0.001571634 -0.038405672 -0.008840701
v 0.001571756 -0.039145511 0.008773062
v 0.001574586 -0.055 -0.007618221
v 0.001576226 -0.055 0.007618021
v 0.001583646 -0.038427699 0.008838649
v 0.001583796 -0.039123412 -0.008775046
v 0.001599613 -0.039091345 0.008777928
v 0.001599613 -0.038460054 -0.00883564
v 0.001599614 -0.039091341 -0.008777928
v 0.001599614 -0.038460057 0.00883564
v 0.001600121 -0.038461152 -0.008835537
v 0.001600218 -0.039090037 0.008778045
v 0.001605581 -0.055 0.007614679
v 0.001607694 -0.055 -0.007614002
v 0.001610203 -0.038483962 0.00883342
v 0.001610317 -0.039067164 -0.008780103
v 0.001623872 -0.038518727 -0.008830195
v 0.001623946 -0.039032467 0.008783231
v 0.001624435 -0.039031122 0.008783353
v 0.001624435 -0.038520277 -0.008830052
v 0.001624436 -0.039031118 -0.008783353
v 0.001624436 -0.03852028 0.008830052
v 0.00163205 -0.038542368 0.008828007
v 0.001632132 -0.039008778 -0.008785369
v 0.001638155 -0.055 -0.007610533
v 0.001638707 -0.055 0.007610457
v 0.00164278 -0.038578134 -0.0088247
v 0.001642832 -0.038973071 0.008788597
v 0.001643939 -0.038968969 -0.008788968
v 0.001643939 -0.038968969 0.008788968
v 0.001643939 -0.038582429 -0.008824304
v 0.001643939 -0.038582429 0.008824304
v 0.001648996 -0.038602497 0.008822451
v 0.00164905 -0.03894867 -0.008790807
v 0.0016567 -0.038638968 -0.00881909
v 0.001656735 -0.03891224 0.00879411
v 0.001657975 -0.038646035 -0.00881844
v 0.001657976 -0.03890536 -0.008794735
v 0.001657976 -0.03890536 0.008794735
v 0.001657976 -0.038646035 0.00881844
v 0.001660864 -0.038663734 0.008816812
v 0.001660896 -0.038887452 -0.008796361
v 0.001665515 -0.038700752 -0.008813412
v 0.001665534 -0.038850456 0.008799727
v 0.00166644 -0.038840774 -0.008800609
v 0.00166644 -0.038840774 0.008800609
v 0.00166644 -0.03871062 -0.008812507
v 0.00166644 -0.03871062 0.008812507
v 0.001667606 -0.038725786 0.008811116
v 0.001667619 -0.038825415 -0.008802009
v 0.001669162 -0.03876305 -0.008807705
v 0.001669165 -0.038788155 0.008805409
v 0.001669269 -0.038775697 -0.008806548
v 0.001669269 -0.038775697 0.008806548
v 0.001702536 -0.055 -0.007600953
v 0.001703089 -0.055 0.007600877
v 0.001731262 -0.055 -0.007596087
v 0.001731814 -0.055 0.007596011
v 0.001762088 -0.055 -0.007591124
v 0.001762831 -0.055 0.007590986
v 0.001794061 -0.055 0.0075844
v 0.0019433 -0.035 -0.009254317
v 0.001960351 -0.055 -0.007547326
v 0.001974616 -0.035 -0.009254187
v 0.001982468 -0.035 -0.009254166
v 0.001991492 -0.055 -0.0075408
v 0.001992428 -0.055 0.00754058
v 0.002013178 -0.035 -0.009254122
v 0.002022737 -0.055 -0.00753268
v 0.002023302 -0.035 -0.009254121
v 0.002023862 -0.055 0.007532358
v 0.002052925 -0.035 -0.009254154
v 0.002055278 -0.055 0.007522487
v 0.002065412 -0.035 -0.009254183
v 0.002093506 -0.035 -0.009254281
v 0.002108394 -0.035 -0.009254351
v 0.00213459 -0.035 -0.009254504
v 0.002151835 -0.035 -0.009254624
v 0.002176038 -0.035 -0.009254821
v 0.00219532 -0.035 -0.009255
v 0.002196486 -0.035 0.009225072
v 0.002202982 -0.035 0.009225032
v 0.002216031 -0.055 -0.007471972
v 0.002217337 -0.035 -0.00925523
v 0.002223451 -0.035 0.009224927
v 0.002227762 -0.035 0.00922491
v 0.0022319 -0.035 0.009224894
v 0.002247353 -0.055 -0.007462195
v 0.002248667 -0.055 0.007461749
v 0.002256783 -0.035 0.009224824
v 0.002262734 -0.035 0.009224813
v 0.002278539 -0.055 -0.007450759
v 0.00228003 -0.055 0.007450168
v 0.002287307 -0.035 0.009224789
v 0.002295174 -0.035 0.009224788
v 0.002318968 -0.035 0.009224806
v 0.002328887 -0.035 0.009224822
v 0.002351607 -0.035 0.009224875
v 0.002362951 -0.055 -0.007418285
v 0.002363525 -0.035 0.009224912
v 0.002364444 -0.055 0.007417693
v 0.002384929 -0.035 0.009224995
v 0.002398729 -0.035 0.009225059
v 0.00241861 -0.035 0.009225166
v 0.002430488 -0.055 -0.007389529
v 0.002431982 -0.055 0.007388937
v 0.002434137 -0.035 0.009225261
v 0.002452125 -0.035 0.009225384
v 0.002463135 -0.055 0.007375636
v 0.002465457 -0.055 -0.007373634
v 0.002496455 -0.055 -0.007360493
v 0.002498118 -0.055 0.007359735
v 0.002528873 -0.055 0.007344732
v 0.002581697 -0.055 -0.00731875
v 0.002612327 -0.055 -0.007303916
v 0.002620384 -0.055 0.007299748
v 0.00264889 -0.041671589 -0.008559654
v 0.00264889 -0.041671589 0.008559654
v 0.002650623 -0.055 0.007283045
v 0.002706238 -0.055 -0.007252739
v 0.002718102 -0.035 -0.009208692
v 0.002730734 -0.035 -0.00920876
v 0.002736366 -0.055 -0.007236223
v 0.002738333 -0.055 0.007235075
v 0.002740439 -0.035 -0.009208817
v 0.002756216 -0.035 -0.009208919
v 0.002764522 -0.035 -0.009208977
v 0.002781154 -0.035 -0.009209102
v 0.002781809 -0.041685354 -0.008555568
v 0.002783415 -0.041685525 0.008555481
v 0.002788088 -0.035 -0.009209159
v 0.002805301 -0.035 -0.00920931
v 0.00280544 -0.055 -0.007194866
v 0.002807408 -0.055 0.007193717
v 0.002810942 -0.035 -0.009209362
v 0.002828432 -0.035 -0.009209538
v 0.002832799 -0.035 -0.009209585
v 0.002837014 -0.055 0.007175326
v 0.002850343 -0.035 -0.009209787
v 0.002855088 -0.039747253 0.008719908
v 0.002906465 -0.055 -0.007128225
v 0.002915791 -0.041698735 -0.008545421
v 0.002917416 -0.041698895 0.008545261
v 0.002935975 -0.055 -0.007110037
v 0.00293807 -0.055 0.007108666
v 0.002954824 -0.055 0.0
v 0.002955507 -0.055 -3.29e-06
v 0.002957546 -0.055 -6.563e-06
v 0.002964681 -0.055 -0.00709025
v 0.002966882 -0.055 0.007088641
v 0.002979241 -0.055 5.8916e-05
v 0.002979912 -0.055 6.2146e-05
v 0.002981917 -0.055 -6.5367e-05
v 0.002981917 -0.055 6.5367e-05
v 0.002985235 -0.055 -6.8561e-05
v 0.002989845 -0.055 -7.1714e-05
v 0.003000543 -0.038392935 -0.008841899
v 0.003025137 -0.055 -0.007046584
v 0.00302734 -0.055 0.007044974
v 0.003051927 -0.041711837 -0.008528855
v 0.003053777 -0.037897985 -0.008888674
v 0.003054161 -0.035 0.009197129
v 0.00305439 -0.041712072 0.008528497
v 0.003055211 -0.055 0.00702338
v 0.003055432 -0.055 0.000124225
v 0.003058574 -0.055 0.000127247
v 0.00306048 -0.035 0.009197153
v 0.003062941 -0.055 -0.000130236
v 0.003062941 -0.055 0.000130236
v 0.003066362 -0.035 0.009197178
v 0.003068491 -0.055 -0.000133177
v 0.003073266 -0.035 0.00919721
v 0.003075184 -0.055 -0.000136055
v 0.00307845 -0.035 0.009197236
v 0.003085819 -0.035 0.009197276
v 0.003090302 -0.035 0.009197302
v 0.003098005 -0.035 0.00919735
v 0.00310176 -0.035 0.009197375
v 0.003109702 -0.035 0.009197432
v 0.003112735 -0.035 0.009197456
v 0.003120803 -0.035 0.009197522
v 0.003123173 -0.035 0.009197542
v 0.003124521 -0.055 -0.006967976
v 0.003131217 -0.035 0.009197617
v 0.003132991 -0.035 0.009197635
v 0.003136073 -0.035 0.009197666
v 0.003140866 -0.035 0.009197718
v 0.003144907 -0.035 0.009197765
v 0.003149688 -0.035 0.009197824
v 0.003152331 -0.055 -0.006946616
v 0.003152984 -0.035 0.009197868
v 0.00315462 -0.055 0.006944753
v 0.003157635 -0.035 0.009197934
v 0.003160265 -0.035 0.009197974
v 0.003164675 -0.035 0.009198047
v 0.003166717 -0.035 0.009198083
v 0.00317908 -0.055 -0.00692378
v 0.003186296 -0.055 0.000188856
v 0.003189314 -0.041724544 -0.008505642
v 0.003191313 -0.055 0.000191511
v 0.003192623 -0.041724846 0.008505002
v 0.003197361 -0.055 -0.000194114
v 0.003197361 -0.055 0.000194114
v 0.003204389 -0.055 -0.000196655
v 0.003206353 -0.055 0.006900147
v 0.003212343 -0.055 -0.000199121
v 0.003230822 -0.055 -0.006879165
v 0.003233175 -0.055 0.00687704
v 0.00325127 -0.055 0.006860792
v 0.003276892 -0.055 0.006836281
v 0.003287289 -0.055 -0.006827289
v 0.003315271 -0.055 0.006800645
v 0.0033275 -0.055 -0.006788145
v 0.003327507 -0.041736789 -0.008475563
v 0.00333166 -0.041737147 0.008474553
v 0.003353098 -0.055 -0.006763894
v 0.003355489 -0.055 0.006761496
v 0.003366733 -0.035 0.009200076
v 0.003366985 -0.035 -0.009207713
v 0.003371441 -0.055 0.000252292
v 0.003377371 -0.055 0.000254433
v 0.003379811 -0.055 0.006735669
v 0.003384079 -0.055 -0.000256515
v 0.003384079 -0.055 0.000256515
v 0.003391515 -0.055 -0.00025853
v 0.00339629 -0.055 -0.006719634
v 0.003399627 -0.055 -0.00026047
v 0.00342301 -0.055 0.006691403
v 0.003451278 -0.035 -0.009205699
v 0.003456152 -0.035 -0.00920815
v 0.003466023 -0.041748505 -0.008438435
v 0.003471009 -0.041748915 0.008436965
v 0.003489002 -0.055 -0.006615923
v 0.003501249 -0.035 -0.009222094
v 0.003513327 -0.055 -0.006590359
v 0.003515731 -0.055 0.006587683
v 0.003528544 -0.035 -0.009220318
v 0.003536266 -0.055 -0.006563602
v 0.003538657 -0.055 0.006560645
v 0.003544653 -0.035 0.009207707
v 0.003560086 -0.055 0.006532532
v 0.003571302 -0.055 -0.006520904
v 0.003584521 -0.035 0.009214306
v 0.003595124 -0.055 0.006489831
v 0.003604354 -0.041759625 -0.008394119
v 0.003610107 -0.055 0.000314013
v 0.003610152 -0.04176008 0.008392099
v 0.003610239 -0.035 0.009212617
v 0.003615656 -0.055 0.000315515
v 0.003621707 -0.055 -0.000316964
v 0.003621707 -0.055 0.000316964
v 0.003628213 -0.055 -0.000318354
v 0.003635131 -0.055 -0.000319681
v 0.003636798 -0.035 -0.00921277
v 0.003638435 -0.035 0.00921262
v 0.003658687 -0.055 -0.006404367
v 0.00366431 -0.035 -0.009209718
v 0.00368016 -0.055 -0.006376527
v 0.003682511 -0.055 0.006373291
v 0.003700089 -0.055 -0.006347734
v 0.003702374 -0.055 0.006344221
v 0.003729814 -0.055 0.006304208
v 0.003741966 -0.041770093 -0.008342524
v 0.003748544 -0.041770577 0.008339863
v 0.0037489 -0.035 0.009199772
v 0.003751077 -0.055 0.006271902
v 0.003769311 -0.055 0.006242015
v 0.003773979 -0.035 -0.009197039
v 0.00377646 -0.035 0.009196695
v 0.003801529 -0.035 -0.009192681
v 0.003808125 -0.055 -0.006178406
v 0.003826448 -0.055 -0.006148794
v 0.003828641 -0.055 0.006145011
v 0.003845201 -0.055 0.006114447
v 0.003847003 -0.055 -0.00611248
v 0.003877601 -0.055 -0.006055373
v 0.003878305 -0.041779839 -0.00828361
v 0.00388562 -0.041780345 0.00828022
v 0.00388806 -0.035 0.009178421
v 0.003894273 -0.055 -0.006025079
v 0.003900991 -0.055 0.000373501
v 0.003904581 -0.055 0.000374267
v 0.003908398 -0.055 -0.000375
v 0.003908398 -0.055 0.000375
v 0.003912332 -0.035 -0.009174647
v 0.003912413 -0.055 -0.000375697
v 0.003915664 -0.035 0.009174026
v 0.003916602 -0.055 -0.000376357
v 0.003935977 -0.055 -0.005940311
v 0.003938052 -0.055 0.005936269
v 0.003939838 -0.035 -0.009168957
v 0.003950967 -0.055 -0.005909472
v 0.003952903 -0.055 0.00590518
v 0.00396604 -0.055 0.005873684
v 0.003980548 -0.055 0.005841973
v 0.004011476 -0.035 0.0
v 0.004012542 -0.035 -5.166e-06
v 0.004012804 -0.041788809 -0.008217392
v 0.004015745 -0.035 -1.0308e-05
v 0.004020804 -0.041789323 0.008213188
v 0.004027957 -0.055 -0.005723712
v 0.00402802 -0.035 0.009150126
v 0.004034329 -0.035 5.5141e-05
v 0.004035386 -0.035 6.0261e-05
v 0.004038564 -0.035 -6.5367e-05
v 0.004038564 -0.035 6.5367e-05
v 0.004041241 -0.055 -0.005692484
v 0.004043015 -0.055 0.005687961
v 0.004043832 -0.035 -7.0434e-05
v 0.004051148 -0.035 -7.544e-05
v 0.004051405 -0.035 -0.009145372
v 0.004052833 -0.055 -0.00566097
v 0.004054427 -0.055 0.005656226
v 0.004055584 -0.035 0.009144386
v 0.004062245 -0.055 -0.005634623
v 0.00406414 -0.055 0.005624355
v 0.004078782 -0.035 -0.009138329
v 0.004107342 -0.035 0.000120409
v 0.004112482 -0.035 0.000125348
v 0.004113365 -0.055 -0.005469006
v 0.004119619 -0.035 -0.000130236
v 0.004119619 -0.035 0.000130236
v 0.004123262 -0.055 -0.005437382
v 0.004124656 -0.055 0.005432442
v 0.004128712 -0.035 -0.000135051
v 0.004131504 -0.055 -0.005405727
v 0.004132685 -0.055 0.005400605
v 0.00413908 -0.055 0.005368878
v 0.004139683 -0.035 -0.000139772
v 0.004144431 -0.055 0.00534854
v 0.004144893 -0.041796945 -0.008143945
v 0.004153512 -0.041797452 0.008138846
v 0.004168286 -0.035 0.009114695
v 0.004175106 -0.055 -0.005208962
v 0.004181716 -0.055 -0.005177454
v 0.00418267 -0.055 0.005172178
v 0.004186752 -0.055 -0.005146149
v 0.004187472 -0.055 0.005140731
v 0.00418915 -0.055 -0.005132298
v 0.004190713 -0.035 -0.00910903
v 0.004195726 -0.035 0.009107588
v 0.00420363 -0.055 0.005034689
v 0.004206902 -0.055 0.005003605
v 0.004213073 -0.055 -0.004946017
v 0.004216583 -0.055 -0.004915086
v 0.004217059 -0.055 0.004909559
v 0.004217873 -0.035 -0.009100619
v 0.004218639 -0.055 -0.004884557
v 0.004219242 -0.055 -0.004877539
v 0.004223501 -0.055 0.004758383
v 0.004223817 -0.055 0.004754714
v 0.004227445 -0.055 -0.00468252
v 0.004228112 -0.055 -0.001330232
v 0.004228112 -0.055 -0.001293774
v 0.004228112 -0.055 -0.001251006
v 0.004228112 -0.055 -0.001201975
v 0.004228112 -0.055 -0.001085622
v 0.004228112 -0.055 -0.00094648
v 0.004228112 -0.055 -0.000614017
v 0.004228112 -0.055 -0.000523482
v 0.004228112 -0.055 -0.000431689
v 0.004228112 -0.055 -0.000427877
v 0.004228112 -0.055 0.000427877
v 0.004228112 -0.055 0.000431689
v 0.004228112 -0.055 0.000523482
v 0.004228112 -0.055 0.000614017
v 0.004228112 -0.055 0.00094648
v 0.004228112 -0.055 0.001085622
v 0.004228113 -0.055 -0.004652556
v 0.004228113 -0.055 -0.00136039
v 0.004228113 -0.055 -0.001146785
v 0.004228113 -0.055 -0.001018736
v 0.004228113 -0.055 -0.000869292
v 0.004228113 -0.055 -0.000787707
v 0.004228113 -0.055 -0.000702371
v 0.004228113 -0.055 0.000702371
v 0.004228113 -0.055 0.000787707
v 0.004228113 -0.055 0.000869292
v 0.004228113 -0.055 0.001018736
v 0.004228113 -0.055 0.004652604
v 0.004228267 -0.054998539 -0.000430182
v 0.004228267 -0.054998539 0.000430182
v 0.004232464 -0.054958932 -0.000482091
v 0.004232464 -0.054958932 0.000482091
v 0.004234806 -0.035 0.000184988
v 0.004237122 -0.054914974 -0.00053033
v 0.004237122 -0.054914974 0.00053033
v 0.004242205 -0.054867003 -0.000574533
v 0.004242205 -0.054867003 0.000574533
v 0.004243509 -0.035 0.000189592
v 0.004247675 -0.054815385 -0.000614364
v 0.004247675 -0.054815385 0.000614364
v 0.004253489 -0.054760508 -0.000649519
v 0.004253489 -0.054760508 0.000649519
v 0.004254008 -0.035 -0.000194114
v 0.004254008 -0.035 0.000194114
v 0.004259604 -0.054702796 -0.000679731
v 0.004259604 -0.054702796 0.000679731
v 0.004265974 -0.054642685 -0.000704769
v 0.004265974 -0.054642685 0.000704769
v 0.004266237 -0.035 -0.000198535
v 0.004272549 -0.054580629 -0.000724444
v 0.004272549 -0.054580629 0.000724444
v 0.004273998 -0.041804202 -0.008063399
v 0.004279281 -0.054517109 -0.000738606
v 0.004279281 -0.054517109 0.000738606
v 0.004280105 -0.035 -0.000202836
v 0.004283164 -0.04180469 0.008057331
v 0.004286116 -0.054452598 -0.000747146
v 0.004286116 -0.054452598 0.000747146
v 0.004293004 -0.054387596 -0.00075
v 0.004293004 -0.054387596 0.00075
v 0.004299891 -0.054322593 -0.000747146
v 0.004299891 -0.054322593 0.000747146
v 0.004306727 -0.054258086 -0.000738606
v 0.004306727 -0.054258086 0.000738606
v 0.004308341 -0.035 0.009071979
v 0.004313458 -0.054194562 -0.000724444
v 0.004313458 -0.054194562 0.000724444
v 0.004320033 -0.05413251 -0.000704769
v 0.004320033 -0.05413251 0.000704769
v 0.004326402 -0.054072399 -0.000679731
v 0.004326402 -0.054072399 0.000679731
v 0.004329743 -0.035 -0.009065478
v 0.004332518 -0.054014683 -0.000649519
v 0.004332518 -0.054014683 0.000649519
v 0.004335568 -0.035 0.00906349
v 0.004338332 -0.053959809 -0.000614364
v 0.004338332 -0.053959809 0.000614364
v 0.004343802 -0.053908192 -0.000574533
v 0.004343802 -0.053908192 0.000574533
v 0.004348885 -0.053860217 -0.00053033
v 0.004348885 -0.053860217 0.00053033
v 0.004353543 -0.053816263 -0.000482091
v 0.004353543 -0.053816263 0.000482091
v 0.004356595 -0.035 -0.009055693
v 0.00435774 -0.053776652 -0.000430182
v 0.00435774 -0.053776652 0.000430182
v 0.004361444 -0.053741693 -0.000375
v 0.004361444 -0.053741693 0.000375
v 0.004364628 -0.053711649 -0.000316964
v 0.004364628 -0.053711649 0.000316964
v 0.004367266 -0.053686749 -0.000256515
v 0.004367266 -0.053686749 0.000256515
v 0.004369339 -0.053667184 -0.000194114
v 0.004369339 -0.053667184 0.000194114
v 0.004370831 -0.053653102 -0.000130236
v 0.004370831 -0.053653102 0.000130236
v 0.004371731 -0.053644609 -6.5367e-05
v 0.004371731 -0.053644609 6.5367e-05
v 0.004372032 -0.053641774 0.0
v 0.004399558 -0.041810531 -0.007975949
v 0.004409186 -0.041810986 0.007968844
v 0.004416345 -0.035 0.000248367
v 0.004427771 -0.035 0.000252493
v 0.004440726 -0.035 -0.000256515
v 0.004440726 -0.035 0.000256515
v 0.004447637 -0.035 0.009021877
v 0.004455127 -0.035 -0.000260416
v 0.004467957 -0.035 -0.009014623
v 0.004470869 -0.035 -0.000264183
v 0.004474561 -0.035 0.009011997
v 0.004494412 -0.035 -0.009003464
v 0.004506858 -0.052369371 0.004834604
v 0.004521024 -0.041815896 -0.007881843
v 0.004531024 -0.041816302 0.007873645
v 0.00458561 -0.035 0.008964339
v 0.0046048 -0.035 -0.008956421
v 0.00461214 -0.035 0.008953069
v 0.004630767 -0.035 -0.008943898
v 0.004637875 -0.041820262 -0.007781391
v 0.004648149 -0.041820608 0.007772051
v 0.004651102 -0.035 0.000310031
v 0.004664124 -0.035 0.000313555
v 0.004678354 -0.035 -0.000316964
v 0.004678354 -0.035 0.000316964
v 0.004693707 -0.035 -0.000320244
v 0.004710079 -0.035 -0.000323386
v 0.004721681 -0.035 0.008899374
v 0.004739704 -0.035 -0.008890885
v 0.004747725 -0.035 0.008886721
v 0.004749618 -0.041823614 -0.007674953
v 0.00476006 -0.041823879 0.007664435
v 0.004765092 -0.035 -0.008877015
v 0.004855267 -0.035 0.008827047
v 0.0048558 -0.041825928 -0.00756294
v 0.004866302 -0.041826107 0.007551219
v 0.004872097 -0.035 -0.008818085
v 0.004880733 -0.035 0.008813028
v 0.004896818 -0.035 -0.008802892
v 0.004937759 -0.035 0.00036947
v 0.004950983 -0.035 0.000372292
v 0.004956011 -0.041827202 -0.007445807
v 0.004965078 -0.035 -0.000375
v 0.004965078 -0.035 0.000375
v 0.004966461 -0.04182728 0.007432871
v 0.004979967 -0.035 -0.000377585
v 0.004985785 -0.035 0.008747486
v 0.004995552 -0.035 -0.00038004
v 0.005001407 -0.035 -0.008738149
v 0.005010583 -0.035 0.008732123
v 0.005025373 -0.035 -0.008721665
v 0.005049889 -0.041827437 -0.007324047
v 0.005060175 -0.041827399 0.007309896
v 0.005112661 -0.035 0.008660877
v 0.005127071 -0.035 -0.008651266
v 0.005136703 -0.035 0.008644204
v 0.005137129 -0.041826643 -0.007198185
v 0.00514714 -0.041826479 0.007182831
v 0.0051502 -0.035 -0.008633532
v 0.00521748 -0.041824833 -0.007068768
v 0.005227106 -0.041824535 0.007052237
v 0.00523534 -0.035 0.008567469
v 0.005248544 -0.035 -0.008557682
v 0.00525854 -0.035 0.008549525
v 0.005267689 -0.045189094 0.0
v 0.005267989 -0.045186255 -6.5367e-05
v 0.005267989 -0.045186255 6.5367e-05
v 0.005268889 -0.045177761 -0.000130236
v 0.005268889 -0.045177761 0.000130236
v 0.005270381 -0.04516368 -0.000194114
v 0.005270381 -0.04516368 0.000194114
v 0.005270756 -0.035 -0.008538745
v 0.005272455 -0.045144115 -0.000256515
v 0.005272455 -0.045144115 0.000256515
v 0.005274508 -0.035 0.000426181
v 0.005275093 -0.045119215 -0.000316964
v 0.005275093 -0.045119215 0.000316964
v 0.005278277 -0.04508917 -0.000375
v 0.005278277 -0.04508917 0.000375
v 0.005281981 -0.045054212 -0.000430182
v 0.005281981 -0.045054212 0.000430182
v 0.005286178 -0.045014601 -0.000482091
v 0.005286178 -0.045014601 0.000482091
v 0.00528633 -0.035 0.000428232
v 0.005290751 -0.041822035 -0.00693636
v 0.005290836 -0.044970647 -0.00053033
v 0.005290836 -0.044970647 0.00053033
v 0.005295919 -0.044922676 -0.000574533
v 0.005295919 -0.044922676 0.000574533
v 0.005298699 -0.035 -0.000430182
v 0.005298699 -0.035 0.000430182
v 0.005299886 -0.041821592 0.006918689
v 0.005301388 -0.044871055 -0.000614364
v 0.005301388 -0.044871055 0.000614364
v 0.005307203 -0.044816181 -0.000649519
v 0.005307203 -0.044816181 0.000649519
v 0.005311549 -0.035 -0.000432029
v 0.005313318 -0.044758465 -0.000679731
v 0.005313318 -0.044758465 0.000679731
v 0.005319688 -0.044698354 -0.000704769
v 0.005319688 -0.044698354 0.000704769
v 0.005324808 -0.035 -0.000433768
v 0.005326263 -0.044636302 -0.000724444
v 0.005326263 -0.044636302 0.000724444
v 0.005332994 -0.044572778 -0.000738606
v 0.005332994 -0.044572778 0.000738606
v 0.005339829 -0.044508271 -0.000747146
v 0.005339829 -0.044508271 0.000747146
v 0.005346717 -0.044443268 -0.00075
v 0.005346717 -0.044443268 0.00075
v 0.005353289 -0.035 0.008467567
v 0.005353605 -0.044378266 -0.000747146
v 0.005353605 -0.044378266 0.000747146
v 0.005356809 -0.04181828 -0.006801536
v 0.00536044 -0.044313755 -0.000738606
v 0.00536044 -0.044313755 0.000738606
v 0.005365306 -0.035 -0.0084577
v 0.005365354 -0.041817687 0.006782772
v 0.005367171 -0.044250235 -0.000724444
v 0.005367171 -0.044250235 0.000724444
v 0.005373747 -0.044188179 -0.000704769
v 0.005373747 -0.044188179 0.000704769
v 0.005375567 -0.035 0.0084484
v 0.005380116 -0.044128068 -0.000679731
v 0.005380116 -0.044128068 0.000679731
v 0.005386231 -0.044070356 -0.000649519
v 0.005386231 -0.044070356 0.000649519
v 0.005386526 -0.035 -0.008437615
v 0.005392046 -0.044015478 -0.000614364
v 0.005392046 -0.044015478 0.000614364
v 0.005397516 -0.043963861 -0.000574533
v 0.005397516 -0.043963861 0.000574533
v 0.005402599 -0.04391589 -0.00053033
v 0.005402599 -0.04391589 0.00053033
v 0.005407257 -0.043871932 -0.000482091
v 0.005407257 -0.043871932 0.000482091
v 0.005411454 -0.043832324 -0.000430182
v 0.005411454 -0.043832324 0.000430182
v 0.005415158 -0.043797363 -0.000375
v 0.005415158 -0.043797363 0.000375
v 0.005415581 -0.041813605 -0.006664868
v 0.005418342 -0.043767322 -0.000316964
v 0.005418342 -0.043767322 0.000316964
v 0.00542098 -0.043742422 -0.000256515
v 0.00542098 -0.043742422 0.000256515
v 0.005423053 -0.043722857 -0.000194114
v 0.005423053 -0.043722857 0.000194114
v 0.005423443 -0.041812859 0.006645069
v 0.005424545 -0.043708775 -0.000130236
v 0.005424545 -0.043708775 0.000130236
v 0.005425445 -0.043700282 -6.5367e-05
v 0.005425445 -0.043700282 6.5367e-05
v 0.005425746 -0.043697443 0.0
v 0.00546601 -0.035 0.008361532
v 0.005467053 -0.041808054 -0.006526924
v 0.005474145 -0.041807149 0.006506157
v 0.005476868 -0.035 -0.008351678
v 0.005487287 -0.035 0.008341197
v 0.005497025 -0.035 -0.008330507
v 0.005511262 -0.04180168 -0.006388259
v 0.005517509 -0.041800611 0.006366597
v 0.0055483 -0.041794527 -0.006249408
v 0.005553635 -0.041793298 0.006226932
v 0.005573043 -0.035 0.008249775
v 0.005578307 -0.041786656 -0.006110882
v 0.005582671 -0.041785266 0.006087677
v 0.005582779 -0.035 -0.008240022
v 0.005593248 -0.035 0.008228334
v 0.005601464 -0.041778125 -0.005973163
v 0.005601809 -0.035 -0.008217833
v 0.00560481 -0.041776575 0.005949316
v 0.005617991 -0.04176899 -0.005836699
v 0.00562028 -0.041767288 0.005812301
v 0.005628139 -0.041759312 -0.005701904
v 0.005632189 -0.041749153 0.005569154
v 0.005632195 -0.041749097 -0.005569158
v 0.00565911 -0.035 0.000479677
v 0.005667763 -0.035 0.000480919
v 0.005673973 -0.035 0.008132753
v 0.005676688 -0.035 -0.000482091
v 0.005676688 -0.035 0.000482091
v 0.005682633 -0.035 -0.008123183
v 0.005685835 -0.035 -0.00048319
v 0.005693039 -0.035 0.008110275
v 0.005695162 -0.035 -0.000484215
v 0.005700478 -0.035 -0.008100049
v 0.005768438 -0.035 0.008010962
v 0.005776074 -0.035 -0.008001651
v 0.005786305 -0.035 0.007987522
v 0.005792684 -0.035 -0.00797765
v 0.005856127 -0.035 0.00788493
v 0.005862799 -0.035 -0.007875947
v 0.005872743 -0.035 0.007860607
v 0.00587813 -0.035 -0.007851162
v 0.005936791 -0.035 0.00775521
v 0.005942563 -0.035 -0.007746615
v 0.005952109 -0.035 0.007730091
v 0.005956578 -0.035 -0.007721132
v 0.006010238 -0.035 0.007622372
v 0.006015179 -0.035 -0.007614219
v 0.006024223 -0.035 0.007596544
v 0.006027851 -0.035 -0.007588126
v 0.006058167 -0.037729025 0.005921506
v 0.006076339 -0.035 0.007486995
v 0.006080519 -0.035 -0.007479329
v 0.006088874 -0.035 0.000529488
v 0.00608896 -0.035 0.00746055
v 0.006091828 -0.035 -0.007452717
v 0.006092502 -0.035 0.000529923
v 0.006096198 -0.035 -0.00053033
v 0.006096198 -0.035 0.00053033
v 0.006103727 -0.035 0.000531057
v 0.006135024 -0.035 0.007349659
v 0.006138515 -0.035 -0.007342517
v 0.00614626 -0.035 0.007322691
v 0.006148449 -0.035 -0.007315478
v 0.00618628 -0.035 0.007210941
v 0.006189156 -0.035 -0.007204351
v 0.00619612 -0.035 0.007183543
v 0.006197711 -0.035 -0.007176977
v 0.006230152 -0.035 0.007071401
v 0.006232486 -0.035 -0.007065385
v 0.006238592 -0.035 0.00704367
v 0.006239665 -0.035 -0.007037768
v 0.006266739 -0.035 0.006931582
v 0.006268601 -0.035 -0.006926156
v 0.006273782 -0.035 0.006903612
v 0.006274416 -0.035 -0.006898385
v 0.006296182 -0.035 0.006792005
v 0.006297643 -0.035 -0.006787177
v 0.006301841 -0.035 0.006763887
v 0.006302113 -0.035 -0.00675934
v 0.006318672 -0.035 0.006653158
v 0.006319798 -0.035 -0.00664893
v 0.006321402 -0.035244763 0.0
v 0.006321703 -0.035241924 -6.5367e-05
v 0.006321703 -0.035241924 6.5367e-05
v 0.006322603 -0.035233431 -0.000130236
v 0.006322603 -0.035233431 0.000130236
v 0.006322949 -0.035 -0.006621112
v 0.006322966 -0.035 0.006624984
v 0.006324095 -0.035219349 -0.000194114
v 0.006324095 -0.035219349 0.000194114
v 0.006326168 -0.035199784 -0.000256515
v 0.006326168 -0.035199784 0.000256515
v 0.006328807 -0.035174884 -0.000316964
v 0.006328807 -0.035174884 0.000316964
v 0.00633199 -0.035144839 -0.000375
v 0.00633199 -0.035144839 0.000375
v 0.006334436 -0.035 0.006515499
v 0.006335291 -0.035 -0.006511868
v 0.006335695 -0.035109881 -0.000430182
v 0.006335695 -0.035109881 0.000430182
v 0.006337154 -0.035 -0.006484149
v 0.006337391 -0.035 0.006487356
v 0.006339892 -0.035070274 -0.000482091
v 0.006339892 -0.035070274 0.000482091
v 0.006341266 -0.035 0.006373155
v 0.006344376 -0.035 -0.006376407
v 0.006344549 -0.035026316 -0.00053033
v 0.006344549 -0.035026316 0.00053033
v 0.006344988 -0.035 -0.006348864
v 0.006347338 -0.035 -0.006235702
v 0.006347338 -0.035 -0.00594251
v 0.006347338 -0.035 -0.00564216
v 0.006347338 -0.035 -0.005638142
v 0.006347338 -0.035 -0.005633323
v 0.006347338 -0.035 -0.005627724
v 0.006347338 -0.035 -0.005621377
v 0.006347338 -0.035 -0.005614317
v 0.006347338 -0.035 -0.005606592
v 0.006347338 -0.035 -0.005598252
v 0.006347338 -0.035 -0.005589359
v 0.006347338 -0.035 -0.00557998
v 0.006347338 -0.035 -0.005570188
v 0.006347338 -0.035 -0.005560063
v 0.006347338 -0.035 -0.005549692
v 0.006347338 -0.035 -0.005539165
v 0.006347338 -0.035 -0.005528575
v 0.006347338 -0.035 -0.004179433
v 0.006347338 -0.035 -0.004148063
v 0.006347338 -0.035 -0.003788672
v 0.006347338 -0.035 -0.00375075
v 0.006347338 -0.035 -0.00371317
v 0.006347338 -0.035 -0.000717729
v 0.006347338 -0.035 -0.000714606
v 0.006347338 -0.035 -0.000711475
v 0.006347338 -0.035 -0.000708346
v 0.006347338 -0.035 -0.000699665
v 0.006347338 -0.035 -0.000685386
v 0.006347338 -0.035 -0.000665509
v 0.006347338 -0.035 -0.000640088
v 0.006347338 -0.035 -0.000609231
v 0.006347338 -0.035 -0.000573106
v 0.006347338 -0.035 -0.000554579
v 0.006347338 -0.035 0.000554579
v 0.006347338 -0.035 0.000574935
v 0.006347338 -0.035 0.000615408
v 0.006347338 -0.035 0.000650864
v 0.006347338 -0.035 0.000681087
v 0.006347338 -0.035 0.004185687
v 0.006347338 -0.035 0.004196522
v 0.006347338 -0.035 0.00420424
v 0.006347338 -0.035 0.004208814
v 0.006347338 -0.035 0.00421024
v 0.006347338 -0.035 0.005208059
v 0.006347338 -0.035 0.005208678
v 0.006347338 -0.035 0.005232354
v 0.006347338 -0.035 0.005446435
v 0.006347338 -0.035 0.005892917
v 0.006347338 -0.035 0.006223683
f 424 419 434
f 99 424 419
f 1022 1342 664
f 1143 1468 1318
f 707 724 1318
f 1942 1996 1698
f 1827 1941 1948
f 1827 1603 1948
f 1614 1996 1940
f 1614 1996 1698
f 1142 1477 1342
f 467 479 477
f 907 707 1318
f 668 724 660
f 668 660 667
f 426 424 434
f 426 432 434
f 474 484 472
f 444 432 442
f 444 432 434
f 482 484 472
f 1828 1942 1698
f 1639 1827 1603
f 1585 1580 1940
f 1585 1614 1940
f 1900 1529 1892
f 1926 1580 1940
f 1384 1741 1735
f 1723 1372 1735
f 1212 1238 1489
f 654 666 664
f 654 644 666
f 594 592 604
f 564 562 574
f 543 555 545
f 543 545 533
f 572 584 574
f 572 562 574
f 602 614 604
f 602 614 612
f 632 644 634
f 979 689 664
f 1149 1477 1489
f 1149 1142 1477
f 649 637 639
f 556 566 568
f 429 421 427
f 532 538 536
f 532 526 538
f 1526 1541 1899
f 1392 1424 1748
f 1175 1143 1468
f 1175 1182 1468
f 1188 1471 1468
f 1188 1182 1468
f 1141 1143 1318
f 1141 997 1318
f 690 668 724
f 462 474 464
f 462 474 472
f 454 452 442
f 454 444 442
f 454 452 464
f 494 482 484
f 512 514 502
f 1640 1614 1698
f 1640 1828 1698
f 1527 1529 1892
f 1527 1886 1892
f 1527 1886 1524
f 1507 1882 1878
f 1570 1912 1916
f 1379 1372 1735
f 1379 1384 1735
f 1398 1741 1749
f 1358 1723 1715
f 1327 1661 1696
f 1703 1343 1696
f 1196 1189 1489
f 1196 1212 1489
f 1247 1238 1489
f 1503 1247 1260
f 1503 1247 1489
f 1503 1260 1290
f 1503 1521 1290
f 1548 1295 1521
f 1548 1575 1305
f 1294 1521 1290
f 1294 1295 1521
f 553 564 555
f 553 564 562
f 582 572 584
f 582 594 584
f 582 594 592
f 624 614 612
f 596 592 604
f 596 602 604
f 642 644 666
f 642 632 644
f 678 666 664
f 678 679 664
f 1140 1142 1342
f 1183 1189 1489
f 1183 1149 1489
f 635 639 627
f 635 637 639
f 650 660 667
f 650 649 667
f 647 649 667
f 647 649 637
f 629 617 627
f 599 587 597
f 540 538 536
f 540 548 536
f 546 556 558
f 546 548 536
f 560 556 568
f 560 556 558
f 420 323 1
f 420 421 323
f 445 449 447
f 445 437 449
f 423 421 323
f 423 429 421
f 439 437 427
f 439 429 427
f 450 449 447
f 450 459 447
f 510 509 507
f 510 518 507
f 528 516 526
f 505 509 507
f 505 497 509
f 1855 1852 1469
f 1523 1885 1514
f 1523 1526 1885
f 1875 1494 1877
f 1875 1494 1873
f 1476 1873 1871
f 1476 1867 1871
f 1354 1349 1714
f 1757 1424 1748
f 1345 1349 1714
f 1195 1471 1488
f 1195 1188 1471
f 1195 1488 1211
f 962 968 1318
f 988 997 1318
f 933 940 1318
f 912 907 1318
f 456 452 464
f 456 462 464
f 492 494 482
f 504 514 502
f 504 492 494
f 535 545 533
f 1508 1886 1882
f 1508 1507 1882
f 1508 1886 1524
f 1496 1874 1878
f 1561 1912 1908
f 1561 1558 1908
f 1576 1926 1916
f 1576 1926 1580
f 1904 1547 1900
f 1904 1547 1558
f 1904 1558 1908
f 1542 1900 1529
f 1542 1547 1900
f 1393 1384 1741
f 1393 1398 1741
f 1442 1808 1749
f 1368 1723 1372
f 1368 1358 1723
f 1350 1358 1715
f 1335 1327 1696
f 1323 1327 1661
f 1323 1661 1575
f 1323 1575 1305
f 1301 1548 1305
f 1301 1548 1295
f 549 543 555
f 549 553 555
f 622 624 612
f 622 624 634
f 680 679 664
f 1008 1022 664
f 1008 994 664
f 981 979 664
f 981 994 664
f 1051 1046 1342
f 1051 1140 1342
f 630 639 627
f 630 629 627
f 620 617 619
f 620 629 617
f 589 577 587
f 550 546 558
f 550 546 548
f 440 437 449
f 440 439 437
f 455 459 447
f 455 457 459
f 470 467 479
f 470 469 467
f 465 469 467
f 465 469 457
f 460 457 459
f 460 469 457
f 515 518 507
f 515 516 518
f 530 526 538
f 530 528 526
f 520 516 518
f 520 528 516
f 500 497 509
f 500 499 497
f 487 499 497
f 1893 1526 1899
f 1893 1890 1526
f 1887 1526 1885
f 1887 1890 1526
f 1492 1494 1873
f 1492 1476 1873
f 1472 1476 1867
f 1472 1855 1867
f 1472 1855 1469
f 1546 1541 1899
f 1913 1569 1915
f 1913 1911 1569
f 1549 1546 1903
f 1460 1844 1842
f 1460 1450 1842
f 1460 1844 1852
f 1460 1852 1469
f 1445 1842 1813
f 1445 1450 1842
f 1445 1802 1813
f 1718 1722 1357
f 1718 1354 1357
f 1718 1354 1714
f 1431 1757 1802
f 1431 1757 1424
f 1744 1392 1748
f 1744 1740 1392
f 1367 1378 1734
f 1367 1724 1734
f 1367 1724 1722
f 1367 1722 1357
f 1736 1378 1734
f 1702 1345 1339
f 1702 1697 1339
f 1293 1300 1545
f 945 940 1318
f 945 962 1318
f 978 968 1318
f 978 988 1318
f 932 919 1318
f 932 933 1318
f 913 919 1318
f 913 912 1318
f 496 504 502
f 496 504 492
f 524 522 535
f 524 512 514
f 529 535 533
f 529 522 535
f 1500 1507 1878
f 1500 1496 1878
f 1478 1874 1869
f 1564 1570 1912
f 1564 1561 1912
f 1572 1570 1916
f 1572 1576 1916
f 1426 1398 1749
f 1426 1442 1749
f 1446 1808 1843
f 1347 1703 1715
f 1347 1350 1715
f 1340 1343 1696
f 1340 1335 1696
f 626 632 634
f 626 622 634
f 688 689 664
f 688 686 664
f 685 686 664
f 682 683 664
f 682 680 664
f 1024 1022 1342
f 1024 1027 1342
f 1028 1034 1342
f 1028 1027 1342
f 1043 1046 1342
f 1043 1041 1342
f 1039 1034 1342
f 1039 1041 1342
f 615 617 619
f 615 607 619
f 609 607 597
f 590 599 587
f 590 589 587
f 579 577 566
f 489 487 477
f 1509 1883 1881
f 1509 1506 1881
f 1509 1883 1885
f 1509 1885 1514
f 1879 1506 1877
f 1879 1506 1881
f 1505 1494 1877
f 1505 1506 1877
f 1901 1546 1899
f 1901 1546 1903
f 1573 1569 1915
f 1925 1579 1936
f 1925 1579 1919
f 1947 1603 1948
f 1947 1944 1603
f 1583 1579 1936
f 1905 1549 1907
f 1905 1549 1903
f 1909 1560 1907
f 1909 1560 1911
f 1557 1560 1907
f 1557 1549 1907
f 1568 1911 1569
f 1568 1560 1911
f 1441 1445 1802
f 1441 1431 1802
f 1383 1736 1740
f 1383 1736 1378
f 1383 1740 1392
f 1704 1345 1714
f 1704 1702 1345
f 1525 1293 1545
f 1525 1293 1519
f 1289 1504 1519
f 1289 1293 1519
f 1289 1504 1502
f 1551 1300 1545
f 1670 1322 1658
f 1333 1694 1697
f 1333 1697 1339
f 1303 1551 1574
f 1303 1551 1300
f 700 701 724
f 692 690 724
f 692 693 724
f 695 693 724
f 519 524 512
f 519 524 522
f 1493 1496 1874
f 1493 1478 1874
f 1473 1478 1869
f 1473 1869 1853
f 1473 1853 1470
f 1443 1442 1808
f 1443 1446 1808
f 1462 1843 1853
f 1462 1853 1470
f 1346 1703 1343
f 1346 1347 1703
f 684 683 664
f 684 685 664
f 610 607 619
f 610 609 607
f 600 599 597
f 600 609 597
f 580 589 577
f 580 579 577
f 570 566 568
f 570 579 566
f 490 487 499
f 490 489 487
f 480 479 477
f 480 489 477
f 1917 1573 1915
f 1917 1573 1919
f 1578 1579 1919
f 1578 1573 1919
f 1586 1944 1603
f 1586 1583 1944
f 1939 1583 1936
f 1939 1583 1944
f 1259 1289 1502
f 1326 1670 1694
f 1326 1670 1322
f 1326 1333 1694
f 1581 1303 1574
f 1581 1303 1322
f 1581 1322 1658
f 706 707 724
f 706 705 724
f 703 701 724
f 703 705 724
f 699 698 724
f 699 700 724
f 697 698 724
f 1451 1446 1843
f 1451 1462 1843
f 1237 1491 1502
f 1237 1259 1502
f 696 695 724
f 696 697 724
f 1226 1491 1488
f 1226 1237 1491
f 1226 1488 1211
f 99 419 323
f 99 323 1
f 1942 1996 1948
f 1942 1941 1948
f 1828 1942 1941
f 1828 1827 1941
f 1640 1614 1603
f 1640 1639 1603
f 1640 1828 1827
f 1640 1639 1827
f 1581 1844 1852
f 1581 419 323
f 1581 1874 1878
f 1581 724 660
f 1581 1477 1489
f 1581 419 434
f 1581 654 664
f 1581 1996 1948
f 1581 474 484
f 1581 1879 1877
f 1581 504 514
f 1581 1926 1940
f 1581 1342 664
f 1581 510 509
f 1581 1913 1915
f 1581 1996 1940
f 1581 1869 1853
f 1581 1843 1853
f 1581 1912 1908
f 1581 724 1318
f 1581 1703 1715
f 1581 1904 1908
f 1581 450 449
f 1581 1468 1318
f 1581 444 434
f 1581 1548 1521
f 1581 555 545
f 1581 1882 1878
f 1581 494 484
f 1581 1900 1892
f 1581 1808 1749
f 1581 1741 1749
f 1581 1477 1342
f 1581 564 574
f 1581 614 604
f 1581 620 619
f 1581 1883 1885
f 1581 1875 1877
f 1581 1491 1502
f 1581 1471 1468
f 1581 594 604
f 1581 1874 1869
f 1581 1886 1892
f 1581 1808 1843
f 1581 1741 1735
f 1581 1723 1715
f 1581 1661 1575
f 1581 644 634
f 1581 584 574
f 1581 624 634
f 1581 540 538
f 1581 560 568
f 1581 460 459
f 1581 580 589
f 1581 490 499
f 1581 1925 1936
f 1581 1757 1748
f 1581 1724 1734
f 1581 1491 1488
f 1581 1471 1488
f 1581 474 464
f 1581 1551 1545
f 1581 454 464
f 1581 535 545
f 1581 1926 1916
f 1581 1723 1735
f 1581 1661 1696
f 1581 1503 1489
f 1581 654 644
f 1581 594 584
f 1581 564 555
f 1581 1548 1575
f 1581 649 639
f 1581 650 660
f 1581 590 599
f 1581 423 323
f 1581 550 558
f 1581 440 449
f 1581 1867 1871
f 1581 1873 1871
f 1581 1855 1852
f 1581 480 479
f 1581 1842 1813
f 1581 1802 1813
f 1581 1504 1502
f 1581 454 444
f 1581 1909 1907
f 1581 524 514
f 1581 1886 1882
f 1581 1912 1916
f 1581 1703 1696
f 1581 1503 1521
f 1581 624 614
f 1581 650 649
f 1581 630 639
f 1581 524 535
f 1581 540 548
f 1581 560 558
f 1581 423 429
f 1581 439 429
f 1581 450 459
f 1581 470 479
f 1581 510 518
f 1581 530 538
f 1581 520 518
f 1581 1855 1867
f 1581 500 509
f 1581 1893 1899
f 1581 1875 1873
f 1581 1947 1948
f 1581 1887 1885
f 1581 1905 1907
f 1581 1844 1842
f 1581 1718 1714
f 1581 1757 1802
f 1581 1744 1748
f 1581 1736 1734
f 1581 1704 1714
f 1581 504 494
f 1581 1939 1936
f 1581 1904 1900
f 1581 630 629
f 1581 620 629
f 1581 1670 1658
f 1581 550 548
f 1581 440 439
f 1581 470 469
f 1581 460 469
f 1581 530 528
f 1581 520 528
f 1581 500 499
f 1581 1883 1881
f 1581 1893 1890
f 1581 1887 1890
f 1581 1901 1899
f 1581 1917 1915
f 1581 1913 1911
f 1581 1718 1722
f 1581 1724 1722
f 1581 1744 1740
f 1581 1736 1740
f 1581 1694 1697
f 1581 1702 1697
f 1581 1504 1519
f 1581 1525 1545
f 1581 610 619
f 1581 590 589
f 1581 600 599
f 1581 570 568
f 1581 1879 1881
f 1581 1901 1903
f 1581 1925 1919
f 1581 1947 1944
f 1581 1905 1903
f 1581 1909 1911
f 1581 1704 1702
f 1581 1525 1519
f 1581 1551 1574
f 1581 1670 1694
f 1581 610 609
f 1581 600 609
f 1581 580 579
f 1581 570 579
f 1581 490 489
f 1581 480 489
f 1581 1917 1919
f 1581 1939 1944
f 1226 99 1
f 1226 1141 1143
f 1226 668 667
f 1226 596 592
f 1226 1140 1142
f 1226 1585 1580
f 1226 1508 1524
f 1226 420 1
f 1226 1472 1469
f 1226 99 424
f 1226 467 477
f 1226 1614 1603
f 1226 1426 1398
f 1226 680 679
f 1226 587 597
f 1226 1526 1541
f 1226 426 424
f 1226 462 472
f 1226 1260 1290
f 1226 1323 1305
f 1226 582 592
f 1226 647 667
f 1226 577 566
f 1226 532 536
f 1226 1523 1514
f 1226 1392 1424
f 1226 1175 1143
f 1226 1367 1357
f 1226 432 442
f 1226 912 907
f 1226 482 472
f 1226 1527 1529
f 1226 1379 1372
f 1226 1462 1470
f 1226 543 533
f 1226 553 562
f 1226 642 666
f 1226 622 612
f 1226 635 627
f 1226 546 536
f 1226 445 447
f 1226 607 597
f 1226 515 507
f 1226 1546 1541
f 1226 1345 1349
f 1226 1195 1211
f 1226 907 707
f 1226 988 997
f 1226 426 432
f 1226 452 442
f 1226 456 452
f 1226 1585 1614
f 1226 703 701
f 1226 1561 1558
f 1226 1576 1580
f 1226 1393 1384
f 1226 1212 1238
f 1226 1196 1189
f 1226 1247 1238
f 1226 1294 1290
f 1226 572 562
f 1226 602 612
f 1226 549 543
f 1226 678 666
f 1226 979 689
f 1226 981 979
f 1226 1149 1142
f 1226 1183 1189
f 1226 1051 1046
f 1226 556 566
f 1226 421 427
f 1226 437 427
f 1226 532 526
f 1226 465 467
f 1226 505 507
f 1226 487 477
f 1226 1492 1494
f 1226 1557 1560
f 1226 1354 1349
f 1226 1431 1424
f 1226 1175 1182
f 1226 1188 1182
f 1226 1586 1603
f 1226 1141 997
f 1226 933 940
f 1226 690 668
f 1226 913 919
f 1226 512 502
f 1226 1527 1524
f 1226 496 502
f 1226 1500 1507
f 1226 1547 1558
f 1226 1379 1384
f 1226 1542 1529
f 1226 1368 1372
f 1226 1443 1442
f 1226 1196 1212
f 1226 1247 1260
f 1226 1294 1295
f 1226 1301 1305
f 1226 582 572
f 1226 596 602
f 1226 642 632
f 1226 678 679
f 1226 626 632
f 1226 1008 1022
f 1226 682 683
f 1226 1028 1034
f 1226 1183 1149
f 1226 635 637
f 1226 647 637
f 1226 617 627
f 1226 577 587
f 1226 546 556
f 1226 420 421
f 1226 445 437
f 1226 455 447
f 1226 516 526
f 1226 505 497
f 1226 1523 1526
f 1226 615 617
f 1226 1557 1549
f 1226 1460 1469
f 1226 1354 1357
f 1226 1441 1445
f 1226 1345 1339
f 1226 1383 1392
f 1226 1195 1188
f 1226 962 968
f 1226 945 940
f 1226 978 968
f 1226 932 919
f 1226 1303 1300
f 1226 456 462
f 1226 492 482
f 1226 699 698
f 1226 1508 1507
f 1226 529 533
f 1226 1493 1496
f 1226 1564 1570
f 1226 1542 1547
f 1226 1393 1398
f 1226 1572 1570
f 1226 1368 1358
f 1226 1350 1358
f 1226 1335 1327
f 1226 1323 1327
f 1226 1301 1295
f 1226 549 553
f 1226 1340 1343
f 1226 688 689
f 1226 1346 1343
f 1226 1008 994
f 1226 981 994
f 1226 1024 1022
f 1226 1043 1046
f 1226 1051 1140
f 1226 1039 1034
f 1226 455 457
f 1226 465 457
f 1226 515 516
f 1226 487 497
f 1226 1509 1514
f 1226 1492 1476
f 1226 1472 1476
f 1226 1573 1569
f 1226 1505 1494
f 1226 1549 1546
f 1226 1578 1579
f 1226 1460 1450
f 1226 1445 1450
f 1226 1568 1569
f 1226 1367 1378
f 1226 1293 1300
f 1226 1333 1339
f 1226 945 962
f 1226 978 988
f 1226 932 933
f 1226 913 912
f 1226 1326 1322
f 1226 692 690
f 1226 496 492
f 1226 529 522
f 1226 1500 1496
f 1226 519 512
f 1226 1564 1561
f 1226 1572 1576
f 1226 1426 1442
f 1226 1473 1470
f 1226 1347 1350
f 1226 1340 1335
f 1226 626 622
f 1226 688 686
f 1226 685 686
f 1226 682 680
f 1226 1024 1027
f 1226 1028 1027
f 1226 1043 1041
f 1226 1039 1041
f 1226 615 607
f 1226 1509 1506
f 1226 1505 1506
f 1226 684 683
f 1226 1583 1579
f 1226 1568 1560
f 1226 1441 1431
f 1226 1383 1378
f 1226 1289 1293
f 1226 1451 1446
f 1226 1303 1322
f 1226 706 707
f 1226 700 701
f 1226 692 693
f 1226 695 693
f 1226 519 522
f 1226 1493 1478
f 1226 1473 1478
f 1226 1443 1446
f 1226 697 698
f 1226 1346 1347
f 1226 684 685
f 1226 1578 1573
f 1226 1586 1583
f 1226 1259 1289
f 1226 1326 1333
f 1226 706 705
f 1226 703 705
f 1226 699 700
f 1226 696 695
f 1226 1451 1462
f 1226 1237 1259
f 1226 696 697
